<?xml version="1.0" encoding="UTF-8"?>
<svg xmlns="http://www.w3.org/2000/svg"
     xmlns:xlink="http://www.w3.org/1999/xlink"
     xmlns:gadfly="http://www.gadflyjl.org/ns"
     version="1.2"
     width="141.42mm" height="100mm" viewBox="0 0 141.42 100"
     stroke="none"
     fill="#000000"
     stroke-width="0.3"
     font-size="3.88"
>
<defs>
  <marker id="arrow" markerWidth="15" markerHeight="7" refX="5" refY="3.5" orient="auto" markerUnits="strokeWidth">
    <path d="M0,0 L15,3.5 L0,7 z" stroke="context-stroke" fill="context-stroke"/>
  </marker>
</defs>
<g class="plotroot xscalable yscalable" id="img-d528f002-1">
  <g font-size="3.88" font-family="'PT Sans','Helvetica Neue','Helvetica',sans-serif" fill="#564A55" stroke="#000000" stroke-opacity="0.000" id="img-d528f002-2">
    <g transform="translate(78.03,88.39)">
      <g class="primitive">
        <text text-anchor="middle" dy="0.6em">Utilisasi Kapasitas Trayek</text>
      </g>
    </g>
  </g>
  <g class="guide xlabels" font-size="2.82" font-family="'PT Sans Caption','Helvetica Neue','Helvetica',sans-serif" fill="#6C606B" id="img-d528f002-3">
    <g transform="translate(21.63,81.72)">
      <g class="primitive">
        <text text-anchor="middle" dy="0.6em">0.0%</text>
      </g>
    </g>
    <g transform="translate(78.03,81.72)">
      <g class="primitive">
        <text text-anchor="middle" dy="0.6em">50.0%</text>
      </g>
    </g>
    <g transform="translate(134.42,81.72)">
      <g class="primitive">
        <text text-anchor="middle" dy="0.6em">100.0%</text>
      </g>
    </g>
  </g>
  <g clip-path="url(#img-d528f002-4)">
    <g id="img-d528f002-5">
      <g pointer-events="visible" stroke-width="0.3" fill="#000000" fill-opacity="0.000" stroke="#000000" stroke-opacity="0.000" class="guide background" id="img-d528f002-6">
        <g transform="translate(78.03,42.86)" id="img-d528f002-7">
          <path d="M-58.39,-37.86 L58.39,-37.86 58.39,37.86 -58.39,37.86  z" class="primitive"/>
        </g>
      </g>
      <g class="guide ygridlines xfixed" stroke-dasharray="0.5,0.5" stroke-width="0.2" stroke="#D0D0E0" id="img-d528f002-8">
        <g transform="translate(78.03,78.71)" id="img-d528f002-9">
          <path fill="none" d="M-58.39,0 L58.39,0 " class="primitive"/>
        </g>
        <g transform="translate(78.03,54.81)" id="img-d528f002-10">
          <path fill="none" d="M-58.39,0 L58.39,0 " class="primitive"/>
        </g>
        <g transform="translate(78.03,30.9)" id="img-d528f002-11">
          <path fill="none" d="M-58.39,0 L58.39,0 " class="primitive"/>
        </g>
        <g transform="translate(78.03,7)" id="img-d528f002-12">
          <path fill="none" d="M-58.39,0 L58.39,0 " class="primitive"/>
        </g>
      </g>
      <g class="guide xgridlines yfixed" stroke-dasharray="0.5,0.5" stroke-width="0.2" stroke="#D0D0E0" id="img-d528f002-13">
        <g transform="translate(21.63,42.86)" id="img-d528f002-14">
          <path fill="none" d="M0,-37.86 L0,37.86 " class="primitive"/>
        </g>
        <g transform="translate(78.03,42.86)" id="img-d528f002-15">
          <path fill="none" d="M0,-37.86 L0,37.86 " class="primitive"/>
        </g>
        <g transform="translate(134.42,42.86)" id="img-d528f002-16">
          <path fill="none" d="M0,-37.86 L0,37.86 " class="primitive"/>
        </g>
      </g>
      <g class="plotpanel" id="img-d528f002-17">
        <metadata>
          <boundingbox value="19.63166666666666mm 5.0mm 116.78968957064285mm 75.715mm"/>
          <unitbox value="-0.017732117249488064 308.3664505333612 1.0354642344989762 -316.7329010667225"/>
        </metadata>
        <g shape-rendering="crispEdges" stroke-width="0.3" id="img-d528f002-18">
          <g class="geometry" fill-opacity="1" stroke="#000000" stroke-opacity="0.000" fill="#00BFFF" id="img-d528f002-19">
            <g transform="translate(27.27,62.58)" id="img-d528f002-20">
              <path d="M-5.66,-16.14 L5.66,-16.14 5.66,16.14 -5.66,16.14  z" class="primitive"/>
            </g>
            <g transform="translate(38.55,73.1)" id="img-d528f002-21">
              <path d="M-5.66,-5.62 L5.66,-5.62 5.66,5.62 -5.66,5.62  z" class="primitive"/>
            </g>
            <g transform="translate(49.83,75.85)" id="img-d528f002-22">
              <path d="M-5.66,-2.87 L5.66,-2.87 5.66,2.87 -5.66,2.87  z" class="primitive"/>
            </g>
            <g transform="translate(61.11,76.44)" id="img-d528f002-23">
              <path d="M-5.66,-2.27 L5.66,-2.27 5.66,2.27 -5.66,2.27  z" class="primitive"/>
            </g>
            <g transform="translate(72.39,76.44)" id="img-d528f002-24">
              <path d="M-5.66,-2.27 L5.66,-2.27 5.66,2.27 -5.66,2.27  z" class="primitive"/>
            </g>
            <g transform="translate(83.67,76.56)" id="img-d528f002-25">
              <path d="M-5.66,-2.15 L5.66,-2.15 5.66,2.15 -5.66,2.15  z" class="primitive"/>
            </g>
            <g transform="translate(94.94,76.68)" id="img-d528f002-26">
              <path d="M-5.66,-2.03 L5.66,-2.03 5.66,2.03 -5.66,2.03  z" class="primitive"/>
            </g>
            <g transform="translate(106.22,76.92)" id="img-d528f002-27">
              <path d="M-5.66,-1.79 L5.66,-1.79 5.66,1.79 -5.66,1.79  z" class="primitive"/>
            </g>
            <g transform="translate(117.5,76.8)" id="img-d528f002-28">
              <path d="M-5.66,-1.91 L5.66,-1.91 5.66,1.91 -5.66,1.91  z" class="primitive"/>
            </g>
            <g transform="translate(128.78,45.97)" id="img-d528f002-29">
              <path d="M-5.66,-32.75 L5.66,-32.75 5.66,32.75 -5.66,32.75  z" class="primitive"/>
            </g>
          </g>
        </g>
      </g>
    </g>
  </g>
  <g class="guide ylabels" font-size="2.82" font-family="'PT Sans Caption','Helvetica Neue','Helvetica',sans-serif" fill="#6C606B" id="img-d528f002-30">
    <g transform="translate(18.63,78.71)" id="img-d528f002-31">
      <g class="primitive">
        <text text-anchor="end" dy="0.35em">0</text>
      </g>
    </g>
    <g transform="translate(18.63,54.81)" id="img-d528f002-32">
      <g class="primitive">
        <text text-anchor="end" dy="0.35em">100</text>
      </g>
    </g>
    <g transform="translate(18.63,30.9)" id="img-d528f002-33">
      <g class="primitive">
        <text text-anchor="end" dy="0.35em">200</text>
      </g>
    </g>
    <g transform="translate(18.63,7)" id="img-d528f002-34">
      <g class="primitive">
        <text text-anchor="end" dy="0.35em">300</text>
      </g>
    </g>
  </g>
  <g font-size="3.88" font-family="'PT Sans','Helvetica Neue','Helvetica',sans-serif" fill="#564A55" stroke="#000000" stroke-opacity="0.000" id="img-d528f002-35">
    <g transform="translate(8.81,40.86)" id="img-d528f002-36">
      <g class="primitive">
        <text text-anchor="middle" dy="0.35em" transform="rotate(-90,0, 2)">Jumlah Trayek dengan Utilisasi x</text>
      </g>
    </g>
  </g>
</g>
<defs>
  <clipPath id="img-d528f002-4">
    <path d="M19.63,5 L136.42,5 136.42,80.72 19.63,80.72 " />
  </clipPath>
</defs>
</svg>
