<?xml version="1.0" encoding="UTF-8" standalone="no"?>
<!DOCTYPE svg PUBLIC "-//W3C//DTD SVG 1.1//EN"
 "http://www.w3.org/Graphics/SVG/1.1/DTD/svg11.dtd">
<!-- Generated by graphviz version 2.50.0 (0)
 -->
<!-- Title: complete Pages: 1 -->
<svg width="888pt" height="469pt"
 viewBox="0.00 0.00 888.00 469.00" xmlns="http://www.w3.org/2000/svg" xmlns:xlink="http://www.w3.org/1999/xlink">
<g id="graph0" class="graph" transform="scale(1 1) rotate(0) translate(4 465)">
<title>complete</title>
<polygon fill="white" stroke="transparent" points="-4,4 -4,-465 884,-465 884,4 -4,4"/>
<!-- (cbn,3) -->
<g id="node1" class="node">
<title>(cbn,3)</title>
<polygon fill="none" stroke="black" points="178,-0.5 178,-46.5 337,-46.5 337,-0.5 178,-0.5"/>
<text text-anchor="middle" x="207.5" y="-19.8" font-family="Helvetica,sans-Serif" font-size="14.00">(cbn,3)</text>
<polyline fill="none" stroke="black" points="237,-0.5 237,-46.5 "/>
<text text-anchor="middle" x="256" y="-31.3" font-family="Helvetica,sans-Serif" font-size="14.00">50k</text>
<polyline fill="none" stroke="black" points="237,-23.5 275,-23.5 "/>
<text text-anchor="middle" x="256" y="-8.3" font-family="Helvetica,sans-Serif" font-size="14.00">20k</text>
<polyline fill="none" stroke="black" points="275,-0.5 275,-46.5 "/>
<text text-anchor="middle" x="306" y="-31.3" font-family="Helvetica,sans-Serif" font-size="14.00">&#45;40.6</text>
<polyline fill="none" stroke="black" points="275,-23.5 337,-23.5 "/>
<text text-anchor="middle" x="306" y="-8.3" font-family="Helvetica,sans-Serif" font-size="14.00">&#45;257.57</text>
</g>
<!-- (yyk,1) -->
<g id="node2" class="node">
<title>(yyk,1)</title>
<polygon fill="none" stroke="black" points="551.5,-271.5 551.5,-317.5 701.5,-317.5 701.5,-271.5 551.5,-271.5"/>
<text text-anchor="middle" x="580" y="-290.8" font-family="Helvetica,sans-Serif" font-size="14.00">(yyk,1)</text>
<polyline fill="none" stroke="black" points="608.5,-271.5 608.5,-317.5 "/>
<text text-anchor="middle" x="627.5" y="-302.3" font-family="Helvetica,sans-Serif" font-size="14.00">50k</text>
<polyline fill="none" stroke="black" points="608.5,-294.5 646.5,-294.5 "/>
<text text-anchor="middle" x="627.5" y="-279.3" font-family="Helvetica,sans-Serif" font-size="14.00">20k</text>
<polyline fill="none" stroke="black" points="646.5,-271.5 646.5,-317.5 "/>
<text text-anchor="middle" x="674" y="-302.3" font-family="Helvetica,sans-Serif" font-size="14.00">&#45;83.86</text>
<polyline fill="none" stroke="black" points="646.5,-294.5 701.5,-294.5 "/>
<text text-anchor="middle" x="674" y="-279.3" font-family="Helvetica,sans-Serif" font-size="14.00">30.27</text>
</g>
<!-- (yyk,2) -->
<g id="node18" class="node">
<title>(yyk,2)</title>
<polygon fill="none" stroke="black" points="554,-128.5 554,-174.5 699,-174.5 699,-128.5 554,-128.5"/>
<text text-anchor="middle" x="582.5" y="-147.8" font-family="Helvetica,sans-Serif" font-size="14.00">(yyk,2)</text>
<polyline fill="none" stroke="black" points="611,-128.5 611,-174.5 "/>
<text text-anchor="middle" x="630" y="-159.3" font-family="Helvetica,sans-Serif" font-size="14.00">50k</text>
<polyline fill="none" stroke="black" points="611,-151.5 649,-151.5 "/>
<text text-anchor="middle" x="630" y="-136.3" font-family="Helvetica,sans-Serif" font-size="14.00">20k</text>
<polyline fill="none" stroke="black" points="649,-128.5 649,-174.5 "/>
<text text-anchor="middle" x="674" y="-159.3" font-family="Helvetica,sans-Serif" font-size="14.00">16.67</text>
<polyline fill="none" stroke="black" points="649,-151.5 699,-151.5 "/>
<text text-anchor="middle" x="674" y="-136.3" font-family="Helvetica,sans-Serif" font-size="14.00">193.3</text>
</g>
<!-- (yyk,1)&#45;&gt;(yyk,2) -->
<g id="edge1" class="edge">
<title>(yyk,1)&#45;&gt;(yyk,2)</title>
<path fill="none" stroke="purple" d="M626.5,-271.47C626.5,-248.32 626.5,-211.67 626.5,-185.16"/>
<polygon fill="purple" stroke="purple" points="630,-184.84 626.5,-174.84 623,-184.84 630,-184.84"/>
<text text-anchor="middle" x="662" y="-234.3" font-family="Helvetica,sans-Serif" font-size="14.00" fill="purple">50k:184.3</text>
<text text-anchor="middle" x="662" y="-219.3" font-family="Helvetica,sans-Serif" font-size="14.00" fill="purple"> 20k:377.05</text>
<text text-anchor="middle" x="662" y="-204.3" font-family="Helvetica,sans-Serif" font-size="14.00" fill="purple"> kont=1.0</text>
</g>
<!-- (bdg,0) -->
<g id="node3" class="node">
<title>(bdg,0)</title>
<polygon fill="none" stroke="black" points="10,-414.5 10,-460.5 165,-460.5 165,-414.5 10,-414.5"/>
<text text-anchor="middle" x="39.5" y="-433.8" font-family="Helvetica,sans-Serif" font-size="14.00">(bdg,0)</text>
<polyline fill="none" stroke="black" points="69,-414.5 69,-460.5 "/>
<text text-anchor="middle" x="88" y="-445.3" font-family="Helvetica,sans-Serif" font-size="14.00">50k</text>
<polyline fill="none" stroke="black" points="69,-437.5 107,-437.5 "/>
<text text-anchor="middle" x="88" y="-422.3" font-family="Helvetica,sans-Serif" font-size="14.00">20k</text>
<polyline fill="none" stroke="black" points="107,-414.5 107,-460.5 "/>
<text text-anchor="middle" x="136" y="-445.3" font-family="Helvetica,sans-Serif" font-size="14.00">38.96</text>
<polyline fill="none" stroke="black" points="107,-437.5 165,-437.5 "/>
<text text-anchor="middle" x="136" y="-422.3" font-family="Helvetica,sans-Serif" font-size="14.00">394.07</text>
</g>
<!-- (bdg,1) -->
<g id="node12" class="node">
<title>(bdg,1)</title>
<polygon fill="none" stroke="black" points="11.5,-271.5 11.5,-317.5 163.5,-317.5 163.5,-271.5 11.5,-271.5"/>
<text text-anchor="middle" x="41" y="-290.8" font-family="Helvetica,sans-Serif" font-size="14.00">(bdg,1)</text>
<polyline fill="none" stroke="black" points="70.5,-271.5 70.5,-317.5 "/>
<text text-anchor="middle" x="89.5" y="-302.3" font-family="Helvetica,sans-Serif" font-size="14.00">50k</text>
<polyline fill="none" stroke="black" points="70.5,-294.5 108.5,-294.5 "/>
<text text-anchor="middle" x="89.5" y="-279.3" font-family="Helvetica,sans-Serif" font-size="14.00">20k</text>
<polyline fill="none" stroke="black" points="108.5,-271.5 108.5,-317.5 "/>
<text text-anchor="middle" x="136" y="-302.3" font-family="Helvetica,sans-Serif" font-size="14.00">&#45;60.7</text>
<polyline fill="none" stroke="black" points="108.5,-294.5 163.5,-294.5 "/>
<text text-anchor="middle" x="136" y="-279.3" font-family="Helvetica,sans-Serif" font-size="14.00">&#45;35.93</text>
</g>
<!-- (bdg,0)&#45;&gt;(bdg,1) -->
<g id="edge2" class="edge">
<title>(bdg,0)&#45;&gt;(bdg,1)</title>
<path fill="none" stroke="purple" d="M87.5,-414.47C87.5,-391.32 87.5,-354.67 87.5,-328.16"/>
<polygon fill="purple" stroke="purple" points="91,-327.84 87.5,-317.84 84,-327.84 91,-327.84"/>
<text text-anchor="middle" x="123" y="-377.3" font-family="Helvetica,sans-Serif" font-size="14.00" fill="purple">50k:38.96</text>
<text text-anchor="middle" x="123" y="-362.3" font-family="Helvetica,sans-Serif" font-size="14.00" fill="purple"> 20k:394.07</text>
<text text-anchor="middle" x="123" y="-347.3" font-family="Helvetica,sans-Serif" font-size="14.00" fill="purple"> kont=1.0</text>
</g>
<!-- (jkt,3) -->
<g id="node4" class="node">
<title>(jkt,3)</title>
<polygon fill="none" stroke="black" points="368.5,-0.5 368.5,-46.5 518.5,-46.5 518.5,-0.5 368.5,-0.5"/>
<text text-anchor="middle" x="393.5" y="-19.8" font-family="Helvetica,sans-Serif" font-size="14.00">(jkt,3)</text>
<polyline fill="none" stroke="black" points="418.5,-0.5 418.5,-46.5 "/>
<text text-anchor="middle" x="437.5" y="-31.3" font-family="Helvetica,sans-Serif" font-size="14.00">50k</text>
<polyline fill="none" stroke="black" points="418.5,-23.5 456.5,-23.5 "/>
<text text-anchor="middle" x="437.5" y="-8.3" font-family="Helvetica,sans-Serif" font-size="14.00">20k</text>
<polyline fill="none" stroke="black" points="456.5,-0.5 456.5,-46.5 "/>
<text text-anchor="middle" x="487.5" y="-31.3" font-family="Helvetica,sans-Serif" font-size="14.00">&#45;104.49</text>
<polyline fill="none" stroke="black" points="456.5,-23.5 518.5,-23.5 "/>
<text text-anchor="middle" x="487.5" y="-8.3" font-family="Helvetica,sans-Serif" font-size="14.00">2.26</text>
</g>
<!-- (bdg,2) -->
<g id="node5" class="node">
<title>(bdg,2)</title>
<polygon fill="none" stroke="black" points="0,-128.5 0,-174.5 159,-174.5 159,-128.5 0,-128.5"/>
<text text-anchor="middle" x="29.5" y="-147.8" font-family="Helvetica,sans-Serif" font-size="14.00">(bdg,2)</text>
<polyline fill="none" stroke="black" points="59,-128.5 59,-174.5 "/>
<text text-anchor="middle" x="78" y="-159.3" font-family="Helvetica,sans-Serif" font-size="14.00">50k</text>
<polyline fill="none" stroke="black" points="59,-151.5 97,-151.5 "/>
<text text-anchor="middle" x="78" y="-136.3" font-family="Helvetica,sans-Serif" font-size="14.00">20k</text>
<polyline fill="none" stroke="black" points="97,-128.5 97,-174.5 "/>
<text text-anchor="middle" x="128" y="-159.3" font-family="Helvetica,sans-Serif" font-size="14.00">&#45;125.69</text>
<polyline fill="none" stroke="black" points="97,-151.5 159,-151.5 "/>
<text text-anchor="middle" x="128" y="-136.3" font-family="Helvetica,sans-Serif" font-size="14.00">&#45;235.94</text>
</g>
<!-- (bdg,3) -->
<g id="node8" class="node">
<title>(bdg,3)</title>
<polygon fill="none" stroke="black" points="6,-0.5 6,-46.5 153,-46.5 153,-0.5 6,-0.5"/>
<text text-anchor="middle" x="35.5" y="-19.8" font-family="Helvetica,sans-Serif" font-size="14.00">(bdg,3)</text>
<polyline fill="none" stroke="black" points="65,-0.5 65,-46.5 "/>
<text text-anchor="middle" x="84" y="-31.3" font-family="Helvetica,sans-Serif" font-size="14.00">50k</text>
<polyline fill="none" stroke="black" points="65,-23.5 103,-23.5 "/>
<text text-anchor="middle" x="84" y="-8.3" font-family="Helvetica,sans-Serif" font-size="14.00">20k</text>
<polyline fill="none" stroke="black" points="103,-0.5 103,-46.5 "/>
<text text-anchor="middle" x="128" y="-31.3" font-family="Helvetica,sans-Serif" font-size="14.00">&#45;86.0</text>
<polyline fill="none" stroke="black" points="103,-23.5 153,-23.5 "/>
<text text-anchor="middle" x="128" y="-8.3" font-family="Helvetica,sans-Serif" font-size="14.00">28.33</text>
</g>
<!-- (bdg,2)&#45;&gt;(bdg,3) -->
<g id="edge3" class="edge">
<title>(bdg,2)&#45;&gt;(bdg,3)</title>
<path fill="none" stroke="purple" d="M79.5,-128.26C79.5,-108.38 79.5,-79.01 79.5,-56.58"/>
<polygon fill="purple" stroke="purple" points="83,-56.51 79.5,-46.51 76,-56.51 83,-56.51"/>
<text text-anchor="middle" x="115" y="-98.8" font-family="Helvetica,sans-Serif" font-size="14.00" fill="purple">50k:125.69</text>
<text text-anchor="middle" x="115" y="-83.8" font-family="Helvetica,sans-Serif" font-size="14.00" fill="purple"> 20k:585.31</text>
<text text-anchor="middle" x="115" y="-68.8" font-family="Helvetica,sans-Serif" font-size="14.00" fill="purple"> kont=1.0</text>
</g>
<!-- (yyk,3) -->
<g id="node6" class="node">
<title>(yyk,3)</title>
<polygon fill="none" stroke="black" points="548,-0.5 548,-46.5 705,-46.5 705,-0.5 548,-0.5"/>
<text text-anchor="middle" x="576.5" y="-19.8" font-family="Helvetica,sans-Serif" font-size="14.00">(yyk,3)</text>
<polyline fill="none" stroke="black" points="605,-0.5 605,-46.5 "/>
<text text-anchor="middle" x="624" y="-31.3" font-family="Helvetica,sans-Serif" font-size="14.00">50k</text>
<polyline fill="none" stroke="black" points="605,-23.5 643,-23.5 "/>
<text text-anchor="middle" x="624" y="-8.3" font-family="Helvetica,sans-Serif" font-size="14.00">20k</text>
<polyline fill="none" stroke="black" points="643,-0.5 643,-46.5 "/>
<text text-anchor="middle" x="674" y="-31.3" font-family="Helvetica,sans-Serif" font-size="14.00">278.35</text>
<polyline fill="none" stroke="black" points="643,-23.5 705,-23.5 "/>
<text text-anchor="middle" x="674" y="-8.3" font-family="Helvetica,sans-Serif" font-size="14.00">&#45;146.91</text>
</g>
<!-- (sby,3) -->
<g id="node7" class="node">
<title>(sby,3)</title>
<polygon fill="none" stroke="black" points="723,-0.5 723,-46.5 880,-46.5 880,-0.5 723,-0.5"/>
<text text-anchor="middle" x="751.5" y="-19.8" font-family="Helvetica,sans-Serif" font-size="14.00">(sby,3)</text>
<polyline fill="none" stroke="black" points="780,-0.5 780,-46.5 "/>
<text text-anchor="middle" x="799" y="-31.3" font-family="Helvetica,sans-Serif" font-size="14.00">50k</text>
<polyline fill="none" stroke="black" points="780,-23.5 818,-23.5 "/>
<text text-anchor="middle" x="799" y="-8.3" font-family="Helvetica,sans-Serif" font-size="14.00">20k</text>
<polyline fill="none" stroke="black" points="818,-0.5 818,-46.5 "/>
<text text-anchor="middle" x="849" y="-31.3" font-family="Helvetica,sans-Serif" font-size="14.00">142.54</text>
<polyline fill="none" stroke="black" points="818,-23.5 880,-23.5 "/>
<text text-anchor="middle" x="849" y="-8.3" font-family="Helvetica,sans-Serif" font-size="14.00">&#45;334.48</text>
</g>
<!-- (jkt,0) -->
<g id="node9" class="node">
<title>(jkt,0)</title>
<polygon fill="none" stroke="black" points="379,-414.5 379,-460.5 532,-460.5 532,-414.5 379,-414.5"/>
<text text-anchor="middle" x="404" y="-433.8" font-family="Helvetica,sans-Serif" font-size="14.00">(jkt,0)</text>
<polyline fill="none" stroke="black" points="429,-414.5 429,-460.5 "/>
<text text-anchor="middle" x="448" y="-445.3" font-family="Helvetica,sans-Serif" font-size="14.00">50k</text>
<polyline fill="none" stroke="black" points="429,-437.5 467,-437.5 "/>
<text text-anchor="middle" x="448" y="-422.3" font-family="Helvetica,sans-Serif" font-size="14.00">20k</text>
<polyline fill="none" stroke="black" points="467,-414.5 467,-460.5 "/>
<text text-anchor="middle" x="499.5" y="-445.3" font-family="Helvetica,sans-Serif" font-size="14.00">378.79</text>
<polyline fill="none" stroke="black" points="467,-437.5 532,-437.5 "/>
<text text-anchor="middle" x="499.5" y="-422.3" font-family="Helvetica,sans-Serif" font-size="14.00">1053.47</text>
</g>
<!-- (jkt,1) -->
<g id="node13" class="node">
<title>(jkt,1)</title>
<polygon fill="none" stroke="black" points="370.5,-271.5 370.5,-317.5 516.5,-317.5 516.5,-271.5 370.5,-271.5"/>
<text text-anchor="middle" x="395.5" y="-290.8" font-family="Helvetica,sans-Serif" font-size="14.00">(jkt,1)</text>
<polyline fill="none" stroke="black" points="420.5,-271.5 420.5,-317.5 "/>
<text text-anchor="middle" x="439.5" y="-302.3" font-family="Helvetica,sans-Serif" font-size="14.00">50k</text>
<polyline fill="none" stroke="black" points="420.5,-294.5 458.5,-294.5 "/>
<text text-anchor="middle" x="439.5" y="-279.3" font-family="Helvetica,sans-Serif" font-size="14.00">20k</text>
<polyline fill="none" stroke="black" points="458.5,-271.5 458.5,-317.5 "/>
<text text-anchor="middle" x="487.5" y="-302.3" font-family="Helvetica,sans-Serif" font-size="14.00">37.74</text>
<polyline fill="none" stroke="black" points="458.5,-294.5 516.5,-294.5 "/>
<text text-anchor="middle" x="487.5" y="-279.3" font-family="Helvetica,sans-Serif" font-size="14.00">387.75</text>
</g>
<!-- (jkt,0)&#45;&gt;(jkt,1) -->
<g id="edge4" class="edge">
<title>(jkt,0)&#45;&gt;(jkt,1)</title>
<path fill="none" stroke="purple" d="M453.62,-414.47C451.65,-391.22 448.51,-354.34 446.25,-327.81"/>
<polygon fill="purple" stroke="purple" points="449.74,-327.51 445.4,-317.84 442.76,-328.1 449.74,-327.51"/>
<text text-anchor="middle" x="492" y="-377.3" font-family="Helvetica,sans-Serif" font-size="14.00" fill="purple">50k:378.79</text>
<text text-anchor="middle" x="492" y="-362.3" font-family="Helvetica,sans-Serif" font-size="14.00" fill="purple"> 20k:1053.47</text>
<text text-anchor="middle" x="492" y="-347.3" font-family="Helvetica,sans-Serif" font-size="14.00" fill="purple"> kont=1.0</text>
</g>
<!-- (sby,0) -->
<g id="node10" class="node">
<title>(sby,0)</title>
<polygon fill="none" stroke="black" points="725,-414.5 725,-460.5 878,-460.5 878,-414.5 725,-414.5"/>
<text text-anchor="middle" x="753.5" y="-433.8" font-family="Helvetica,sans-Serif" font-size="14.00">(sby,0)</text>
<polyline fill="none" stroke="black" points="782,-414.5 782,-460.5 "/>
<text text-anchor="middle" x="801" y="-445.3" font-family="Helvetica,sans-Serif" font-size="14.00">50k</text>
<polyline fill="none" stroke="black" points="782,-437.5 820,-437.5 "/>
<text text-anchor="middle" x="801" y="-422.3" font-family="Helvetica,sans-Serif" font-size="14.00">20k</text>
<polyline fill="none" stroke="black" points="820,-414.5 820,-460.5 "/>
<text text-anchor="middle" x="849" y="-445.3" font-family="Helvetica,sans-Serif" font-size="14.00">186.39</text>
<polyline fill="none" stroke="black" points="820,-437.5 878,-437.5 "/>
<text text-anchor="middle" x="849" y="-422.3" font-family="Helvetica,sans-Serif" font-size="14.00">51.61</text>
</g>
<!-- (sby,1) -->
<g id="node17" class="node">
<title>(sby,1)</title>
<polygon fill="none" stroke="black" points="723,-271.5 723,-317.5 880,-317.5 880,-271.5 723,-271.5"/>
<text text-anchor="middle" x="751.5" y="-290.8" font-family="Helvetica,sans-Serif" font-size="14.00">(sby,1)</text>
<polyline fill="none" stroke="black" points="780,-271.5 780,-317.5 "/>
<text text-anchor="middle" x="799" y="-302.3" font-family="Helvetica,sans-Serif" font-size="14.00">50k</text>
<polyline fill="none" stroke="black" points="780,-294.5 818,-294.5 "/>
<text text-anchor="middle" x="799" y="-279.3" font-family="Helvetica,sans-Serif" font-size="14.00">20k</text>
<polyline fill="none" stroke="black" points="818,-271.5 818,-317.5 "/>
<text text-anchor="middle" x="849" y="-302.3" font-family="Helvetica,sans-Serif" font-size="14.00">&#45;185.62</text>
<polyline fill="none" stroke="black" points="818,-294.5 880,-294.5 "/>
<text text-anchor="middle" x="849" y="-279.3" font-family="Helvetica,sans-Serif" font-size="14.00">&#45;62.17</text>
</g>
<!-- (sby,0)&#45;&gt;(sby,1) -->
<g id="edge5" class="edge">
<title>(sby,0)&#45;&gt;(sby,1)</title>
<path fill="none" stroke="purple" d="M801.5,-414.47C801.5,-391.32 801.5,-354.67 801.5,-328.16"/>
<polygon fill="purple" stroke="purple" points="805,-327.84 801.5,-317.84 798,-327.84 805,-327.84"/>
<text text-anchor="middle" x="835" y="-377.3" font-family="Helvetica,sans-Serif" font-size="14.00" fill="purple">50k:186.39</text>
<text text-anchor="middle" x="835" y="-362.3" font-family="Helvetica,sans-Serif" font-size="14.00" fill="purple"> 20k:51.61</text>
<text text-anchor="middle" x="835" y="-347.3" font-family="Helvetica,sans-Serif" font-size="14.00" fill="purple"> kont=1.0</text>
</g>
<!-- (cbn,2) -->
<g id="node11" class="node">
<title>(cbn,2)</title>
<polygon fill="none" stroke="black" points="180,-128.5 180,-174.5 335,-174.5 335,-128.5 180,-128.5"/>
<text text-anchor="middle" x="209.5" y="-147.8" font-family="Helvetica,sans-Serif" font-size="14.00">(cbn,2)</text>
<polyline fill="none" stroke="black" points="239,-128.5 239,-174.5 "/>
<text text-anchor="middle" x="258" y="-159.3" font-family="Helvetica,sans-Serif" font-size="14.00">50k</text>
<polyline fill="none" stroke="black" points="239,-151.5 277,-151.5 "/>
<text text-anchor="middle" x="258" y="-136.3" font-family="Helvetica,sans-Serif" font-size="14.00">20k</text>
<polyline fill="none" stroke="black" points="277,-128.5 277,-174.5 "/>
<text text-anchor="middle" x="306" y="-159.3" font-family="Helvetica,sans-Serif" font-size="14.00">126.22</text>
<polyline fill="none" stroke="black" points="277,-151.5 335,-151.5 "/>
<text text-anchor="middle" x="306" y="-136.3" font-family="Helvetica,sans-Serif" font-size="14.00">322.59</text>
</g>
<!-- (cbn,2)&#45;&gt;(cbn,3) -->
<g id="edge6" class="edge">
<title>(cbn,2)&#45;&gt;(cbn,3)</title>
<path fill="none" stroke="purple" d="M257.5,-128.26C257.5,-108.38 257.5,-79.01 257.5,-56.58"/>
<polygon fill="purple" stroke="purple" points="261,-56.51 257.5,-46.51 254,-56.51 261,-56.51"/>
<text text-anchor="middle" x="293" y="-98.8" font-family="Helvetica,sans-Serif" font-size="14.00" fill="purple">50k:61.2</text>
<text text-anchor="middle" x="293" y="-83.8" font-family="Helvetica,sans-Serif" font-size="14.00" fill="purple"> 20k:591.33</text>
<text text-anchor="middle" x="293" y="-68.8" font-family="Helvetica,sans-Serif" font-size="14.00" fill="purple"> kont=1.0</text>
</g>
<!-- (bdg,1)&#45;&gt;(bdg,2) -->
<g id="edge7" class="edge">
<title>(bdg,1)&#45;&gt;(bdg,2)</title>
<path fill="none" stroke="purple" d="M83,-271.3C81.98,-265.38 81.04,-258.97 80.5,-253 78.43,-230.17 78.22,-204.3 78.51,-184.53"/>
<polygon fill="purple" stroke="purple" points="82.01,-184.58 78.7,-174.51 75.01,-184.44 82.01,-184.58"/>
<text text-anchor="middle" x="116" y="-234.3" font-family="Helvetica,sans-Serif" font-size="14.00" fill="purple">50k:0.0</text>
<text text-anchor="middle" x="116" y="-219.3" font-family="Helvetica,sans-Serif" font-size="14.00" fill="purple"> 20k:349.37</text>
<text text-anchor="middle" x="116" y="-204.3" font-family="Helvetica,sans-Serif" font-size="14.00" fill="purple"> kont=1.0</text>
</g>
<!-- (bdg,1)&#45;&gt;(cbn,2) -->
<g id="edge8" class="edge">
<title>(bdg,1)&#45;&gt;(cbn,2)</title>
<path fill="none" stroke="green" d="M128.97,-271.37C136.99,-266 144.93,-259.81 151.5,-253 172.93,-230.78 164.56,-214.72 186.5,-193 191.24,-188.3 196.64,-183.97 202.29,-180.01"/>
<polygon fill="green" stroke="green" points="204.25,-182.91 210.7,-174.5 200.42,-177.05 204.25,-182.91"/>
<text text-anchor="middle" x="221.5" y="-241.8" font-family="Helvetica,sans-Serif" font-size="14.00" fill="green">50k:99.66</text>
<text text-anchor="middle" x="221.5" y="-226.8" font-family="Helvetica,sans-Serif" font-size="14.00" fill="green"> 20k:80.62</text>
<text text-anchor="middle" x="221.5" y="-211.8" font-family="Helvetica,sans-Serif" font-size="14.00" fill="green"> kont=1.0</text>
<text text-anchor="middle" x="221.5" y="-196.8" font-family="Helvetica,sans-Serif" font-size="14.00" fill="green"> moda=truk</text>
</g>
<!-- (jkt,2) -->
<g id="node20" class="node">
<title>(jkt,2)</title>
<polygon fill="none" stroke="black" points="370.5,-128.5 370.5,-174.5 516.5,-174.5 516.5,-128.5 370.5,-128.5"/>
<text text-anchor="middle" x="395.5" y="-147.8" font-family="Helvetica,sans-Serif" font-size="14.00">(jkt,2)</text>
<polyline fill="none" stroke="black" points="420.5,-128.5 420.5,-174.5 "/>
<text text-anchor="middle" x="439.5" y="-159.3" font-family="Helvetica,sans-Serif" font-size="14.00">50k</text>
<polyline fill="none" stroke="black" points="420.5,-151.5 458.5,-151.5 "/>
<text text-anchor="middle" x="439.5" y="-136.3" font-family="Helvetica,sans-Serif" font-size="14.00">20k</text>
<polyline fill="none" stroke="black" points="458.5,-128.5 458.5,-174.5 "/>
<text text-anchor="middle" x="487.5" y="-159.3" font-family="Helvetica,sans-Serif" font-size="14.00">&#45;89.19</text>
<polyline fill="none" stroke="black" points="458.5,-151.5 516.5,-151.5 "/>
<text text-anchor="middle" x="487.5" y="-136.3" font-family="Helvetica,sans-Serif" font-size="14.00">148.29</text>
</g>
<!-- (jkt,1)&#45;&gt;(jkt,2) -->
<g id="edge9" class="edge">
<title>(jkt,1)&#45;&gt;(jkt,2)</title>
<path fill="none" stroke="purple" d="M443.5,-271.47C443.5,-248.32 443.5,-211.67 443.5,-185.16"/>
<polygon fill="purple" stroke="purple" points="447,-184.84 443.5,-174.84 440,-184.84 447,-184.84"/>
<text text-anchor="middle" x="483" y="-234.3" font-family="Helvetica,sans-Serif" font-size="14.00" fill="purple">50k:7496.92</text>
<text text-anchor="middle" x="483" y="-219.3" font-family="Helvetica,sans-Serif" font-size="14.00" fill="purple"> 20k:2259.08</text>
<text text-anchor="middle" x="483" y="-204.3" font-family="Helvetica,sans-Serif" font-size="14.00" fill="purple"> kont=1.0</text>
</g>
<!-- (cbn,0) -->
<g id="node14" class="node">
<title>(cbn,0)</title>
<polygon fill="none" stroke="black" points="192.5,-414.5 192.5,-460.5 354.5,-460.5 354.5,-414.5 192.5,-414.5"/>
<text text-anchor="middle" x="222" y="-433.8" font-family="Helvetica,sans-Serif" font-size="14.00">(cbn,0)</text>
<polyline fill="none" stroke="black" points="251.5,-414.5 251.5,-460.5 "/>
<text text-anchor="middle" x="270.5" y="-445.3" font-family="Helvetica,sans-Serif" font-size="14.00">50k</text>
<polyline fill="none" stroke="black" points="251.5,-437.5 289.5,-437.5 "/>
<text text-anchor="middle" x="270.5" y="-422.3" font-family="Helvetica,sans-Serif" font-size="14.00">20k</text>
<polyline fill="none" stroke="black" points="289.5,-414.5 289.5,-460.5 "/>
<text text-anchor="middle" x="322" y="-445.3" font-family="Helvetica,sans-Serif" font-size="14.00">7155.87</text>
<polyline fill="none" stroke="black" points="289.5,-437.5 354.5,-437.5 "/>
<text text-anchor="middle" x="322" y="-422.3" font-family="Helvetica,sans-Serif" font-size="14.00">2553.36</text>
</g>
<!-- (cbn,0)&#45;&gt;(jkt,1) -->
<g id="edge10" class="edge">
<title>(cbn,0)&#45;&gt;(jkt,1)</title>
<path fill="none" stroke="green" d="M310.55,-414.45C318.02,-409 325.43,-402.76 331.5,-396 351.84,-373.36 342.67,-357.2 364.5,-336 369.4,-331.24 374.98,-326.91 380.84,-323.01"/>
<polygon fill="green" stroke="green" points="382.93,-325.83 389.6,-317.6 379.26,-319.88 382.93,-325.83"/>
<text text-anchor="middle" x="404" y="-384.8" font-family="Helvetica,sans-Serif" font-size="14.00" fill="green">50k:7155.87</text>
<text text-anchor="middle" x="404" y="-369.8" font-family="Helvetica,sans-Serif" font-size="14.00" fill="green"> 20k:1593.36</text>
<text text-anchor="middle" x="404" y="-354.8" font-family="Helvetica,sans-Serif" font-size="14.00" fill="green"> kont=18.0</text>
<text text-anchor="middle" x="404" y="-339.8" font-family="Helvetica,sans-Serif" font-size="14.00" fill="green"> moda=truk</text>
</g>
<!-- (cbn,1) -->
<g id="node19" class="node">
<title>(cbn,1)</title>
<polygon fill="none" stroke="black" points="190.5,-271.5 190.5,-317.5 342.5,-317.5 342.5,-271.5 190.5,-271.5"/>
<text text-anchor="middle" x="220" y="-290.8" font-family="Helvetica,sans-Serif" font-size="14.00">(cbn,1)</text>
<polyline fill="none" stroke="black" points="249.5,-271.5 249.5,-317.5 "/>
<text text-anchor="middle" x="268.5" y="-302.3" font-family="Helvetica,sans-Serif" font-size="14.00">50k</text>
<polyline fill="none" stroke="black" points="249.5,-294.5 287.5,-294.5 "/>
<text text-anchor="middle" x="268.5" y="-279.3" font-family="Helvetica,sans-Serif" font-size="14.00">20k</text>
<polyline fill="none" stroke="black" points="287.5,-271.5 287.5,-317.5 "/>
<text text-anchor="middle" x="315" y="-302.3" font-family="Helvetica,sans-Serif" font-size="14.00">&#45;87.76</text>
<polyline fill="none" stroke="black" points="287.5,-294.5 342.5,-294.5 "/>
<text text-anchor="middle" x="315" y="-279.3" font-family="Helvetica,sans-Serif" font-size="14.00">126.7</text>
</g>
<!-- (cbn,0)&#45;&gt;(cbn,1) -->
<g id="edge11" class="edge">
<title>(cbn,0)&#45;&gt;(cbn,1)</title>
<path fill="none" stroke="purple" d="M269.65,-414.28C268.78,-408.36 267.97,-401.95 267.5,-396 265.71,-373.29 265.49,-347.61 265.7,-327.89"/>
<polygon fill="purple" stroke="purple" points="269.2,-327.94 265.85,-317.89 262.2,-327.84 269.2,-327.94"/>
<text text-anchor="middle" x="299.5" y="-377.3" font-family="Helvetica,sans-Serif" font-size="14.00" fill="purple">50k:0.0</text>
<text text-anchor="middle" x="299.5" y="-362.3" font-family="Helvetica,sans-Serif" font-size="14.00" fill="purple"> 20k:960.0</text>
<text text-anchor="middle" x="299.5" y="-347.3" font-family="Helvetica,sans-Serif" font-size="14.00" fill="purple"> kont=1.0</text>
</g>
<!-- (sby,2) -->
<g id="node15" class="node">
<title>(sby,2)</title>
<polygon fill="none" stroke="black" points="723,-128.5 723,-174.5 880,-174.5 880,-128.5 723,-128.5"/>
<text text-anchor="middle" x="751.5" y="-147.8" font-family="Helvetica,sans-Serif" font-size="14.00">(sby,2)</text>
<polyline fill="none" stroke="black" points="780,-128.5 780,-174.5 "/>
<text text-anchor="middle" x="799" y="-159.3" font-family="Helvetica,sans-Serif" font-size="14.00">50k</text>
<polyline fill="none" stroke="black" points="780,-151.5 818,-151.5 "/>
<text text-anchor="middle" x="799" y="-136.3" font-family="Helvetica,sans-Serif" font-size="14.00">20k</text>
<polyline fill="none" stroke="black" points="818,-128.5 818,-174.5 "/>
<text text-anchor="middle" x="849" y="-159.3" font-family="Helvetica,sans-Serif" font-size="14.00">&#45;201.78</text>
<polyline fill="none" stroke="black" points="818,-151.5 880,-151.5 "/>
<text text-anchor="middle" x="849" y="-136.3" font-family="Helvetica,sans-Serif" font-size="14.00">&#45;153.51</text>
</g>
<!-- (sby,2)&#45;&gt;(sby,3) -->
<g id="edge12" class="edge">
<title>(sby,2)&#45;&gt;(sby,3)</title>
<path fill="none" stroke="purple" d="M801.5,-128.26C801.5,-108.38 801.5,-79.01 801.5,-56.58"/>
<polygon fill="purple" stroke="purple" points="805,-56.51 801.5,-46.51 798,-56.51 805,-56.51"/>
<text text-anchor="middle" x="837" y="-98.8" font-family="Helvetica,sans-Serif" font-size="14.00" fill="purple">50k:573.79</text>
<text text-anchor="middle" x="837" y="-83.8" font-family="Helvetica,sans-Serif" font-size="14.00" fill="purple"> 20k:267.29</text>
<text text-anchor="middle" x="837" y="-68.8" font-family="Helvetica,sans-Serif" font-size="14.00" fill="purple"> kont=1.0</text>
</g>
<!-- (yyk,0) -->
<g id="node16" class="node">
<title>(yyk,0)</title>
<polygon fill="none" stroke="black" points="550,-414.5 550,-460.5 703,-460.5 703,-414.5 550,-414.5"/>
<text text-anchor="middle" x="578.5" y="-433.8" font-family="Helvetica,sans-Serif" font-size="14.00">(yyk,0)</text>
<polyline fill="none" stroke="black" points="607,-414.5 607,-460.5 "/>
<text text-anchor="middle" x="626" y="-445.3" font-family="Helvetica,sans-Serif" font-size="14.00">50k</text>
<polyline fill="none" stroke="black" points="607,-437.5 645,-437.5 "/>
<text text-anchor="middle" x="626" y="-422.3" font-family="Helvetica,sans-Serif" font-size="14.00">20k</text>
<polyline fill="none" stroke="black" points="645,-414.5 645,-460.5 "/>
<text text-anchor="middle" x="674" y="-445.3" font-family="Helvetica,sans-Serif" font-size="14.00">100.44</text>
<polyline fill="none" stroke="black" points="645,-437.5 703,-437.5 "/>
<text text-anchor="middle" x="674" y="-422.3" font-family="Helvetica,sans-Serif" font-size="14.00">407.32</text>
</g>
<!-- (yyk,0)&#45;&gt;(yyk,1) -->
<g id="edge13" class="edge">
<title>(yyk,0)&#45;&gt;(yyk,1)</title>
<path fill="none" stroke="purple" d="M626.5,-414.47C626.5,-391.32 626.5,-354.67 626.5,-328.16"/>
<polygon fill="purple" stroke="purple" points="630,-327.84 626.5,-317.84 623,-327.84 630,-327.84"/>
<text text-anchor="middle" x="662" y="-377.3" font-family="Helvetica,sans-Serif" font-size="14.00" fill="purple">50k:100.44</text>
<text text-anchor="middle" x="662" y="-362.3" font-family="Helvetica,sans-Serif" font-size="14.00" fill="purple"> 20k:407.32</text>
<text text-anchor="middle" x="662" y="-347.3" font-family="Helvetica,sans-Serif" font-size="14.00" fill="purple"> kont=1.0</text>
</g>
<!-- (sby,1)&#45;&gt;(sby,2) -->
<g id="edge14" class="edge">
<title>(sby,1)&#45;&gt;(sby,2)</title>
<path fill="none" stroke="purple" d="M801.5,-271.47C801.5,-248.32 801.5,-211.67 801.5,-185.16"/>
<polygon fill="purple" stroke="purple" points="805,-184.84 801.5,-174.84 798,-184.84 805,-184.84"/>
<text text-anchor="middle" x="837" y="-234.3" font-family="Helvetica,sans-Serif" font-size="14.00" fill="purple">50k:372.01</text>
<text text-anchor="middle" x="837" y="-219.3" font-family="Helvetica,sans-Serif" font-size="14.00" fill="purple"> 20k:113.78</text>
<text text-anchor="middle" x="837" y="-204.3" font-family="Helvetica,sans-Serif" font-size="14.00" fill="purple"> kont=1.0</text>
</g>
<!-- (yyk,2)&#45;&gt;(yyk,3) -->
<g id="edge15" class="edge">
<title>(yyk,2)&#45;&gt;(yyk,3)</title>
<path fill="none" stroke="purple" d="M626.5,-128.26C626.5,-108.38 626.5,-79.01 626.5,-56.58"/>
<polygon fill="purple" stroke="purple" points="630,-56.51 626.5,-46.51 623,-56.51 630,-56.51"/>
<text text-anchor="middle" x="662" y="-98.8" font-family="Helvetica,sans-Serif" font-size="14.00" fill="purple">50k:167.63</text>
<text text-anchor="middle" x="662" y="-83.8" font-family="Helvetica,sans-Serif" font-size="14.00" fill="purple"> 20k:183.75</text>
<text text-anchor="middle" x="662" y="-68.8" font-family="Helvetica,sans-Serif" font-size="14.00" fill="purple"> kont=1.0</text>
</g>
<!-- (cbn,1)&#45;&gt;(cbn,2) -->
<g id="edge16" class="edge">
<title>(cbn,1)&#45;&gt;(cbn,2)</title>
<path fill="none" stroke="purple" d="M265.09,-271.47C263.62,-248.32 261.28,-211.67 259.58,-185.16"/>
<polygon fill="purple" stroke="purple" points="263.06,-184.6 258.93,-174.84 256.07,-185.04 263.06,-184.6"/>
<text text-anchor="middle" x="296.5" y="-234.3" font-family="Helvetica,sans-Serif" font-size="14.00" fill="purple">50k:87.76</text>
<text text-anchor="middle" x="296.5" y="-219.3" font-family="Helvetica,sans-Serif" font-size="14.00" fill="purple"> 20k:833.3</text>
<text text-anchor="middle" x="296.5" y="-204.3" font-family="Helvetica,sans-Serif" font-size="14.00" fill="purple"> kont=1.0</text>
</g>
<!-- (jkt,2)&#45;&gt;(jkt,3) -->
<g id="edge17" class="edge">
<title>(jkt,2)&#45;&gt;(jkt,3)</title>
<path fill="none" stroke="purple" d="M443.5,-128.26C443.5,-108.38 443.5,-79.01 443.5,-56.58"/>
<polygon fill="purple" stroke="purple" points="447,-56.51 443.5,-46.51 440,-56.51 447,-56.51"/>
<text text-anchor="middle" x="483" y="-98.8" font-family="Helvetica,sans-Serif" font-size="14.00" fill="purple">50k:7586.11</text>
<text text-anchor="middle" x="483" y="-83.8" font-family="Helvetica,sans-Serif" font-size="14.00" fill="purple"> 20k:2110.79</text>
<text text-anchor="middle" x="483" y="-68.8" font-family="Helvetica,sans-Serif" font-size="14.00" fill="purple"> kont=1.0</text>
</g>
</g>
</svg>
