<?xml version="1.0" encoding="UTF-8" standalone="no"?>
<!DOCTYPE svg PUBLIC "-//W3C//DTD SVG 1.1//EN"
 "http://www.w3.org/Graphics/SVG/1.1/DTD/svg11.dtd">
<!-- Generated by graphviz version 2.50.0 (0)
 -->
<!-- Title: expanded Pages: 1 -->
<svg width="625pt" height="305pt"
 viewBox="0.00 0.00 624.99 305.00" xmlns="http://www.w3.org/2000/svg" xmlns:xlink="http://www.w3.org/1999/xlink">
<g id="graph0" class="graph" transform="scale(1 1) rotate(0) translate(4 301)">
<title>expanded</title>
<polygon fill="white" stroke="transparent" points="-4,4 -4,-301 620.99,-301 620.99,4 -4,4"/>
<!-- (cbn,t=3) -->
<g id="node1" class="node">
<title>(cbn,t=3)</title>
<ellipse fill="none" stroke="black" cx="264.15" cy="-18" rx="46.29" ry="18"/>
<text text-anchor="middle" x="264.15" y="-14.3" font-family="Helvetica,sans-Serif" font-size="14.00">(cbn,t=3)</text>
</g>
<!-- (yyk,t=1) -->
<g id="node2" class="node">
<title>(yyk,t=1)</title>
<ellipse fill="none" stroke="black" cx="526.15" cy="-192" rx="44.69" ry="18"/>
<text text-anchor="middle" x="526.15" y="-188.3" font-family="Helvetica,sans-Serif" font-size="14.00">(yyk,t=1)</text>
</g>
<!-- (yyk,t=2) -->
<g id="node18" class="node">
<title>(yyk,t=2)</title>
<ellipse fill="none" stroke="black" cx="480.15" cy="-105" rx="44.69" ry="18"/>
<text text-anchor="middle" x="480.15" y="-101.3" font-family="Helvetica,sans-Serif" font-size="14.00">(yyk,t=2)</text>
</g>
<!-- (yyk,t=1)&#45;&gt;(yyk,t=2) -->
<g id="edge1" class="edge">
<title>(yyk,t=1)&#45;&gt;(yyk,t=2)</title>
<path fill="none" stroke="purple" d="M519.57,-173.96C515.55,-164.11 510.05,-151.61 504.15,-141 502.28,-137.65 500.18,-134.21 498.02,-130.86"/>
<polygon fill="purple" stroke="purple" points="500.76,-128.67 492.28,-122.33 494.96,-132.58 500.76,-128.67"/>
<text text-anchor="middle" x="520.15" y="-144.8" font-family="Helvetica,sans-Serif" font-size="14.00" fill="purple">inv</text>
</g>
<!-- (bdg,t=0) -->
<g id="node3" class="node">
<title>(bdg,t=0)</title>
<ellipse fill="none" stroke="black" cx="96.15" cy="-279" rx="46.29" ry="18"/>
<text text-anchor="middle" x="96.15" y="-275.3" font-family="Helvetica,sans-Serif" font-size="14.00">(bdg,t=0)</text>
</g>
<!-- (bdg,t=1) -->
<g id="node12" class="node">
<title>(bdg,t=1)</title>
<ellipse fill="none" stroke="black" cx="91.15" cy="-192" rx="46.29" ry="18"/>
<text text-anchor="middle" x="91.15" y="-188.3" font-family="Helvetica,sans-Serif" font-size="14.00">(bdg,t=1)</text>
</g>
<!-- (bdg,t=0)&#45;&gt;(bdg,t=1) -->
<g id="edge3" class="edge">
<title>(bdg,t=0)&#45;&gt;(bdg,t=1)</title>
<path fill="none" stroke="purple" d="M95.13,-260.8C94.45,-249.16 93.53,-233.55 92.75,-220.24"/>
<polygon fill="purple" stroke="purple" points="96.24,-219.95 92.16,-210.18 89.25,-220.36 96.24,-219.95"/>
<text text-anchor="middle" x="103.15" y="-231.8" font-family="Helvetica,sans-Serif" font-size="14.00" fill="purple">inv</text>
</g>
<!-- (sby,t=1) -->
<g id="node17" class="node">
<title>(sby,t=1)</title>
<ellipse fill="none" stroke="black" cx="200.15" cy="-192" rx="44.69" ry="18"/>
<text text-anchor="middle" x="200.15" y="-188.3" font-family="Helvetica,sans-Serif" font-size="14.00">(sby,t=1)</text>
</g>
<!-- (bdg,t=0)&#45;&gt;(sby,t=1) -->
<g id="edge2" class="edge">
<title>(bdg,t=0)&#45;&gt;(sby,t=1)</title>
<path fill="none" stroke="red" d="M115.22,-262.41C131.49,-249.11 155.07,-229.84 173.26,-214.97"/>
<polygon fill="red" stroke="red" points="175.66,-217.53 181.19,-208.49 171.23,-212.11 175.66,-217.53"/>
<text text-anchor="middle" x="166.65" y="-231.8" font-family="Helvetica,sans-Serif" font-size="14.00" fill="red">krta</text>
</g>
<!-- (cbn,t=1) -->
<g id="node19" class="node">
<title>(cbn,t=1)</title>
<ellipse fill="none" stroke="black" cx="309.15" cy="-192" rx="46.29" ry="18"/>
<text text-anchor="middle" x="309.15" y="-188.3" font-family="Helvetica,sans-Serif" font-size="14.00">(cbn,t=1)</text>
</g>
<!-- (bdg,t=0)&#45;&gt;(cbn,t=1) -->
<g id="edge4" class="edge">
<title>(bdg,t=0)&#45;&gt;(cbn,t=1)</title>
<path fill="none" stroke="blue" d="M130.67,-266.98C137.44,-264.91 144.5,-262.83 151.15,-261 183.77,-252 193.81,-255.8 225.15,-243 244.06,-235.28 263.76,-223.76 279.32,-213.73"/>
<polygon fill="blue" stroke="blue" points="281.54,-216.45 287.97,-208.03 277.69,-210.61 281.54,-216.45"/>
<text text-anchor="middle" x="264.65" y="-231.8" font-family="Helvetica,sans-Serif" font-size="14.00" fill="blue">truk</text>
</g>
<!-- (jkt,t=3) -->
<g id="node4" class="node">
<title>(jkt,t=3)</title>
<ellipse fill="none" stroke="black" cx="371.15" cy="-18" rx="40.09" ry="18"/>
<text text-anchor="middle" x="371.15" y="-14.3" font-family="Helvetica,sans-Serif" font-size="14.00">(jkt,t=3)</text>
</g>
<!-- (bdg,t=2) -->
<g id="node5" class="node">
<title>(bdg,t=2)</title>
<ellipse fill="none" stroke="black" cx="46.15" cy="-105" rx="46.29" ry="18"/>
<text text-anchor="middle" x="46.15" y="-101.3" font-family="Helvetica,sans-Serif" font-size="14.00">(bdg,t=2)</text>
</g>
<!-- (bdg,t=3) -->
<g id="node8" class="node">
<title>(bdg,t=3)</title>
<ellipse fill="none" stroke="black" cx="46.15" cy="-18" rx="46.29" ry="18"/>
<text text-anchor="middle" x="46.15" y="-14.3" font-family="Helvetica,sans-Serif" font-size="14.00">(bdg,t=3)</text>
</g>
<!-- (bdg,t=2)&#45;&gt;(bdg,t=3) -->
<g id="edge5" class="edge">
<title>(bdg,t=2)&#45;&gt;(bdg,t=3)</title>
<path fill="none" stroke="purple" d="M46.15,-86.8C46.15,-75.16 46.15,-59.55 46.15,-46.24"/>
<polygon fill="purple" stroke="purple" points="49.65,-46.18 46.15,-36.18 42.65,-46.18 49.65,-46.18"/>
<text text-anchor="middle" x="55.15" y="-57.8" font-family="Helvetica,sans-Serif" font-size="14.00" fill="purple">inv</text>
</g>
<!-- (yyk,t=3) -->
<g id="node6" class="node">
<title>(yyk,t=3)</title>
<ellipse fill="none" stroke="black" cx="480.15" cy="-18" rx="44.69" ry="18"/>
<text text-anchor="middle" x="480.15" y="-14.3" font-family="Helvetica,sans-Serif" font-size="14.00">(yyk,t=3)</text>
</g>
<!-- (sby,t=3) -->
<g id="node7" class="node">
<title>(sby,t=3)</title>
<ellipse fill="none" stroke="black" cx="155.15" cy="-18" rx="44.69" ry="18"/>
<text text-anchor="middle" x="155.15" y="-14.3" font-family="Helvetica,sans-Serif" font-size="14.00">(sby,t=3)</text>
</g>
<!-- (jkt,t=0) -->
<g id="node9" class="node">
<title>(jkt,t=0)</title>
<ellipse fill="none" stroke="black" cx="454.15" cy="-279" rx="40.09" ry="18"/>
<text text-anchor="middle" x="454.15" y="-275.3" font-family="Helvetica,sans-Serif" font-size="14.00">(jkt,t=0)</text>
</g>
<!-- (jkt,t=0)&#45;&gt;(yyk,t=1) -->
<g id="edge7" class="edge">
<title>(jkt,t=0)&#45;&gt;(yyk,t=1)</title>
<path fill="none" stroke="red" d="M461.09,-261.17C465.82,-250.92 472.73,-237.94 481.15,-228 485.34,-223.04 490.34,-218.33 495.46,-214.05"/>
<polygon fill="red" stroke="red" points="497.8,-216.67 503.5,-207.73 493.48,-211.16 497.8,-216.67"/>
<text text-anchor="middle" x="492.65" y="-231.8" font-family="Helvetica,sans-Serif" font-size="14.00" fill="red">krta</text>
</g>
<!-- (jkt,t=0)&#45;&gt;(yyk,t=1) -->
<g id="edge8" class="edge">
<title>(jkt,t=0)&#45;&gt;(yyk,t=1)</title>
<path fill="none" stroke="blue" d="M478.7,-264.64C487.59,-258.89 497.15,-251.52 504.15,-243 509.79,-236.12 514.26,-227.57 517.64,-219.49"/>
<polygon fill="blue" stroke="blue" points="520.96,-220.61 521.25,-210.02 514.42,-218.12 520.96,-220.61"/>
<text text-anchor="middle" x="523.65" y="-231.8" font-family="Helvetica,sans-Serif" font-size="14.00" fill="blue">truk</text>
</g>
<!-- (jkt,t=1) -->
<g id="node13" class="node">
<title>(jkt,t=1)</title>
<ellipse fill="none" stroke="black" cx="417.15" cy="-192" rx="40.09" ry="18"/>
<text text-anchor="middle" x="417.15" y="-188.3" font-family="Helvetica,sans-Serif" font-size="14.00">(jkt,t=1)</text>
</g>
<!-- (jkt,t=0)&#45;&gt;(jkt,t=1) -->
<g id="edge6" class="edge">
<title>(jkt,t=0)&#45;&gt;(jkt,t=1)</title>
<path fill="none" stroke="purple" d="M446.84,-261.21C441.62,-249.22 434.49,-232.85 428.53,-219.16"/>
<polygon fill="purple" stroke="purple" points="431.64,-217.53 424.44,-209.76 425.22,-220.32 431.64,-217.53"/>
<text text-anchor="middle" x="446.15" y="-231.8" font-family="Helvetica,sans-Serif" font-size="14.00" fill="purple">inv</text>
</g>
<!-- (jkt,t=0)&#45;&gt;(cbn,t=1) -->
<g id="edge9" class="edge">
<title>(jkt,t=0)&#45;&gt;(cbn,t=1)</title>
<path fill="none" stroke="blue" d="M416.47,-272.3C393.82,-267.42 365.38,-258.61 344.15,-243 335.53,-236.66 328.27,-227.55 322.63,-218.84"/>
<polygon fill="blue" stroke="blue" points="325.5,-216.81 317.35,-210.03 319.49,-220.41 325.5,-216.81"/>
<text text-anchor="middle" x="355.65" y="-231.8" font-family="Helvetica,sans-Serif" font-size="14.00" fill="blue">truk</text>
</g>
<!-- (sby,t=0) -->
<g id="node10" class="node">
<title>(sby,t=0)</title>
<ellipse fill="none" stroke="black" cx="205.15" cy="-279" rx="44.69" ry="18"/>
<text text-anchor="middle" x="205.15" y="-275.3" font-family="Helvetica,sans-Serif" font-size="14.00">(sby,t=0)</text>
</g>
<!-- (sby,t=0)&#45;&gt;(sby,t=1) -->
<g id="edge10" class="edge">
<title>(sby,t=0)&#45;&gt;(sby,t=1)</title>
<path fill="none" stroke="purple" d="M204.13,-260.8C203.45,-249.16 202.53,-233.55 201.75,-220.24"/>
<polygon fill="purple" stroke="purple" points="205.24,-219.95 201.16,-210.18 198.25,-220.36 205.24,-219.95"/>
<text text-anchor="middle" x="212.15" y="-231.8" font-family="Helvetica,sans-Serif" font-size="14.00" fill="purple">inv</text>
</g>
<!-- (cbn,t=2) -->
<g id="node11" class="node">
<title>(cbn,t=2)</title>
<ellipse fill="none" stroke="black" cx="264.15" cy="-105" rx="46.29" ry="18"/>
<text text-anchor="middle" x="264.15" y="-101.3" font-family="Helvetica,sans-Serif" font-size="14.00">(cbn,t=2)</text>
</g>
<!-- (cbn,t=2)&#45;&gt;(cbn,t=3) -->
<g id="edge11" class="edge">
<title>(cbn,t=2)&#45;&gt;(cbn,t=3)</title>
<path fill="none" stroke="purple" d="M264.15,-86.8C264.15,-75.16 264.15,-59.55 264.15,-46.24"/>
<polygon fill="purple" stroke="purple" points="267.65,-46.18 264.15,-36.18 260.65,-46.18 267.65,-46.18"/>
<text text-anchor="middle" x="273.15" y="-57.8" font-family="Helvetica,sans-Serif" font-size="14.00" fill="purple">inv</text>
</g>
<!-- (bdg,t=1)&#45;&gt;(bdg,t=2) -->
<g id="edge12" class="edge">
<title>(bdg,t=1)&#45;&gt;(bdg,t=2)</title>
<path fill="none" stroke="purple" d="M79.33,-174.26C75.55,-168.59 71.48,-162.13 68.15,-156 64.07,-148.5 60.14,-140.1 56.76,-132.35"/>
<polygon fill="purple" stroke="purple" points="59.92,-130.84 52.8,-123 53.48,-133.57 59.92,-130.84"/>
<text text-anchor="middle" x="77.15" y="-144.8" font-family="Helvetica,sans-Serif" font-size="14.00" fill="purple">inv</text>
</g>
<!-- (bdg,t=1)&#45;&gt;(cbn,t=2) -->
<g id="edge14" class="edge">
<title>(bdg,t=1)&#45;&gt;(cbn,t=2)</title>
<path fill="none" stroke="blue" d="M125.44,-179.7C143.03,-173.47 164.6,-165.15 183.15,-156 200.45,-147.46 218.82,-136.31 233.69,-126.71"/>
<polygon fill="blue" stroke="blue" points="236,-129.37 242.45,-120.96 232.16,-123.52 236,-129.37"/>
<text text-anchor="middle" x="219.65" y="-144.8" font-family="Helvetica,sans-Serif" font-size="14.00" fill="blue">truk</text>
</g>
<!-- (sby,t=2) -->
<g id="node15" class="node">
<title>(sby,t=2)</title>
<ellipse fill="none" stroke="black" cx="155.15" cy="-105" rx="44.69" ry="18"/>
<text text-anchor="middle" x="155.15" y="-101.3" font-family="Helvetica,sans-Serif" font-size="14.00">(sby,t=2)</text>
</g>
<!-- (bdg,t=1)&#45;&gt;(sby,t=2) -->
<g id="edge13" class="edge">
<title>(bdg,t=1)&#45;&gt;(sby,t=2)</title>
<path fill="none" stroke="red" d="M103.49,-174.61C112.87,-162.15 125.94,-144.79 136.58,-130.65"/>
<polygon fill="red" stroke="red" points="139.62,-132.43 142.84,-122.34 134.03,-128.22 139.62,-132.43"/>
<text text-anchor="middle" x="138.65" y="-144.8" font-family="Helvetica,sans-Serif" font-size="14.00" fill="red">krta</text>
</g>
<!-- (jkt,t=1)&#45;&gt;(cbn,t=2) -->
<g id="edge15" class="edge">
<title>(jkt,t=1)&#45;&gt;(cbn,t=2)</title>
<path fill="none" stroke="blue" d="M385.37,-180.81C353.81,-170.67 309.99,-156.55 309.15,-156 298.8,-149.28 289.32,-139.59 281.77,-130.53"/>
<polygon fill="blue" stroke="blue" points="284.35,-128.15 275.4,-122.48 278.86,-132.5 284.35,-128.15"/>
<text text-anchor="middle" x="320.65" y="-144.8" font-family="Helvetica,sans-Serif" font-size="14.00" fill="blue">truk</text>
</g>
<!-- (jkt,t=1)&#45;&gt;(yyk,t=2) -->
<g id="edge16" class="edge">
<title>(jkt,t=1)&#45;&gt;(yyk,t=2)</title>
<path fill="none" stroke="red" d="M438.04,-176.22C445.08,-170.49 452.56,-163.51 458.15,-156 463.38,-148.97 467.7,-140.49 471.08,-132.54"/>
<polygon fill="red" stroke="red" points="474.34,-133.81 474.75,-123.22 467.83,-131.25 474.34,-133.81"/>
<text text-anchor="middle" x="477.65" y="-144.8" font-family="Helvetica,sans-Serif" font-size="14.00" fill="red">krta</text>
</g>
<!-- (jkt,t=1)&#45;&gt;(yyk,t=2) -->
<g id="edge17" class="edge">
<title>(jkt,t=1)&#45;&gt;(yyk,t=2)</title>
<path fill="none" stroke="blue" d="M419.09,-173.56C420.91,-163.34 424.42,-150.59 431.15,-141 435.14,-135.31 440.37,-130.21 445.91,-125.78"/>
<polygon fill="blue" stroke="blue" points="448.14,-128.5 454.17,-119.79 444.02,-122.83 448.14,-128.5"/>
<text text-anchor="middle" x="442.65" y="-144.8" font-family="Helvetica,sans-Serif" font-size="14.00" fill="blue">truk</text>
</g>
<!-- (jkt,t=2) -->
<g id="node20" class="node">
<title>(jkt,t=2)</title>
<ellipse fill="none" stroke="black" cx="371.15" cy="-105" rx="40.09" ry="18"/>
<text text-anchor="middle" x="371.15" y="-101.3" font-family="Helvetica,sans-Serif" font-size="14.00">(jkt,t=2)</text>
</g>
<!-- (jkt,t=1)&#45;&gt;(jkt,t=2) -->
<g id="edge18" class="edge">
<title>(jkt,t=1)&#45;&gt;(jkt,t=2)</title>
<path fill="none" stroke="purple" d="M405.63,-174.58C401.78,-168.82 397.6,-162.23 394.15,-156 389.98,-148.48 385.9,-140.07 382.36,-132.32"/>
<polygon fill="purple" stroke="purple" points="385.46,-130.69 378.2,-122.98 379.07,-133.54 385.46,-130.69"/>
<text text-anchor="middle" x="403.15" y="-144.8" font-family="Helvetica,sans-Serif" font-size="14.00" fill="purple">inv</text>
</g>
<!-- (cbn,t=0) -->
<g id="node14" class="node">
<title>(cbn,t=0)</title>
<ellipse fill="none" stroke="black" cx="321.15" cy="-279" rx="46.29" ry="18"/>
<text text-anchor="middle" x="321.15" y="-275.3" font-family="Helvetica,sans-Serif" font-size="14.00">(cbn,t=0)</text>
</g>
<!-- (cbn,t=0)&#45;&gt;(jkt,t=1) -->
<g id="edge19" class="edge">
<title>(cbn,t=0)&#45;&gt;(jkt,t=1)</title>
<path fill="none" stroke="blue" d="M344.32,-263.31C353.05,-257.39 362.85,-250.26 371.15,-243 380.25,-235.03 389.45,-225.42 397.2,-216.76"/>
<polygon fill="blue" stroke="blue" points="399.91,-218.98 403.87,-209.15 394.64,-214.37 399.91,-218.98"/>
<text text-anchor="middle" x="396.65" y="-231.8" font-family="Helvetica,sans-Serif" font-size="14.00" fill="blue">truk</text>
</g>
<!-- (cbn,t=0)&#45;&gt;(cbn,t=1) -->
<g id="edge20" class="edge">
<title>(cbn,t=0)&#45;&gt;(cbn,t=1)</title>
<path fill="none" stroke="purple" d="M312.82,-260.95C310.51,-255.36 308.31,-249.04 307.15,-243 305.74,-235.69 305.5,-227.68 305.8,-220.25"/>
<polygon fill="purple" stroke="purple" points="309.29,-220.5 306.52,-210.27 302.31,-219.99 309.29,-220.5"/>
<text text-anchor="middle" x="316.15" y="-231.8" font-family="Helvetica,sans-Serif" font-size="14.00" fill="purple">inv</text>
</g>
<!-- (sby,t=2)&#45;&gt;(sby,t=3) -->
<g id="edge21" class="edge">
<title>(sby,t=2)&#45;&gt;(sby,t=3)</title>
<path fill="none" stroke="purple" d="M155.15,-86.8C155.15,-75.16 155.15,-59.55 155.15,-46.24"/>
<polygon fill="purple" stroke="purple" points="158.65,-46.18 155.15,-36.18 151.65,-46.18 158.65,-46.18"/>
<text text-anchor="middle" x="164.15" y="-57.8" font-family="Helvetica,sans-Serif" font-size="14.00" fill="purple">inv</text>
</g>
<!-- (yyk,t=0) -->
<g id="node16" class="node">
<title>(yyk,t=0)</title>
<ellipse fill="none" stroke="black" cx="572.15" cy="-279" rx="44.69" ry="18"/>
<text text-anchor="middle" x="572.15" y="-275.3" font-family="Helvetica,sans-Serif" font-size="14.00">(yyk,t=0)</text>
</g>
<!-- (yyk,t=0)&#45;&gt;(yyk,t=1) -->
<g id="edge22" class="edge">
<title>(yyk,t=0)&#45;&gt;(yyk,t=1)</title>
<path fill="none" stroke="purple" d="M565.57,-260.96C561.55,-251.11 556.05,-238.61 550.15,-228 548.28,-224.65 546.18,-221.21 544.02,-217.86"/>
<polygon fill="purple" stroke="purple" points="546.76,-215.67 538.28,-209.33 540.96,-219.58 546.76,-215.67"/>
<text text-anchor="middle" x="566.15" y="-231.8" font-family="Helvetica,sans-Serif" font-size="14.00" fill="purple">inv</text>
</g>
<!-- (sby,t=1)&#45;&gt;(sby,t=2) -->
<g id="edge23" class="edge">
<title>(sby,t=1)&#45;&gt;(sby,t=2)</title>
<path fill="none" stroke="purple" d="M180.78,-175.6C174.93,-170.01 169.04,-163.27 165.15,-156 161.41,-149.02 159.07,-140.83 157.6,-133.11"/>
<polygon fill="purple" stroke="purple" points="161.03,-132.41 156.08,-123.04 154.11,-133.45 161.03,-132.41"/>
<text text-anchor="middle" x="174.15" y="-144.8" font-family="Helvetica,sans-Serif" font-size="14.00" fill="purple">inv</text>
</g>
<!-- (yyk,t=2)&#45;&gt;(yyk,t=3) -->
<g id="edge24" class="edge">
<title>(yyk,t=2)&#45;&gt;(yyk,t=3)</title>
<path fill="none" stroke="purple" d="M480.15,-86.8C480.15,-75.16 480.15,-59.55 480.15,-46.24"/>
<polygon fill="purple" stroke="purple" points="483.65,-46.18 480.15,-36.18 476.65,-46.18 483.65,-46.18"/>
<text text-anchor="middle" x="489.15" y="-57.8" font-family="Helvetica,sans-Serif" font-size="14.00" fill="purple">inv</text>
</g>
<!-- (cbn,t=1)&#45;&gt;(cbn,t=2) -->
<g id="edge25" class="edge">
<title>(cbn,t=1)&#45;&gt;(cbn,t=2)</title>
<path fill="none" stroke="purple" d="M281.59,-177.42C273.51,-171.95 265.63,-164.83 261.15,-156 257.62,-149.07 256.93,-140.89 257.51,-133.17"/>
<polygon fill="purple" stroke="purple" points="261,-133.49 258.96,-123.09 254.07,-132.49 261,-133.49"/>
<text text-anchor="middle" x="270.15" y="-144.8" font-family="Helvetica,sans-Serif" font-size="14.00" fill="purple">inv</text>
</g>
<!-- (cbn,t=1)&#45;&gt;(jkt,t=2) -->
<g id="edge26" class="edge">
<title>(cbn,t=1)&#45;&gt;(jkt,t=2)</title>
<path fill="none" stroke="blue" d="M321.1,-174.61C330.19,-162.15 342.85,-144.79 353.16,-130.65"/>
<polygon fill="blue" stroke="blue" points="356.16,-132.48 359.23,-122.34 350.51,-128.36 356.16,-132.48"/>
<text text-anchor="middle" x="354.65" y="-144.8" font-family="Helvetica,sans-Serif" font-size="14.00" fill="blue">truk</text>
</g>
<!-- (jkt,t=2)&#45;&gt;(jkt,t=3) -->
<g id="edge27" class="edge">
<title>(jkt,t=2)&#45;&gt;(jkt,t=3)</title>
<path fill="none" stroke="purple" d="M371.15,-86.8C371.15,-75.16 371.15,-59.55 371.15,-46.24"/>
<polygon fill="purple" stroke="purple" points="374.65,-46.18 371.15,-36.18 367.65,-46.18 374.65,-46.18"/>
<text text-anchor="middle" x="380.15" y="-57.8" font-family="Helvetica,sans-Serif" font-size="14.00" fill="purple">inv</text>
</g>
</g>
</svg>
