<?xml version="1.0" encoding="UTF-8" standalone="no"?>
<!DOCTYPE svg PUBLIC "-//W3C//DTD SVG 1.1//EN"
 "http://www.w3.org/Graphics/SVG/1.1/DTD/svg11.dtd">
<!-- Generated by graphviz version 2.50.0 (0)
 -->
<!-- Title: complete Pages: 1 -->
<svg width="897pt" height="469pt"
 viewBox="0.00 0.00 897.00 469.00" xmlns="http://www.w3.org/2000/svg" xmlns:xlink="http://www.w3.org/1999/xlink">
<g id="graph0" class="graph" transform="scale(1 1) rotate(0) translate(4 465)">
<title>complete</title>
<polygon fill="white" stroke="transparent" points="-4,4 -4,-465 893,-465 893,4 -4,4"/>
<!-- (yyk,0) -->
<g id="node1" class="node">
<title>(yyk,0)</title>
<polygon fill="none" stroke="black" points="2,-414.5 2,-460.5 155,-460.5 155,-414.5 2,-414.5"/>
<text text-anchor="middle" x="30.5" y="-433.8" font-family="Helvetica,sans-Serif" font-size="14.00">(yyk,0)</text>
<polyline fill="none" stroke="black" points="59,-414.5 59,-460.5 "/>
<text text-anchor="middle" x="78" y="-445.3" font-family="Helvetica,sans-Serif" font-size="14.00">50k</text>
<polyline fill="none" stroke="black" points="59,-437.5 97,-437.5 "/>
<text text-anchor="middle" x="78" y="-422.3" font-family="Helvetica,sans-Serif" font-size="14.00">20k</text>
<polyline fill="none" stroke="black" points="97,-414.5 97,-460.5 "/>
<text text-anchor="middle" x="126" y="-445.3" font-family="Helvetica,sans-Serif" font-size="14.00">100.44</text>
<polyline fill="none" stroke="black" points="97,-437.5 155,-437.5 "/>
<text text-anchor="middle" x="126" y="-422.3" font-family="Helvetica,sans-Serif" font-size="14.00">407.32</text>
</g>
<!-- (yyk,1) -->
<g id="node12" class="node">
<title>(yyk,1)</title>
<polygon fill="none" stroke="black" points="3.5,-271.5 3.5,-317.5 153.5,-317.5 153.5,-271.5 3.5,-271.5"/>
<text text-anchor="middle" x="32" y="-290.8" font-family="Helvetica,sans-Serif" font-size="14.00">(yyk,1)</text>
<polyline fill="none" stroke="black" points="60.5,-271.5 60.5,-317.5 "/>
<text text-anchor="middle" x="79.5" y="-302.3" font-family="Helvetica,sans-Serif" font-size="14.00">50k</text>
<polyline fill="none" stroke="black" points="60.5,-294.5 98.5,-294.5 "/>
<text text-anchor="middle" x="79.5" y="-279.3" font-family="Helvetica,sans-Serif" font-size="14.00">20k</text>
<polyline fill="none" stroke="black" points="98.5,-271.5 98.5,-317.5 "/>
<text text-anchor="middle" x="126" y="-302.3" font-family="Helvetica,sans-Serif" font-size="14.00">&#45;83.86</text>
<polyline fill="none" stroke="black" points="98.5,-294.5 153.5,-294.5 "/>
<text text-anchor="middle" x="126" y="-279.3" font-family="Helvetica,sans-Serif" font-size="14.00">30.27</text>
</g>
<!-- (yyk,0)&#45;&gt;(yyk,1) -->
<g id="edge1" class="edge">
<title>(yyk,0)&#45;&gt;(yyk,1)</title>
<path fill="none" stroke="purple" d="M78.5,-414.47C78.5,-391.32 78.5,-354.67 78.5,-328.16"/>
<polygon fill="purple" stroke="purple" points="82,-327.84 78.5,-317.84 75,-327.84 82,-327.84"/>
<text text-anchor="middle" x="114" y="-377.3" font-family="Helvetica,sans-Serif" font-size="14.00" fill="purple">50k:100.44</text>
<text text-anchor="middle" x="114" y="-362.3" font-family="Helvetica,sans-Serif" font-size="14.00" fill="purple"> 20k:407.32</text>
<text text-anchor="middle" x="114" y="-347.3" font-family="Helvetica,sans-Serif" font-size="14.00" fill="purple"> kont=1.0</text>
</g>
<!-- (yyk,3) -->
<g id="node2" class="node">
<title>(yyk,3)</title>
<polygon fill="none" stroke="black" points="0,-0.5 0,-46.5 157,-46.5 157,-0.5 0,-0.5"/>
<text text-anchor="middle" x="28.5" y="-19.8" font-family="Helvetica,sans-Serif" font-size="14.00">(yyk,3)</text>
<polyline fill="none" stroke="black" points="57,-0.5 57,-46.5 "/>
<text text-anchor="middle" x="76" y="-31.3" font-family="Helvetica,sans-Serif" font-size="14.00">50k</text>
<polyline fill="none" stroke="black" points="57,-23.5 95,-23.5 "/>
<text text-anchor="middle" x="76" y="-8.3" font-family="Helvetica,sans-Serif" font-size="14.00">20k</text>
<polyline fill="none" stroke="black" points="95,-0.5 95,-46.5 "/>
<text text-anchor="middle" x="126" y="-31.3" font-family="Helvetica,sans-Serif" font-size="14.00">278.35</text>
<polyline fill="none" stroke="black" points="95,-23.5 157,-23.5 "/>
<text text-anchor="middle" x="126" y="-8.3" font-family="Helvetica,sans-Serif" font-size="14.00">&#45;146.91</text>
</g>
<!-- (cbn,2) -->
<g id="node3" class="node">
<title>(cbn,2)</title>
<polygon fill="none" stroke="black" points="177,-128.5 177,-174.5 332,-174.5 332,-128.5 177,-128.5"/>
<text text-anchor="middle" x="206.5" y="-147.8" font-family="Helvetica,sans-Serif" font-size="14.00">(cbn,2)</text>
<polyline fill="none" stroke="black" points="236,-128.5 236,-174.5 "/>
<text text-anchor="middle" x="255" y="-159.3" font-family="Helvetica,sans-Serif" font-size="14.00">50k</text>
<polyline fill="none" stroke="black" points="236,-151.5 274,-151.5 "/>
<text text-anchor="middle" x="255" y="-136.3" font-family="Helvetica,sans-Serif" font-size="14.00">20k</text>
<polyline fill="none" stroke="black" points="274,-128.5 274,-174.5 "/>
<text text-anchor="middle" x="303" y="-159.3" font-family="Helvetica,sans-Serif" font-size="14.00">126.22</text>
<polyline fill="none" stroke="black" points="274,-151.5 332,-151.5 "/>
<text text-anchor="middle" x="303" y="-136.3" font-family="Helvetica,sans-Serif" font-size="14.00">322.59</text>
</g>
<!-- (cbn,3) -->
<g id="node7" class="node">
<title>(cbn,3)</title>
<polygon fill="none" stroke="black" points="175,-0.5 175,-46.5 334,-46.5 334,-0.5 175,-0.5"/>
<text text-anchor="middle" x="204.5" y="-19.8" font-family="Helvetica,sans-Serif" font-size="14.00">(cbn,3)</text>
<polyline fill="none" stroke="black" points="234,-0.5 234,-46.5 "/>
<text text-anchor="middle" x="253" y="-31.3" font-family="Helvetica,sans-Serif" font-size="14.00">50k</text>
<polyline fill="none" stroke="black" points="234,-23.5 272,-23.5 "/>
<text text-anchor="middle" x="253" y="-8.3" font-family="Helvetica,sans-Serif" font-size="14.00">20k</text>
<polyline fill="none" stroke="black" points="272,-0.5 272,-46.5 "/>
<text text-anchor="middle" x="303" y="-31.3" font-family="Helvetica,sans-Serif" font-size="14.00">&#45;40.6</text>
<polyline fill="none" stroke="black" points="272,-23.5 334,-23.5 "/>
<text text-anchor="middle" x="303" y="-8.3" font-family="Helvetica,sans-Serif" font-size="14.00">&#45;257.57</text>
</g>
<!-- (cbn,2)&#45;&gt;(cbn,3) -->
<g id="edge2" class="edge">
<title>(cbn,2)&#45;&gt;(cbn,3)</title>
<path fill="none" stroke="purple" d="M254.5,-128.26C254.5,-108.38 254.5,-79.01 254.5,-56.58"/>
<polygon fill="purple" stroke="purple" points="258,-56.51 254.5,-46.51 251,-56.51 258,-56.51"/>
<text text-anchor="middle" x="290" y="-98.8" font-family="Helvetica,sans-Serif" font-size="14.00" fill="purple">50k:0.0</text>
<text text-anchor="middle" x="290" y="-83.8" font-family="Helvetica,sans-Serif" font-size="14.00" fill="purple"> 20k:472.25</text>
<text text-anchor="middle" x="290" y="-68.8" font-family="Helvetica,sans-Serif" font-size="14.00" fill="purple"> kont=1.0</text>
</g>
<!-- (cbn,1) -->
<g id="node4" class="node">
<title>(cbn,1)</title>
<polygon fill="none" stroke="black" points="178.5,-271.5 178.5,-317.5 330.5,-317.5 330.5,-271.5 178.5,-271.5"/>
<text text-anchor="middle" x="208" y="-290.8" font-family="Helvetica,sans-Serif" font-size="14.00">(cbn,1)</text>
<polyline fill="none" stroke="black" points="237.5,-271.5 237.5,-317.5 "/>
<text text-anchor="middle" x="256.5" y="-302.3" font-family="Helvetica,sans-Serif" font-size="14.00">50k</text>
<polyline fill="none" stroke="black" points="237.5,-294.5 275.5,-294.5 "/>
<text text-anchor="middle" x="256.5" y="-279.3" font-family="Helvetica,sans-Serif" font-size="14.00">20k</text>
<polyline fill="none" stroke="black" points="275.5,-271.5 275.5,-317.5 "/>
<text text-anchor="middle" x="303" y="-302.3" font-family="Helvetica,sans-Serif" font-size="14.00">&#45;87.76</text>
<polyline fill="none" stroke="black" points="275.5,-294.5 330.5,-294.5 "/>
<text text-anchor="middle" x="303" y="-279.3" font-family="Helvetica,sans-Serif" font-size="14.00">126.7</text>
</g>
<!-- (cbn,1)&#45;&gt;(cbn,2) -->
<g id="edge3" class="edge">
<title>(cbn,1)&#45;&gt;(cbn,2)</title>
<path fill="none" stroke="purple" d="M254.5,-271.47C254.5,-248.32 254.5,-211.67 254.5,-185.16"/>
<polygon fill="purple" stroke="purple" points="258,-184.84 254.5,-174.84 251,-184.84 258,-184.84"/>
<text text-anchor="middle" x="290" y="-234.3" font-family="Helvetica,sans-Serif" font-size="14.00" fill="purple">50k:126.22</text>
<text text-anchor="middle" x="290" y="-219.3" font-family="Helvetica,sans-Serif" font-size="14.00" fill="purple"> 20k:794.84</text>
<text text-anchor="middle" x="290" y="-204.3" font-family="Helvetica,sans-Serif" font-size="14.00" fill="purple"> kont=1.0</text>
</g>
<!-- (jkt,3) -->
<g id="node5" class="node">
<title>(jkt,3)</title>
<polygon fill="none" stroke="black" points="364.5,-0.5 364.5,-46.5 514.5,-46.5 514.5,-0.5 364.5,-0.5"/>
<text text-anchor="middle" x="389.5" y="-19.8" font-family="Helvetica,sans-Serif" font-size="14.00">(jkt,3)</text>
<polyline fill="none" stroke="black" points="414.5,-0.5 414.5,-46.5 "/>
<text text-anchor="middle" x="433.5" y="-31.3" font-family="Helvetica,sans-Serif" font-size="14.00">50k</text>
<polyline fill="none" stroke="black" points="414.5,-23.5 452.5,-23.5 "/>
<text text-anchor="middle" x="433.5" y="-8.3" font-family="Helvetica,sans-Serif" font-size="14.00">20k</text>
<polyline fill="none" stroke="black" points="452.5,-0.5 452.5,-46.5 "/>
<text text-anchor="middle" x="483.5" y="-31.3" font-family="Helvetica,sans-Serif" font-size="14.00">&#45;104.49</text>
<polyline fill="none" stroke="black" points="452.5,-23.5 514.5,-23.5 "/>
<text text-anchor="middle" x="483.5" y="-8.3" font-family="Helvetica,sans-Serif" font-size="14.00">2.26</text>
</g>
<!-- (bdg,3) -->
<g id="node6" class="node">
<title>(bdg,3)</title>
<polygon fill="none" stroke="black" points="736,-0.5 736,-46.5 883,-46.5 883,-0.5 736,-0.5"/>
<text text-anchor="middle" x="765.5" y="-19.8" font-family="Helvetica,sans-Serif" font-size="14.00">(bdg,3)</text>
<polyline fill="none" stroke="black" points="795,-0.5 795,-46.5 "/>
<text text-anchor="middle" x="814" y="-31.3" font-family="Helvetica,sans-Serif" font-size="14.00">50k</text>
<polyline fill="none" stroke="black" points="795,-23.5 833,-23.5 "/>
<text text-anchor="middle" x="814" y="-8.3" font-family="Helvetica,sans-Serif" font-size="14.00">20k</text>
<polyline fill="none" stroke="black" points="833,-0.5 833,-46.5 "/>
<text text-anchor="middle" x="858" y="-31.3" font-family="Helvetica,sans-Serif" font-size="14.00">&#45;86.0</text>
<polyline fill="none" stroke="black" points="833,-23.5 883,-23.5 "/>
<text text-anchor="middle" x="858" y="-8.3" font-family="Helvetica,sans-Serif" font-size="14.00">28.33</text>
</g>
<!-- (cbn,0) -->
<g id="node8" class="node">
<title>(cbn,0)</title>
<polygon fill="none" stroke="black" points="183.5,-414.5 183.5,-460.5 345.5,-460.5 345.5,-414.5 183.5,-414.5"/>
<text text-anchor="middle" x="213" y="-433.8" font-family="Helvetica,sans-Serif" font-size="14.00">(cbn,0)</text>
<polyline fill="none" stroke="black" points="242.5,-414.5 242.5,-460.5 "/>
<text text-anchor="middle" x="261.5" y="-445.3" font-family="Helvetica,sans-Serif" font-size="14.00">50k</text>
<polyline fill="none" stroke="black" points="242.5,-437.5 280.5,-437.5 "/>
<text text-anchor="middle" x="261.5" y="-422.3" font-family="Helvetica,sans-Serif" font-size="14.00">20k</text>
<polyline fill="none" stroke="black" points="280.5,-414.5 280.5,-460.5 "/>
<text text-anchor="middle" x="313" y="-445.3" font-family="Helvetica,sans-Serif" font-size="14.00">7155.87</text>
<polyline fill="none" stroke="black" points="280.5,-437.5 345.5,-437.5 "/>
<text text-anchor="middle" x="313" y="-422.3" font-family="Helvetica,sans-Serif" font-size="14.00">2553.36</text>
</g>
<!-- (cbn,0)&#45;&gt;(cbn,1) -->
<g id="edge5" class="edge">
<title>(cbn,0)&#45;&gt;(cbn,1)</title>
<path fill="none" stroke="purple" d="M258.71,-414.36C257.4,-408.44 256.19,-402.01 255.5,-396 252.89,-373.22 252.69,-347.35 253.12,-327.57"/>
<polygon fill="purple" stroke="purple" points="256.62,-327.63 253.4,-317.54 249.62,-327.44 256.62,-327.63"/>
<text text-anchor="middle" x="291" y="-377.3" font-family="Helvetica,sans-Serif" font-size="14.00" fill="purple">50k:38.46</text>
<text text-anchor="middle" x="291" y="-362.3" font-family="Helvetica,sans-Serif" font-size="14.00" fill="purple"> 20k:921.54</text>
<text text-anchor="middle" x="291" y="-347.3" font-family="Helvetica,sans-Serif" font-size="14.00" fill="purple"> kont=1.0</text>
</g>
<!-- (jkt,1) -->
<g id="node13" class="node">
<title>(jkt,1)</title>
<polygon fill="none" stroke="black" points="366.5,-271.5 366.5,-317.5 512.5,-317.5 512.5,-271.5 366.5,-271.5"/>
<text text-anchor="middle" x="391.5" y="-290.8" font-family="Helvetica,sans-Serif" font-size="14.00">(jkt,1)</text>
<polyline fill="none" stroke="black" points="416.5,-271.5 416.5,-317.5 "/>
<text text-anchor="middle" x="435.5" y="-302.3" font-family="Helvetica,sans-Serif" font-size="14.00">50k</text>
<polyline fill="none" stroke="black" points="416.5,-294.5 454.5,-294.5 "/>
<text text-anchor="middle" x="435.5" y="-279.3" font-family="Helvetica,sans-Serif" font-size="14.00">20k</text>
<polyline fill="none" stroke="black" points="454.5,-271.5 454.5,-317.5 "/>
<text text-anchor="middle" x="483.5" y="-302.3" font-family="Helvetica,sans-Serif" font-size="14.00">37.74</text>
<polyline fill="none" stroke="black" points="454.5,-294.5 512.5,-294.5 "/>
<text text-anchor="middle" x="483.5" y="-279.3" font-family="Helvetica,sans-Serif" font-size="14.00">387.75</text>
</g>
<!-- (cbn,0)&#45;&gt;(jkt,1) -->
<g id="edge4" class="edge">
<title>(cbn,0)&#45;&gt;(jkt,1)</title>
<path fill="none" stroke="green" d="M304.4,-414.49C312.27,-409.08 320.08,-402.84 326.5,-396 347.48,-373.65 338.38,-357.22 360.5,-336 365.43,-331.27 371.03,-326.96 376.91,-323.07"/>
<polygon fill="green" stroke="green" points="378.99,-325.9 385.68,-317.68 375.33,-319.94 378.99,-325.9"/>
<text text-anchor="middle" x="400" y="-384.8" font-family="Helvetica,sans-Serif" font-size="14.00" fill="green">50k:7117.41</text>
<text text-anchor="middle" x="400" y="-369.8" font-family="Helvetica,sans-Serif" font-size="14.00" fill="green"> 20k:1631.82</text>
<text text-anchor="middle" x="400" y="-354.8" font-family="Helvetica,sans-Serif" font-size="14.00" fill="green"> kont=18.0</text>
<text text-anchor="middle" x="400" y="-339.8" font-family="Helvetica,sans-Serif" font-size="14.00" fill="green"> moda=truk</text>
</g>
<!-- (sby,3) -->
<g id="node9" class="node">
<title>(sby,3)</title>
<polygon fill="none" stroke="black" points="549,-0.5 549,-46.5 706,-46.5 706,-0.5 549,-0.5"/>
<text text-anchor="middle" x="577.5" y="-19.8" font-family="Helvetica,sans-Serif" font-size="14.00">(sby,3)</text>
<polyline fill="none" stroke="black" points="606,-0.5 606,-46.5 "/>
<text text-anchor="middle" x="625" y="-31.3" font-family="Helvetica,sans-Serif" font-size="14.00">50k</text>
<polyline fill="none" stroke="black" points="606,-23.5 644,-23.5 "/>
<text text-anchor="middle" x="625" y="-8.3" font-family="Helvetica,sans-Serif" font-size="14.00">20k</text>
<polyline fill="none" stroke="black" points="644,-0.5 644,-46.5 "/>
<text text-anchor="middle" x="675" y="-31.3" font-family="Helvetica,sans-Serif" font-size="14.00">142.54</text>
<polyline fill="none" stroke="black" points="644,-23.5 706,-23.5 "/>
<text text-anchor="middle" x="675" y="-8.3" font-family="Helvetica,sans-Serif" font-size="14.00">&#45;334.48</text>
</g>
<!-- (sby,1) -->
<g id="node10" class="node">
<title>(sby,1)</title>
<polygon fill="none" stroke="black" points="543,-271.5 543,-317.5 700,-317.5 700,-271.5 543,-271.5"/>
<text text-anchor="middle" x="571.5" y="-290.8" font-family="Helvetica,sans-Serif" font-size="14.00">(sby,1)</text>
<polyline fill="none" stroke="black" points="600,-271.5 600,-317.5 "/>
<text text-anchor="middle" x="619" y="-302.3" font-family="Helvetica,sans-Serif" font-size="14.00">50k</text>
<polyline fill="none" stroke="black" points="600,-294.5 638,-294.5 "/>
<text text-anchor="middle" x="619" y="-279.3" font-family="Helvetica,sans-Serif" font-size="14.00">20k</text>
<polyline fill="none" stroke="black" points="638,-271.5 638,-317.5 "/>
<text text-anchor="middle" x="669" y="-302.3" font-family="Helvetica,sans-Serif" font-size="14.00">&#45;185.62</text>
<polyline fill="none" stroke="black" points="638,-294.5 700,-294.5 "/>
<text text-anchor="middle" x="669" y="-279.3" font-family="Helvetica,sans-Serif" font-size="14.00">&#45;62.17</text>
</g>
<!-- (sby,2) -->
<g id="node15" class="node">
<title>(sby,2)</title>
<polygon fill="none" stroke="black" points="549,-128.5 549,-174.5 706,-174.5 706,-128.5 549,-128.5"/>
<text text-anchor="middle" x="577.5" y="-147.8" font-family="Helvetica,sans-Serif" font-size="14.00">(sby,2)</text>
<polyline fill="none" stroke="black" points="606,-128.5 606,-174.5 "/>
<text text-anchor="middle" x="625" y="-159.3" font-family="Helvetica,sans-Serif" font-size="14.00">50k</text>
<polyline fill="none" stroke="black" points="606,-151.5 644,-151.5 "/>
<text text-anchor="middle" x="625" y="-136.3" font-family="Helvetica,sans-Serif" font-size="14.00">20k</text>
<polyline fill="none" stroke="black" points="644,-128.5 644,-174.5 "/>
<text text-anchor="middle" x="675" y="-159.3" font-family="Helvetica,sans-Serif" font-size="14.00">&#45;201.78</text>
<polyline fill="none" stroke="black" points="644,-151.5 706,-151.5 "/>
<text text-anchor="middle" x="675" y="-136.3" font-family="Helvetica,sans-Serif" font-size="14.00">&#45;153.51</text>
</g>
<!-- (sby,1)&#45;&gt;(sby,2) -->
<g id="edge6" class="edge">
<title>(sby,1)&#45;&gt;(sby,2)</title>
<path fill="none" stroke="purple" d="M621,-271.12C620.72,-250.73 620.72,-219.81 622.5,-193 622.68,-190.31 622.92,-187.52 623.19,-184.73"/>
<polygon fill="purple" stroke="purple" points="626.67,-185.06 624.3,-174.74 619.71,-184.29 626.67,-185.06"/>
<text text-anchor="middle" x="658" y="-234.3" font-family="Helvetica,sans-Serif" font-size="14.00" fill="purple">50k:372.01</text>
<text text-anchor="middle" x="658" y="-219.3" font-family="Helvetica,sans-Serif" font-size="14.00" fill="purple"> 20k:113.78</text>
<text text-anchor="middle" x="658" y="-204.3" font-family="Helvetica,sans-Serif" font-size="14.00" fill="purple"> kont=1.0</text>
</g>
<!-- (bdg,2) -->
<g id="node11" class="node">
<title>(bdg,2)</title>
<polygon fill="none" stroke="black" points="730,-128.5 730,-174.5 889,-174.5 889,-128.5 730,-128.5"/>
<text text-anchor="middle" x="759.5" y="-147.8" font-family="Helvetica,sans-Serif" font-size="14.00">(bdg,2)</text>
<polyline fill="none" stroke="black" points="789,-128.5 789,-174.5 "/>
<text text-anchor="middle" x="808" y="-159.3" font-family="Helvetica,sans-Serif" font-size="14.00">50k</text>
<polyline fill="none" stroke="black" points="789,-151.5 827,-151.5 "/>
<text text-anchor="middle" x="808" y="-136.3" font-family="Helvetica,sans-Serif" font-size="14.00">20k</text>
<polyline fill="none" stroke="black" points="827,-128.5 827,-174.5 "/>
<text text-anchor="middle" x="858" y="-159.3" font-family="Helvetica,sans-Serif" font-size="14.00">&#45;125.69</text>
<polyline fill="none" stroke="black" points="827,-151.5 889,-151.5 "/>
<text text-anchor="middle" x="858" y="-136.3" font-family="Helvetica,sans-Serif" font-size="14.00">&#45;235.94</text>
</g>
<!-- (bdg,2)&#45;&gt;(bdg,3) -->
<g id="edge7" class="edge">
<title>(bdg,2)&#45;&gt;(bdg,3)</title>
<path fill="none" stroke="purple" d="M809.5,-128.26C809.5,-108.38 809.5,-79.01 809.5,-56.58"/>
<polygon fill="purple" stroke="purple" points="813,-56.51 809.5,-46.51 806,-56.51 813,-56.51"/>
<text text-anchor="middle" x="845" y="-98.8" font-family="Helvetica,sans-Serif" font-size="14.00" fill="purple">50k:225.35</text>
<text text-anchor="middle" x="845" y="-83.8" font-family="Helvetica,sans-Serif" font-size="14.00" fill="purple"> 20k:485.65</text>
<text text-anchor="middle" x="845" y="-68.8" font-family="Helvetica,sans-Serif" font-size="14.00" fill="purple"> kont=1.0</text>
</g>
<!-- (yyk,2) -->
<g id="node16" class="node">
<title>(yyk,2)</title>
<polygon fill="none" stroke="black" points="6,-128.5 6,-174.5 151,-174.5 151,-128.5 6,-128.5"/>
<text text-anchor="middle" x="34.5" y="-147.8" font-family="Helvetica,sans-Serif" font-size="14.00">(yyk,2)</text>
<polyline fill="none" stroke="black" points="63,-128.5 63,-174.5 "/>
<text text-anchor="middle" x="82" y="-159.3" font-family="Helvetica,sans-Serif" font-size="14.00">50k</text>
<polyline fill="none" stroke="black" points="63,-151.5 101,-151.5 "/>
<text text-anchor="middle" x="82" y="-136.3" font-family="Helvetica,sans-Serif" font-size="14.00">20k</text>
<polyline fill="none" stroke="black" points="101,-128.5 101,-174.5 "/>
<text text-anchor="middle" x="126" y="-159.3" font-family="Helvetica,sans-Serif" font-size="14.00">16.67</text>
<polyline fill="none" stroke="black" points="101,-151.5 151,-151.5 "/>
<text text-anchor="middle" x="126" y="-136.3" font-family="Helvetica,sans-Serif" font-size="14.00">193.3</text>
</g>
<!-- (yyk,1)&#45;&gt;(yyk,2) -->
<g id="edge8" class="edge">
<title>(yyk,1)&#45;&gt;(yyk,2)</title>
<path fill="none" stroke="purple" d="M78.5,-271.47C78.5,-248.32 78.5,-211.67 78.5,-185.16"/>
<polygon fill="purple" stroke="purple" points="82,-184.84 78.5,-174.84 75,-184.84 82,-184.84"/>
<text text-anchor="middle" x="114" y="-234.3" font-family="Helvetica,sans-Serif" font-size="14.00" fill="purple">50k:184.3</text>
<text text-anchor="middle" x="114" y="-219.3" font-family="Helvetica,sans-Serif" font-size="14.00" fill="purple"> 20k:377.05</text>
<text text-anchor="middle" x="114" y="-204.3" font-family="Helvetica,sans-Serif" font-size="14.00" fill="purple"> kont=1.0</text>
</g>
<!-- (jkt,2) -->
<g id="node18" class="node">
<title>(jkt,2)</title>
<polygon fill="none" stroke="black" points="366.5,-128.5 366.5,-174.5 512.5,-174.5 512.5,-128.5 366.5,-128.5"/>
<text text-anchor="middle" x="391.5" y="-147.8" font-family="Helvetica,sans-Serif" font-size="14.00">(jkt,2)</text>
<polyline fill="none" stroke="black" points="416.5,-128.5 416.5,-174.5 "/>
<text text-anchor="middle" x="435.5" y="-159.3" font-family="Helvetica,sans-Serif" font-size="14.00">50k</text>
<polyline fill="none" stroke="black" points="416.5,-151.5 454.5,-151.5 "/>
<text text-anchor="middle" x="435.5" y="-136.3" font-family="Helvetica,sans-Serif" font-size="14.00">20k</text>
<polyline fill="none" stroke="black" points="454.5,-128.5 454.5,-174.5 "/>
<text text-anchor="middle" x="483.5" y="-159.3" font-family="Helvetica,sans-Serif" font-size="14.00">&#45;89.19</text>
<polyline fill="none" stroke="black" points="454.5,-151.5 512.5,-151.5 "/>
<text text-anchor="middle" x="483.5" y="-136.3" font-family="Helvetica,sans-Serif" font-size="14.00">148.29</text>
</g>
<!-- (jkt,1)&#45;&gt;(jkt,2) -->
<g id="edge9" class="edge">
<title>(jkt,1)&#45;&gt;(jkt,2)</title>
<path fill="none" stroke="purple" d="M439.5,-271.47C439.5,-248.32 439.5,-211.67 439.5,-185.16"/>
<polygon fill="purple" stroke="purple" points="443,-184.84 439.5,-174.84 436,-184.84 443,-184.84"/>
<text text-anchor="middle" x="479" y="-234.3" font-family="Helvetica,sans-Serif" font-size="14.00" fill="purple">50k:7458.46</text>
<text text-anchor="middle" x="479" y="-219.3" font-family="Helvetica,sans-Serif" font-size="14.00" fill="purple"> 20k:2297.54</text>
<text text-anchor="middle" x="479" y="-204.3" font-family="Helvetica,sans-Serif" font-size="14.00" fill="purple"> kont=1.0</text>
</g>
<!-- (jkt,0) -->
<g id="node14" class="node">
<title>(jkt,0)</title>
<polygon fill="none" stroke="black" points="374,-414.5 374,-460.5 527,-460.5 527,-414.5 374,-414.5"/>
<text text-anchor="middle" x="399" y="-433.8" font-family="Helvetica,sans-Serif" font-size="14.00">(jkt,0)</text>
<polyline fill="none" stroke="black" points="424,-414.5 424,-460.5 "/>
<text text-anchor="middle" x="443" y="-445.3" font-family="Helvetica,sans-Serif" font-size="14.00">50k</text>
<polyline fill="none" stroke="black" points="424,-437.5 462,-437.5 "/>
<text text-anchor="middle" x="443" y="-422.3" font-family="Helvetica,sans-Serif" font-size="14.00">20k</text>
<polyline fill="none" stroke="black" points="462,-414.5 462,-460.5 "/>
<text text-anchor="middle" x="494.5" y="-445.3" font-family="Helvetica,sans-Serif" font-size="14.00">378.79</text>
<polyline fill="none" stroke="black" points="462,-437.5 527,-437.5 "/>
<text text-anchor="middle" x="494.5" y="-422.3" font-family="Helvetica,sans-Serif" font-size="14.00">1053.47</text>
</g>
<!-- (jkt,0)&#45;&gt;(jkt,1) -->
<g id="edge10" class="edge">
<title>(jkt,0)&#45;&gt;(jkt,1)</title>
<path fill="none" stroke="purple" d="M448.78,-414.47C446.98,-391.32 444.12,-354.67 442.05,-328.16"/>
<polygon fill="purple" stroke="purple" points="445.51,-327.54 441.24,-317.84 438.53,-328.08 445.51,-327.54"/>
<text text-anchor="middle" x="487" y="-377.3" font-family="Helvetica,sans-Serif" font-size="14.00" fill="purple">50k:378.79</text>
<text text-anchor="middle" x="487" y="-362.3" font-family="Helvetica,sans-Serif" font-size="14.00" fill="purple"> 20k:1053.47</text>
<text text-anchor="middle" x="487" y="-347.3" font-family="Helvetica,sans-Serif" font-size="14.00" fill="purple"> kont=1.0</text>
</g>
<!-- (sby,2)&#45;&gt;(sby,3) -->
<g id="edge11" class="edge">
<title>(sby,2)&#45;&gt;(sby,3)</title>
<path fill="none" stroke="purple" d="M627.5,-128.26C627.5,-108.38 627.5,-79.01 627.5,-56.58"/>
<polygon fill="purple" stroke="purple" points="631,-56.51 627.5,-46.51 624,-56.51 631,-56.51"/>
<text text-anchor="middle" x="663" y="-98.8" font-family="Helvetica,sans-Serif" font-size="14.00" fill="purple">50k:573.79</text>
<text text-anchor="middle" x="663" y="-83.8" font-family="Helvetica,sans-Serif" font-size="14.00" fill="purple"> 20k:447.57</text>
<text text-anchor="middle" x="663" y="-68.8" font-family="Helvetica,sans-Serif" font-size="14.00" fill="purple"> kont=1.0</text>
</g>
<!-- (yyk,2)&#45;&gt;(yyk,3) -->
<g id="edge12" class="edge">
<title>(yyk,2)&#45;&gt;(yyk,3)</title>
<path fill="none" stroke="purple" d="M78.5,-128.26C78.5,-108.38 78.5,-79.01 78.5,-56.58"/>
<polygon fill="purple" stroke="purple" points="82,-56.51 78.5,-46.51 75,-56.51 82,-56.51"/>
<text text-anchor="middle" x="114" y="-98.8" font-family="Helvetica,sans-Serif" font-size="14.00" fill="purple">50k:167.63</text>
<text text-anchor="middle" x="114" y="-83.8" font-family="Helvetica,sans-Serif" font-size="14.00" fill="purple"> 20k:183.75</text>
<text text-anchor="middle" x="114" y="-68.8" font-family="Helvetica,sans-Serif" font-size="14.00" fill="purple"> kont=1.0</text>
</g>
<!-- (bdg,0) -->
<g id="node17" class="node">
<title>(bdg,0)</title>
<polygon fill="none" stroke="black" points="725,-414.5 725,-460.5 880,-460.5 880,-414.5 725,-414.5"/>
<text text-anchor="middle" x="754.5" y="-433.8" font-family="Helvetica,sans-Serif" font-size="14.00">(bdg,0)</text>
<polyline fill="none" stroke="black" points="784,-414.5 784,-460.5 "/>
<text text-anchor="middle" x="803" y="-445.3" font-family="Helvetica,sans-Serif" font-size="14.00">50k</text>
<polyline fill="none" stroke="black" points="784,-437.5 822,-437.5 "/>
<text text-anchor="middle" x="803" y="-422.3" font-family="Helvetica,sans-Serif" font-size="14.00">20k</text>
<polyline fill="none" stroke="black" points="822,-414.5 822,-460.5 "/>
<text text-anchor="middle" x="851" y="-445.3" font-family="Helvetica,sans-Serif" font-size="14.00">38.96</text>
<polyline fill="none" stroke="black" points="822,-437.5 880,-437.5 "/>
<text text-anchor="middle" x="851" y="-422.3" font-family="Helvetica,sans-Serif" font-size="14.00">394.07</text>
</g>
<!-- (bdg,1) -->
<g id="node19" class="node">
<title>(bdg,1)</title>
<polygon fill="none" stroke="black" points="726.5,-271.5 726.5,-317.5 878.5,-317.5 878.5,-271.5 726.5,-271.5"/>
<text text-anchor="middle" x="756" y="-290.8" font-family="Helvetica,sans-Serif" font-size="14.00">(bdg,1)</text>
<polyline fill="none" stroke="black" points="785.5,-271.5 785.5,-317.5 "/>
<text text-anchor="middle" x="804.5" y="-302.3" font-family="Helvetica,sans-Serif" font-size="14.00">50k</text>
<polyline fill="none" stroke="black" points="785.5,-294.5 823.5,-294.5 "/>
<text text-anchor="middle" x="804.5" y="-279.3" font-family="Helvetica,sans-Serif" font-size="14.00">20k</text>
<polyline fill="none" stroke="black" points="823.5,-271.5 823.5,-317.5 "/>
<text text-anchor="middle" x="851" y="-302.3" font-family="Helvetica,sans-Serif" font-size="14.00">&#45;60.7</text>
<polyline fill="none" stroke="black" points="823.5,-294.5 878.5,-294.5 "/>
<text text-anchor="middle" x="851" y="-279.3" font-family="Helvetica,sans-Serif" font-size="14.00">&#45;35.93</text>
</g>
<!-- (bdg,0)&#45;&gt;(bdg,1) -->
<g id="edge13" class="edge">
<title>(bdg,0)&#45;&gt;(bdg,1)</title>
<path fill="none" stroke="purple" d="M802.5,-414.47C802.5,-391.32 802.5,-354.67 802.5,-328.16"/>
<polygon fill="purple" stroke="purple" points="806,-327.84 802.5,-317.84 799,-327.84 806,-327.84"/>
<text text-anchor="middle" x="838" y="-377.3" font-family="Helvetica,sans-Serif" font-size="14.00" fill="purple">50k:38.96</text>
<text text-anchor="middle" x="838" y="-362.3" font-family="Helvetica,sans-Serif" font-size="14.00" fill="purple"> 20k:394.07</text>
<text text-anchor="middle" x="838" y="-347.3" font-family="Helvetica,sans-Serif" font-size="14.00" fill="purple"> kont=1.0</text>
</g>
<!-- (jkt,2)&#45;&gt;(jkt,3) -->
<g id="edge14" class="edge">
<title>(jkt,2)&#45;&gt;(jkt,3)</title>
<path fill="none" stroke="purple" d="M439.5,-128.26C439.5,-108.38 439.5,-79.01 439.5,-56.58"/>
<polygon fill="purple" stroke="purple" points="443,-56.51 439.5,-46.51 436,-56.51 443,-56.51"/>
<text text-anchor="middle" x="479" y="-98.8" font-family="Helvetica,sans-Serif" font-size="14.00" fill="purple">50k:7547.65</text>
<text text-anchor="middle" x="479" y="-83.8" font-family="Helvetica,sans-Serif" font-size="14.00" fill="purple"> 20k:2149.25</text>
<text text-anchor="middle" x="479" y="-68.8" font-family="Helvetica,sans-Serif" font-size="14.00" fill="purple"> kont=1.0</text>
</g>
<!-- (bdg,1)&#45;&gt;(bdg,2) -->
<g id="edge15" class="edge">
<title>(bdg,1)&#45;&gt;(bdg,2)</title>
<path fill="none" stroke="purple" d="M803.59,-271.47C804.74,-248.32 806.56,-211.67 807.88,-185.16"/>
<polygon fill="purple" stroke="purple" points="811.39,-185 808.39,-174.84 804.4,-184.66 811.39,-185"/>
<text text-anchor="middle" x="842" y="-234.3" font-family="Helvetica,sans-Serif" font-size="14.00" fill="purple">50k:99.66</text>
<text text-anchor="middle" x="842" y="-219.3" font-family="Helvetica,sans-Serif" font-size="14.00" fill="purple"> 20k:249.71</text>
<text text-anchor="middle" x="842" y="-204.3" font-family="Helvetica,sans-Serif" font-size="14.00" fill="purple"> kont=1.0</text>
</g>
<!-- (bdg,1)&#45;&gt;(sby,2) -->
<g id="edge16" class="edge">
<title>(bdg,1)&#45;&gt;(sby,2)</title>
<path fill="none" stroke="green" d="M754.06,-271.37C745.31,-266.1 736.69,-259.95 729.5,-253 707.14,-231.39 715.38,-215.1 693.5,-193 689.03,-188.49 683.96,-184.26 678.67,-180.37"/>
<polygon fill="green" stroke="green" points="680.44,-177.33 670.22,-174.53 676.46,-183.09 680.44,-177.33"/>
<text text-anchor="middle" x="765" y="-241.8" font-family="Helvetica,sans-Serif" font-size="14.00" fill="green">50k:0.0</text>
<text text-anchor="middle" x="765" y="-226.8" font-family="Helvetica,sans-Serif" font-size="14.00" fill="green"> 20k:180.28</text>
<text text-anchor="middle" x="765" y="-211.8" font-family="Helvetica,sans-Serif" font-size="14.00" fill="green"> kont=1.0</text>
<text text-anchor="middle" x="765" y="-196.8" font-family="Helvetica,sans-Serif" font-size="14.00" fill="green"> moda=krta</text>
</g>
<!-- (sby,0) -->
<g id="node20" class="node">
<title>(sby,0)</title>
<polygon fill="none" stroke="black" points="545,-414.5 545,-460.5 698,-460.5 698,-414.5 545,-414.5"/>
<text text-anchor="middle" x="573.5" y="-433.8" font-family="Helvetica,sans-Serif" font-size="14.00">(sby,0)</text>
<polyline fill="none" stroke="black" points="602,-414.5 602,-460.5 "/>
<text text-anchor="middle" x="621" y="-445.3" font-family="Helvetica,sans-Serif" font-size="14.00">50k</text>
<polyline fill="none" stroke="black" points="602,-437.5 640,-437.5 "/>
<text text-anchor="middle" x="621" y="-422.3" font-family="Helvetica,sans-Serif" font-size="14.00">20k</text>
<polyline fill="none" stroke="black" points="640,-414.5 640,-460.5 "/>
<text text-anchor="middle" x="669" y="-445.3" font-family="Helvetica,sans-Serif" font-size="14.00">186.39</text>
<polyline fill="none" stroke="black" points="640,-437.5 698,-437.5 "/>
<text text-anchor="middle" x="669" y="-422.3" font-family="Helvetica,sans-Serif" font-size="14.00">51.61</text>
</g>
<!-- (sby,0)&#45;&gt;(sby,1) -->
<g id="edge17" class="edge">
<title>(sby,0)&#45;&gt;(sby,1)</title>
<path fill="none" stroke="purple" d="M621.5,-414.47C621.5,-391.32 621.5,-354.67 621.5,-328.16"/>
<polygon fill="purple" stroke="purple" points="625,-327.84 621.5,-317.84 618,-327.84 625,-327.84"/>
<text text-anchor="middle" x="655" y="-377.3" font-family="Helvetica,sans-Serif" font-size="14.00" fill="purple">50k:186.39</text>
<text text-anchor="middle" x="655" y="-362.3" font-family="Helvetica,sans-Serif" font-size="14.00" fill="purple"> 20k:51.61</text>
<text text-anchor="middle" x="655" y="-347.3" font-family="Helvetica,sans-Serif" font-size="14.00" fill="purple"> kont=1.0</text>
</g>
</g>
</svg>
