<?xml version="1.0" encoding="UTF-8"?>
<svg xmlns="http://www.w3.org/2000/svg"
     xmlns:xlink="http://www.w3.org/1999/xlink"
     xmlns:gadfly="http://www.gadflyjl.org/ns"
     version="1.2"
     width="141.42mm" height="100mm" viewBox="0 0 141.42 100"
     stroke="none"
     fill="#000000"
     stroke-width="0.3"
     font-size="3.88"
>
<defs>
  <marker id="arrow" markerWidth="15" markerHeight="7" refX="5" refY="3.5" orient="auto" markerUnits="strokeWidth">
    <path d="M0,0 L15,3.5 L0,7 z" stroke="context-stroke" fill="context-stroke"/>
  </marker>
</defs>
<g class="plotroot yscalable" id="img-c56e5f5e-1">
  <g font-size="3.88" font-family="'PT Sans','Helvetica Neue','Helvetica',sans-serif" fill="#564A55" stroke="#000000" stroke-opacity="0.000" id="img-c56e5f5e-2">
    <g transform="translate(80.41,88.39)">
      <g class="primitive">
        <text text-anchor="middle" dy="0.6em">Khazanah</text>
      </g>
    </g>
  </g>
  <g class="guide xlabels" font-size="2.82" font-family="'PT Sans Caption','Helvetica Neue','Helvetica',sans-serif" fill="#6C606B" id="img-c56e5f5e-3">
    <g transform="translate(25.61,42.61)">
      <g class="primitive">
        <text text-anchor="end" dy="0.35em" transform="rotate(-90,0, 0)">Jakarta</text>
      </g>
    </g>
    <g transform="translate(28.04,42.61)">
      <g class="primitive">
        <text text-anchor="end" dy="0.35em" transform="rotate(-90,0, 0)">Provinsi Aceh</text>
      </g>
    </g>
    <g transform="translate(30.48,42.61)">
      <g class="primitive">
        <text text-anchor="end" dy="0.35em" transform="rotate(-90,0, 0)">Provinsi Sumatera Utara</text>
      </g>
    </g>
    <g transform="translate(32.92,42.61)">
      <g class="primitive">
        <text text-anchor="end" dy="0.35em" transform="rotate(-90,0, 0)">Sibolga</text>
      </g>
    </g>
    <g transform="translate(35.35,42.61)">
      <g class="primitive">
        <text text-anchor="end" dy="0.35em" transform="rotate(-90,0, 0)">Lhokseumawe</text>
      </g>
    </g>
    <g transform="translate(37.79,42.61)">
      <g class="primitive">
        <text text-anchor="end" dy="0.35em" transform="rotate(-90,0, 0)">Pematangsiantar</text>
      </g>
    </g>
    <g transform="translate(40.22,42.61)">
      <g class="primitive">
        <text text-anchor="end" dy="0.35em" transform="rotate(-90,0, 0)">Provinsi Bengkulu</text>
      </g>
    </g>
    <g transform="translate(42.66,42.61)">
      <g class="primitive">
        <text text-anchor="end" dy="0.35em" transform="rotate(-90,0, 0)">Provinsi Sumatera Selatan</text>
      </g>
    </g>
    <g transform="translate(45.09,42.61)">
      <g class="primitive">
        <text text-anchor="end" dy="0.35em" transform="rotate(-90,0, 0)">Provinsi Bangka Belitung</text>
      </g>
    </g>
    <g transform="translate(47.53,42.61)">
      <g class="primitive">
        <text text-anchor="end" dy="0.35em" transform="rotate(-90,0, 0)">Provinsi Lampung</text>
      </g>
    </g>
    <g transform="translate(49.96,42.61)">
      <g class="primitive">
        <text text-anchor="end" dy="0.35em" transform="rotate(-90,0, 0)">Provinsi Jambi</text>
      </g>
    </g>
    <g transform="translate(52.4,42.61)">
      <g class="primitive">
        <text text-anchor="end" dy="0.35em" transform="rotate(-90,0, 0)">Provinsi Sumatera Barat</text>
      </g>
    </g>
    <g transform="translate(54.83,42.61)">
      <g class="primitive">
        <text text-anchor="end" dy="0.35em" transform="rotate(-90,0, 0)">Provinsi Riau</text>
      </g>
    </g>
    <g transform="translate(57.27,42.61)">
      <g class="primitive">
        <text text-anchor="end" dy="0.35em" transform="rotate(-90,0, 0)">Provinsi Kepulauan Riau</text>
      </g>
    </g>
    <g transform="translate(59.71,42.61)">
      <g class="primitive">
        <text text-anchor="end" dy="0.35em" transform="rotate(-90,0, 0)">Provinsi Banten</text>
      </g>
    </g>
    <g transform="translate(62.14,42.61)">
      <g class="primitive">
        <text text-anchor="end" dy="0.35em" transform="rotate(-90,0, 0)">Cirebon</text>
      </g>
    </g>
    <g transform="translate(64.58,42.61)">
      <g class="primitive">
        <text text-anchor="end" dy="0.35em" transform="rotate(-90,0, 0)">Tasikmalaya</text>
      </g>
    </g>
    <g transform="translate(67.01,42.61)">
      <g class="primitive">
        <text text-anchor="end" dy="0.35em" transform="rotate(-90,0, 0)">Provinsi Jawa Barat</text>
      </g>
    </g>
    <g transform="translate(69.45,42.61)">
      <g class="primitive">
        <text text-anchor="end" dy="0.35em" transform="rotate(-90,0, 0)">Provinsi DIY</text>
      </g>
    </g>
    <g transform="translate(71.88,42.61)">
      <g class="primitive">
        <text text-anchor="end" dy="0.35em" transform="rotate(-90,0, 0)">Provinsi Jawa Tengah</text>
      </g>
    </g>
    <g transform="translate(74.32,42.61)">
      <g class="primitive">
        <text text-anchor="end" dy="0.35em" transform="rotate(-90,0, 0)">Solo</text>
      </g>
    </g>
    <g transform="translate(76.75,42.61)">
      <g class="primitive">
        <text text-anchor="end" dy="0.35em" transform="rotate(-90,0, 0)">Purwokerto</text>
      </g>
    </g>
    <g transform="translate(79.19,42.61)">
      <g class="primitive">
        <text text-anchor="end" dy="0.35em" transform="rotate(-90,0, 0)">Tegal</text>
      </g>
    </g>
    <g transform="translate(81.62,42.61)">
      <g class="primitive">
        <text text-anchor="end" dy="0.35em" transform="rotate(-90,0, 0)">Jember</text>
      </g>
    </g>
    <g transform="translate(84.06,42.61)">
      <g class="primitive">
        <text text-anchor="end" dy="0.35em" transform="rotate(-90,0, 0)">Kediri</text>
      </g>
    </g>
    <g transform="translate(86.5,42.61)">
      <g class="primitive">
        <text text-anchor="end" dy="0.35em" transform="rotate(-90,0, 0)">Malang</text>
      </g>
    </g>
    <g transform="translate(88.93,42.61)">
      <g class="primitive">
        <text text-anchor="end" dy="0.35em" transform="rotate(-90,0, 0)">Provinsi Jawa Timur</text>
      </g>
    </g>
    <g transform="translate(91.37,42.61)">
      <g class="primitive">
        <text text-anchor="end" dy="0.35em" transform="rotate(-90,0, 0)">Provinsi Kalimantan Selatan</text>
      </g>
    </g>
    <g transform="translate(93.8,42.61)">
      <g class="primitive">
        <text text-anchor="end" dy="0.35em" transform="rotate(-90,0, 0)">Provinsi Kalimantan Barat</text>
      </g>
    </g>
    <g transform="translate(96.24,42.61)">
      <g class="primitive">
        <text text-anchor="end" dy="0.35em" transform="rotate(-90,0, 0)">Provinsi Kalimantan Timur</text>
      </g>
    </g>
    <g transform="translate(98.67,42.61)">
      <g class="primitive">
        <text text-anchor="end" dy="0.35em" transform="rotate(-90,0, 0)">Balikpapan</text>
      </g>
    </g>
    <g transform="translate(101.11,42.61)">
      <g class="primitive">
        <text text-anchor="end" dy="0.35em" transform="rotate(-90,0, 0)">Provinsi Kalimantan Tengah</text>
      </g>
    </g>
    <g transform="translate(103.54,42.61)">
      <g class="primitive">
        <text text-anchor="end" dy="0.35em" transform="rotate(-90,0, 0)">Provinsi Kalimantan Utara</text>
      </g>
    </g>
    <g transform="translate(105.98,42.61)">
      <g class="primitive">
        <text text-anchor="end" dy="0.35em" transform="rotate(-90,0, 0)">Provinsi Sulawesi Tengah</text>
      </g>
    </g>
    <g transform="translate(108.41,42.61)">
      <g class="primitive">
        <text text-anchor="end" dy="0.35em" transform="rotate(-90,0, 0)">Provinsi Sulawesi Selatan</text>
      </g>
    </g>
    <g transform="translate(110.85,42.61)">
      <g class="primitive">
        <text text-anchor="end" dy="0.35em" transform="rotate(-90,0, 0)">Provinsi Sulawesi Utara</text>
      </g>
    </g>
    <g transform="translate(113.28,42.61)">
      <g class="primitive">
        <text text-anchor="end" dy="0.35em" transform="rotate(-90,0, 0)">Provinsi Sulawesi Tenggara</text>
      </g>
    </g>
    <g transform="translate(115.72,42.61)">
      <g class="primitive">
        <text text-anchor="end" dy="0.35em" transform="rotate(-90,0, 0)">Provinsi Maluku</text>
      </g>
    </g>
    <g transform="translate(118.16,42.61)">
      <g class="primitive">
        <text text-anchor="end" dy="0.35em" transform="rotate(-90,0, 0)">Provinsi Papua </text>
      </g>
    </g>
    <g transform="translate(120.59,42.61)">
      <g class="primitive">
        <text text-anchor="end" dy="0.35em" transform="rotate(-90,0, 0)">Provinsi Maluku Utara</text>
      </g>
    </g>
    <g transform="translate(123.03,42.61)">
      <g class="primitive">
        <text text-anchor="end" dy="0.35em" transform="rotate(-90,0, 0)">Provinsi Papua Barat</text>
      </g>
    </g>
    <g transform="translate(125.46,42.61)">
      <g class="primitive">
        <text text-anchor="end" dy="0.35em" transform="rotate(-90,0, 0)">Provinsi Nusa Tenggara Barat</text>
      </g>
    </g>
    <g transform="translate(127.9,42.61)">
      <g class="primitive">
        <text text-anchor="end" dy="0.35em" transform="rotate(-90,0, 0)">Provinsi Bali</text>
      </g>
    </g>
    <g transform="translate(130.33,42.61)">
      <g class="primitive">
        <text text-anchor="end" dy="0.35em" transform="rotate(-90,0, 0)">Provinsi Nusa Tenggara Timur</text>
      </g>
    </g>
    <g transform="translate(132.77,42.61)">
      <g class="primitive">
        <text text-anchor="end" dy="0.35em" transform="rotate(-90,0, 0)">Provinsi Sulawesi Barat</text>
      </g>
    </g>
    <g transform="translate(135.2,42.61)">
      <g class="primitive">
        <text text-anchor="end" dy="0.35em" transform="rotate(-90,0, 0)">Provinsi Gorontalo</text>
      </g>
    </g>
  </g>
  <g clip-path="url(#img-c56e5f5e-4)">
    <g id="img-c56e5f5e-5">
      <g pointer-events="visible" stroke-width="0.3" fill="#000000" fill-opacity="0.000" stroke="#000000" stroke-opacity="0.000" class="guide background" id="img-c56e5f5e-6">
        <g transform="translate(80.41,23.3)" id="img-c56e5f5e-7">
          <path d="M-56.01,-18.3 L56.01,-18.3 56.01,18.3 -56.01,18.3  z" class="primitive"/>
        </g>
      </g>
      <g class="guide ygridlines xfixed" stroke-dasharray="0.5,0.5" stroke-width="0.2" stroke="#D0D0E0" id="img-c56e5f5e-8">
        <g transform="translate(80.41,39.61)" id="img-c56e5f5e-9">
          <path fill="none" d="M-56.01,0 L56.01,0 " class="primitive"/>
        </g>
        <g transform="translate(80.41,33.09)" id="img-c56e5f5e-10">
          <path fill="none" d="M-56.01,0 L56.01,0 " class="primitive"/>
        </g>
        <g transform="translate(80.41,26.57)" id="img-c56e5f5e-11">
          <path fill="none" d="M-56.01,0 L56.01,0 " class="primitive"/>
        </g>
        <g transform="translate(80.41,20.04)" id="img-c56e5f5e-12">
          <path fill="none" d="M-56.01,0 L56.01,0 " class="primitive"/>
        </g>
        <g transform="translate(80.41,13.52)" id="img-c56e5f5e-13">
          <path fill="none" d="M-56.01,0 L56.01,0 " class="primitive"/>
        </g>
        <g transform="translate(80.41,7)" id="img-c56e5f5e-14">
          <path fill="none" d="M-56.01,0 L56.01,0 " class="primitive"/>
        </g>
      </g>
      <g class="guide xgridlines yfixed" stroke-dasharray="0.5,0.5" stroke-width="0.2" stroke="#D0D0E0" id="img-c56e5f5e-15">
        <g transform="translate(26.83,23.3)" id="img-c56e5f5e-16">
          <path fill="none" d="M0,-18.3 L0,18.3 " class="primitive"/>
        </g>
        <g transform="translate(29.26,23.3)" id="img-c56e5f5e-17">
          <path fill="none" d="M0,-18.3 L0,18.3 " class="primitive"/>
        </g>
        <g transform="translate(31.7,23.3)" id="img-c56e5f5e-18">
          <path fill="none" d="M0,-18.3 L0,18.3 " class="primitive"/>
        </g>
        <g transform="translate(34.13,23.3)" id="img-c56e5f5e-19">
          <path fill="none" d="M0,-18.3 L0,18.3 " class="primitive"/>
        </g>
        <g transform="translate(36.57,23.3)" id="img-c56e5f5e-20">
          <path fill="none" d="M0,-18.3 L0,18.3 " class="primitive"/>
        </g>
        <g transform="translate(39,23.3)" id="img-c56e5f5e-21">
          <path fill="none" d="M0,-18.3 L0,18.3 " class="primitive"/>
        </g>
        <g transform="translate(41.44,23.3)" id="img-c56e5f5e-22">
          <path fill="none" d="M0,-18.3 L0,18.3 " class="primitive"/>
        </g>
        <g transform="translate(43.88,23.3)" id="img-c56e5f5e-23">
          <path fill="none" d="M0,-18.3 L0,18.3 " class="primitive"/>
        </g>
        <g transform="translate(46.31,23.3)" id="img-c56e5f5e-24">
          <path fill="none" d="M0,-18.3 L0,18.3 " class="primitive"/>
        </g>
        <g transform="translate(48.75,23.3)" id="img-c56e5f5e-25">
          <path fill="none" d="M0,-18.3 L0,18.3 " class="primitive"/>
        </g>
        <g transform="translate(51.18,23.3)" id="img-c56e5f5e-26">
          <path fill="none" d="M0,-18.3 L0,18.3 " class="primitive"/>
        </g>
        <g transform="translate(53.62,23.3)" id="img-c56e5f5e-27">
          <path fill="none" d="M0,-18.3 L0,18.3 " class="primitive"/>
        </g>
        <g transform="translate(56.05,23.3)" id="img-c56e5f5e-28">
          <path fill="none" d="M0,-18.3 L0,18.3 " class="primitive"/>
        </g>
        <g transform="translate(58.49,23.3)" id="img-c56e5f5e-29">
          <path fill="none" d="M0,-18.3 L0,18.3 " class="primitive"/>
        </g>
        <g transform="translate(60.92,23.3)" id="img-c56e5f5e-30">
          <path fill="none" d="M0,-18.3 L0,18.3 " class="primitive"/>
        </g>
        <g transform="translate(63.36,23.3)" id="img-c56e5f5e-31">
          <path fill="none" d="M0,-18.3 L0,18.3 " class="primitive"/>
        </g>
        <g transform="translate(65.79,23.3)" id="img-c56e5f5e-32">
          <path fill="none" d="M0,-18.3 L0,18.3 " class="primitive"/>
        </g>
        <g transform="translate(68.23,23.3)" id="img-c56e5f5e-33">
          <path fill="none" d="M0,-18.3 L0,18.3 " class="primitive"/>
        </g>
        <g transform="translate(70.66,23.3)" id="img-c56e5f5e-34">
          <path fill="none" d="M0,-18.3 L0,18.3 " class="primitive"/>
        </g>
        <g transform="translate(73.1,23.3)" id="img-c56e5f5e-35">
          <path fill="none" d="M0,-18.3 L0,18.3 " class="primitive"/>
        </g>
        <g transform="translate(75.54,23.3)" id="img-c56e5f5e-36">
          <path fill="none" d="M0,-18.3 L0,18.3 " class="primitive"/>
        </g>
        <g transform="translate(77.97,23.3)" id="img-c56e5f5e-37">
          <path fill="none" d="M0,-18.3 L0,18.3 " class="primitive"/>
        </g>
        <g transform="translate(80.41,23.3)" id="img-c56e5f5e-38">
          <path fill="none" d="M0,-18.3 L0,18.3 " class="primitive"/>
        </g>
        <g transform="translate(82.84,23.3)" id="img-c56e5f5e-39">
          <path fill="none" d="M0,-18.3 L0,18.3 " class="primitive"/>
        </g>
        <g transform="translate(85.28,23.3)" id="img-c56e5f5e-40">
          <path fill="none" d="M0,-18.3 L0,18.3 " class="primitive"/>
        </g>
        <g transform="translate(87.71,23.3)" id="img-c56e5f5e-41">
          <path fill="none" d="M0,-18.3 L0,18.3 " class="primitive"/>
        </g>
        <g transform="translate(90.15,23.3)" id="img-c56e5f5e-42">
          <path fill="none" d="M0,-18.3 L0,18.3 " class="primitive"/>
        </g>
        <g transform="translate(92.58,23.3)" id="img-c56e5f5e-43">
          <path fill="none" d="M0,-18.3 L0,18.3 " class="primitive"/>
        </g>
        <g transform="translate(95.02,23.3)" id="img-c56e5f5e-44">
          <path fill="none" d="M0,-18.3 L0,18.3 " class="primitive"/>
        </g>
        <g transform="translate(97.45,23.3)" id="img-c56e5f5e-45">
          <path fill="none" d="M0,-18.3 L0,18.3 " class="primitive"/>
        </g>
        <g transform="translate(99.89,23.3)" id="img-c56e5f5e-46">
          <path fill="none" d="M0,-18.3 L0,18.3 " class="primitive"/>
        </g>
        <g transform="translate(102.33,23.3)" id="img-c56e5f5e-47">
          <path fill="none" d="M0,-18.3 L0,18.3 " class="primitive"/>
        </g>
        <g transform="translate(104.76,23.3)" id="img-c56e5f5e-48">
          <path fill="none" d="M0,-18.3 L0,18.3 " class="primitive"/>
        </g>
        <g transform="translate(107.2,23.3)" id="img-c56e5f5e-49">
          <path fill="none" d="M0,-18.3 L0,18.3 " class="primitive"/>
        </g>
        <g transform="translate(109.63,23.3)" id="img-c56e5f5e-50">
          <path fill="none" d="M0,-18.3 L0,18.3 " class="primitive"/>
        </g>
        <g transform="translate(112.07,23.3)" id="img-c56e5f5e-51">
          <path fill="none" d="M0,-18.3 L0,18.3 " class="primitive"/>
        </g>
        <g transform="translate(114.5,23.3)" id="img-c56e5f5e-52">
          <path fill="none" d="M0,-18.3 L0,18.3 " class="primitive"/>
        </g>
        <g transform="translate(116.94,23.3)" id="img-c56e5f5e-53">
          <path fill="none" d="M0,-18.3 L0,18.3 " class="primitive"/>
        </g>
        <g transform="translate(119.37,23.3)" id="img-c56e5f5e-54">
          <path fill="none" d="M0,-18.3 L0,18.3 " class="primitive"/>
        </g>
        <g transform="translate(121.81,23.3)" id="img-c56e5f5e-55">
          <path fill="none" d="M0,-18.3 L0,18.3 " class="primitive"/>
        </g>
        <g transform="translate(124.24,23.3)" id="img-c56e5f5e-56">
          <path fill="none" d="M0,-18.3 L0,18.3 " class="primitive"/>
        </g>
        <g transform="translate(126.68,23.3)" id="img-c56e5f5e-57">
          <path fill="none" d="M0,-18.3 L0,18.3 " class="primitive"/>
        </g>
        <g transform="translate(129.12,23.3)" id="img-c56e5f5e-58">
          <path fill="none" d="M0,-18.3 L0,18.3 " class="primitive"/>
        </g>
        <g transform="translate(131.55,23.3)" id="img-c56e5f5e-59">
          <path fill="none" d="M0,-18.3 L0,18.3 " class="primitive"/>
        </g>
        <g transform="translate(133.99,23.3)" id="img-c56e5f5e-60">
          <path fill="none" d="M0,-18.3 L0,18.3 " class="primitive"/>
        </g>
      </g>
      <g class="plotpanel" id="img-c56e5f5e-61">
        <metadata>
          <boundingbox value="24.391666666666666mm 5.0mm 112.02968957064284mm 36.60833333333334mm"/>
          <unitbox value="0.5 265.33350370559674 46.0 -280.6670074111934"/>
        </metadata>
        <g shape-rendering="crispEdges" stroke-width="0.3" id="img-c56e5f5e-62">
          <g class="geometry" fill-opacity="1" stroke="#000000" stroke-opacity="0.000" fill="#00BFFF" id="img-c56e5f5e-63">
            <g transform="translate(25.61,33.05)" id="img-c56e5f5e-64">
              <path d="M-1.24,-6.55 L1.24,-6.55 1.24,6.55 -1.24,6.55  z" class="primitive"/>
            </g>
            <g transform="translate(28.04,32.68)" id="img-c56e5f5e-65">
              <path d="M-1.24,-6.93 L1.24,-6.93 1.24,6.93 -1.24,6.93  z" class="primitive"/>
            </g>
            <g transform="translate(30.48,34.5)" id="img-c56e5f5e-66">
              <path d="M-1.24,-5.11 L1.24,-5.11 1.24,5.11 -1.24,5.11  z" class="primitive"/>
            </g>
            <g transform="translate(32.92,36.12)" id="img-c56e5f5e-67">
              <path d="M-1.24,-3.49 L1.24,-3.49 1.24,3.49 -1.24,3.49  z" class="primitive"/>
            </g>
            <g transform="translate(35.35,36.65)" id="img-c56e5f5e-68">
              <path d="M-1.24,-2.96 L1.24,-2.96 1.24,2.96 -1.24,2.96  z" class="primitive"/>
            </g>
            <g transform="translate(37.79,33.86)" id="img-c56e5f5e-69">
              <path d="M-1.24,-5.74 L1.24,-5.74 1.24,5.74 -1.24,5.74  z" class="primitive"/>
            </g>
            <g transform="translate(40.22,34.6)" id="img-c56e5f5e-70">
              <path d="M-1.24,-5 L1.24,-5 1.24,5 -1.24,5  z" class="primitive"/>
            </g>
            <g transform="translate(42.66,32.89)" id="img-c56e5f5e-71">
              <path d="M-1.24,-6.72 L1.24,-6.72 1.24,6.72 -1.24,6.72  z" class="primitive"/>
            </g>
            <g transform="translate(45.09,38.33)" id="img-c56e5f5e-72">
              <path d="M-1.24,-1.28 L1.24,-1.28 1.24,1.28 -1.24,1.28  z" class="primitive"/>
            </g>
            <g transform="translate(47.53,35.24)" id="img-c56e5f5e-73">
              <path d="M-1.24,-4.37 L1.24,-4.37 1.24,4.37 -1.24,4.37  z" class="primitive"/>
            </g>
            <g transform="translate(49.96,36.74)" id="img-c56e5f5e-74">
              <path d="M-1.24,-2.87 L1.24,-2.87 1.24,2.87 -1.24,2.87  z" class="primitive"/>
            </g>
            <g transform="translate(52.4,35.18)" id="img-c56e5f5e-75">
              <path d="M-1.24,-4.43 L1.24,-4.43 1.24,4.43 -1.24,4.43  z" class="primitive"/>
            </g>
            <g transform="translate(54.83,32.15)" id="img-c56e5f5e-76">
              <path d="M-1.24,-7.46 L1.24,-7.46 1.24,7.46 -1.24,7.46  z" class="primitive"/>
            </g>
            <g transform="translate(57.27,30.13)" id="img-c56e5f5e-77">
              <path d="M-1.24,-9.48 L1.24,-9.48 1.24,9.48 -1.24,9.48  z" class="primitive"/>
            </g>
            <g transform="translate(59.71,32.96)" id="img-c56e5f5e-78">
              <path d="M-1.24,-6.64 L1.24,-6.64 1.24,6.64 -1.24,6.64  z" class="primitive"/>
            </g>
            <g transform="translate(62.14,35.46)" id="img-c56e5f5e-79">
              <path d="M-1.24,-4.15 L1.24,-4.15 1.24,4.15 -1.24,4.15  z" class="primitive"/>
            </g>
            <g transform="translate(64.58,31.42)" id="img-c56e5f5e-80">
              <path d="M-1.24,-8.19 L1.24,-8.19 1.24,8.19 -1.24,8.19  z" class="primitive"/>
            </g>
            <g transform="translate(67.01,36.19)" id="img-c56e5f5e-81">
              <path d="M-1.24,-3.42 L1.24,-3.42 1.24,3.42 -1.24,3.42  z" class="primitive"/>
            </g>
            <g transform="translate(69.45,35.94)" id="img-c56e5f5e-82">
              <path d="M-1.24,-3.67 L1.24,-3.67 1.24,3.67 -1.24,3.67  z" class="primitive"/>
            </g>
            <g transform="translate(71.88,35.97)" id="img-c56e5f5e-83">
              <path d="M-1.24,-3.64 L1.24,-3.64 1.24,3.64 -1.24,3.64  z" class="primitive"/>
            </g>
            <g transform="translate(74.32,35.83)" id="img-c56e5f5e-84">
              <path d="M-1.24,-3.78 L1.24,-3.78 1.24,3.78 -1.24,3.78  z" class="primitive"/>
            </g>
            <g transform="translate(76.75,30.74)" id="img-c56e5f5e-85">
              <path d="M-1.24,-8.87 L1.24,-8.87 1.24,8.87 -1.24,8.87  z" class="primitive"/>
            </g>
            <g transform="translate(79.19,34.46)" id="img-c56e5f5e-86">
              <path d="M-1.24,-5.15 L1.24,-5.15 1.24,5.15 -1.24,5.15  z" class="primitive"/>
            </g>
            <g transform="translate(81.62,33.02)" id="img-c56e5f5e-87">
              <path d="M-1.24,-6.59 L1.24,-6.59 1.24,6.59 -1.24,6.59  z" class="primitive"/>
            </g>
            <g transform="translate(84.06,28.98)" id="img-c56e5f5e-88">
              <path d="M-1.24,-10.63 L1.24,-10.63 1.24,10.63 -1.24,10.63  z" class="primitive"/>
            </g>
            <g transform="translate(86.5,32.5)" id="img-c56e5f5e-89">
              <path d="M-1.24,-7.11 L1.24,-7.11 1.24,7.11 -1.24,7.11  z" class="primitive"/>
            </g>
            <g transform="translate(88.93,30.48)" id="img-c56e5f5e-90">
              <path d="M-1.24,-9.13 L1.24,-9.13 1.24,9.13 -1.24,9.13  z" class="primitive"/>
            </g>
            <g transform="translate(91.37,31.78)" id="img-c56e5f5e-91">
              <path d="M-1.24,-7.83 L1.24,-7.83 1.24,7.83 -1.24,7.83  z" class="primitive"/>
            </g>
            <g transform="translate(93.8,35.43)" id="img-c56e5f5e-92">
              <path d="M-1.24,-4.17 L1.24,-4.17 1.24,4.17 -1.24,4.17  z" class="primitive"/>
            </g>
            <g transform="translate(96.24,37.59)" id="img-c56e5f5e-93">
              <path d="M-1.24,-2.02 L1.24,-2.02 1.24,2.02 -1.24,2.02  z" class="primitive"/>
            </g>
            <g transform="translate(98.67,34.2)" id="img-c56e5f5e-94">
              <path d="M-1.24,-5.41 L1.24,-5.41 1.24,5.41 -1.24,5.41  z" class="primitive"/>
            </g>
            <g transform="translate(101.11,32.3)" id="img-c56e5f5e-95">
              <path d="M-1.24,-7.3 L1.24,-7.3 1.24,7.3 -1.24,7.3  z" class="primitive"/>
            </g>
            <g transform="translate(103.54,24.74)" id="img-c56e5f5e-96">
              <path d="M-1.24,-14.87 L1.24,-14.87 1.24,14.87 -1.24,14.87  z" class="primitive"/>
            </g>
            <g transform="translate(105.98,29.3)" id="img-c56e5f5e-97">
              <path d="M-1.24,-10.3 L1.24,-10.3 1.24,10.3 -1.24,10.3  z" class="primitive"/>
            </g>
            <g transform="translate(108.41,35.24)" id="img-c56e5f5e-98">
              <path d="M-1.24,-4.37 L1.24,-4.37 1.24,4.37 -1.24,4.37  z" class="primitive"/>
            </g>
            <g transform="translate(110.85,33.48)" id="img-c56e5f5e-99">
              <path d="M-1.24,-6.13 L1.24,-6.13 1.24,6.13 -1.24,6.13  z" class="primitive"/>
            </g>
            <g transform="translate(113.28,30.93)" id="img-c56e5f5e-100">
              <path d="M-1.24,-8.67 L1.24,-8.67 1.24,8.67 -1.24,8.67  z" class="primitive"/>
            </g>
            <g transform="translate(115.72,34.13)" id="img-c56e5f5e-101">
              <path d="M-1.24,-5.48 L1.24,-5.48 1.24,5.48 -1.24,5.48  z" class="primitive"/>
            </g>
            <g transform="translate(118.16,36.87)" id="img-c56e5f5e-102">
              <path d="M-1.24,-2.74 L1.24,-2.74 1.24,2.74 -1.24,2.74  z" class="primitive"/>
            </g>
            <g transform="translate(120.59,36.87)" id="img-c56e5f5e-103">
              <path d="M-1.24,-2.74 L1.24,-2.74 1.24,2.74 -1.24,2.74  z" class="primitive"/>
            </g>
            <g transform="translate(123.03,29.96)" id="img-c56e5f5e-104">
              <path d="M-1.24,-9.65 L1.24,-9.65 1.24,9.65 -1.24,9.65  z" class="primitive"/>
            </g>
            <g transform="translate(125.46,31.65)" id="img-c56e5f5e-105">
              <path d="M-1.24,-7.96 L1.24,-7.96 1.24,7.96 -1.24,7.96  z" class="primitive"/>
            </g>
            <g transform="translate(127.9,36.15)" id="img-c56e5f5e-106">
              <path d="M-1.24,-3.46 L1.24,-3.46 1.24,3.46 -1.24,3.46  z" class="primitive"/>
            </g>
            <g transform="translate(130.33,35.5)" id="img-c56e5f5e-107">
              <path d="M-1.24,-4.11 L1.24,-4.11 1.24,4.11 -1.24,4.11  z" class="primitive"/>
            </g>
            <g transform="translate(132.77,26.5)" id="img-c56e5f5e-108">
              <path d="M-1.24,-13.11 L1.24,-13.11 1.24,13.11 -1.24,13.11  z" class="primitive"/>
            </g>
            <g transform="translate(135.2,34.85)" id="img-c56e5f5e-109">
              <path d="M-1.24,-4.76 L1.24,-4.76 1.24,4.76 -1.24,4.76  z" class="primitive"/>
            </g>
          </g>
        </g>
        <g class="xfixed" id="img-c56e5f5e-110">
          <g stroke-dasharray="none" stroke-width="0.3" stroke="#FF0000" id="img-c56e5f5e-111">
            <g transform="translate(80.41,26.57)" id="img-c56e5f5e-112">
              <path fill="none" d="M-56.01,0 L56.01,0 " class="primitive"/>
            </g>
          </g>
        </g>
      </g>
    </g>
  </g>
  <g class="guide ylabels" font-size="2.82" font-family="'PT Sans Caption','Helvetica Neue','Helvetica',sans-serif" fill="#6C606B" id="img-c56e5f5e-113">
    <g transform="translate(23.39,39.61)" id="img-c56e5f5e-114">
      <g class="primitive">
        <text text-anchor="end" dy="0.35em">0.0%</text>
      </g>
    </g>
    <g transform="translate(23.39,33.09)" id="img-c56e5f5e-115">
      <g class="primitive">
        <text text-anchor="end" dy="0.35em">50.0%</text>
      </g>
    </g>
    <g transform="translate(23.39,26.57)" id="img-c56e5f5e-116">
      <g class="primitive">
        <text text-anchor="end" dy="0.35em">100.0%</text>
      </g>
    </g>
    <g transform="translate(23.39,20.04)" id="img-c56e5f5e-117">
      <g class="primitive">
        <text text-anchor="end" dy="0.35em">150.0%</text>
      </g>
    </g>
    <g transform="translate(23.39,13.52)" id="img-c56e5f5e-118">
      <g class="primitive">
        <text text-anchor="end" dy="0.35em">200.0%</text>
      </g>
    </g>
    <g transform="translate(23.39,7)" id="img-c56e5f5e-119">
      <g class="primitive">
        <text text-anchor="end" dy="0.35em">250.0%</text>
      </g>
    </g>
  </g>
  <g font-size="3.88" font-family="'PT Sans','Helvetica Neue','Helvetica',sans-serif" fill="#564A55" stroke="#000000" stroke-opacity="0.000" id="img-c56e5f5e-120">
    <g transform="translate(8.81,21.3)" id="img-c56e5f5e-121">
      <g class="primitive">
        <text text-anchor="middle" dy="0.35em" transform="rotate(-90,0, 2)">Kepadatan Rata-Rata</text>
      </g>
    </g>
  </g>
</g>
<defs>
  <clipPath id="img-c56e5f5e-4">
    <path d="M24.39,5 L136.42,5 136.42,41.61 24.39,41.61 " />
  </clipPath>
</defs>
</svg>
