<?xml version="1.0" encoding="UTF-8" standalone="no"?>
<!DOCTYPE svg PUBLIC "-//W3C//DTD SVG 1.1//EN"
 "http://www.w3.org/Graphics/SVG/1.1/DTD/svg11.dtd">
<!-- Generated by graphviz version 2.50.0 (0)
 -->
<!-- Title: base Pages: 1 -->
<svg width="269pt" height="131pt"
 viewBox="0.00 0.00 269.00 131.00" xmlns="http://www.w3.org/2000/svg" xmlns:xlink="http://www.w3.org/1999/xlink">
<g id="graph0" class="graph" transform="scale(1 1) rotate(0) translate(4 127)">
<title>base</title>
<polygon fill="white" stroke="transparent" points="-4,4 -4,-127 265,-127 265,4 -4,4"/>
<!-- jkt -->
<g id="node1" class="node">
<title>jkt</title>
<ellipse fill="none" stroke="black" cx="73" cy="-105" rx="27" ry="18"/>
<text text-anchor="middle" x="73" y="-101.3" font-family="Helvetica,sans-Serif" font-size="14.00">jkt</text>
</g>
<!-- yyk -->
<g id="node2" class="node">
<title>yyk</title>
<ellipse fill="none" stroke="black" cx="27" cy="-18" rx="27" ry="18"/>
<text text-anchor="middle" x="27" y="-14.3" font-family="Helvetica,sans-Serif" font-size="14.00">yyk</text>
</g>
<!-- jkt&#45;&gt;yyk -->
<g id="edge1" class="edge">
<title>jkt&#45;&gt;yyk</title>
<path fill="none" stroke="blue" d="M47.7,-98.08C32.46,-93.07 14.27,-84.19 5,-69 -0.19,-60.5 2.58,-50.56 7.65,-41.79"/>
<polygon fill="blue" stroke="blue" points="10.56,-43.75 13.28,-33.51 4.77,-39.82 10.56,-43.75"/>
<text text-anchor="middle" x="16.5" y="-57.8" font-family="Helvetica,sans-Serif" font-size="14.00" fill="blue">truk</text>
</g>
<!-- jkt&#45;&gt;yyk -->
<g id="edge2" class="edge">
<title>jkt&#45;&gt;yyk</title>
<path fill="none" stroke="red" d="M62.54,-88.2C58.75,-82.27 54.54,-75.41 51,-69 46.7,-61.21 42.38,-52.53 38.61,-44.61"/>
<polygon fill="red" stroke="red" points="41.73,-43.03 34.32,-35.45 35.39,-45.99 41.73,-43.03"/>
<text text-anchor="middle" x="62.5" y="-57.8" font-family="Helvetica,sans-Serif" font-size="14.00" fill="red">krta</text>
</g>
<!-- cbn -->
<g id="node3" class="node">
<title>cbn</title>
<ellipse fill="none" stroke="black" cx="142" cy="-18" rx="27" ry="18"/>
<text text-anchor="middle" x="142" y="-14.3" font-family="Helvetica,sans-Serif" font-size="14.00">cbn</text>
</g>
<!-- jkt&#45;&gt;cbn -->
<g id="edge3" class="edge">
<title>jkt&#45;&gt;cbn</title>
<path fill="none" stroke="blue" d="M78.82,-87.14C82.89,-76.88 89.02,-63.89 97,-54 101.95,-47.86 108.19,-42.14 114.43,-37.19"/>
<polygon fill="blue" stroke="blue" points="116.89,-39.72 122.81,-30.94 112.7,-34.11 116.89,-39.72"/>
<text text-anchor="middle" x="108.5" y="-57.8" font-family="Helvetica,sans-Serif" font-size="14.00" fill="blue">truk</text>
</g>
<!-- cbn&#45;&gt;jkt -->
<g id="edge4" class="edge">
<title>cbn&#45;&gt;jkt</title>
<path fill="none" stroke="blue" d="M137.01,-35.94C133.4,-46.22 127.8,-59.21 120,-69 114.74,-75.6 107.95,-81.6 101.18,-86.7"/>
<polygon fill="blue" stroke="blue" points="98.9,-84.02 92.73,-92.64 102.92,-89.75 98.9,-84.02"/>
<text text-anchor="middle" x="139.5" y="-57.8" font-family="Helvetica,sans-Serif" font-size="14.00" fill="blue">truk</text>
</g>
<!-- bdg -->
<g id="node4" class="node">
<title>bdg</title>
<ellipse fill="none" stroke="black" cx="211" cy="-105" rx="27" ry="18"/>
<text text-anchor="middle" x="211" y="-101.3" font-family="Helvetica,sans-Serif" font-size="14.00">bdg</text>
</g>
<!-- bdg&#45;&gt;cbn -->
<g id="edge6" class="edge">
<title>bdg&#45;&gt;cbn</title>
<path fill="none" stroke="blue" d="M198.66,-88.8C188.07,-75.75 172.63,-56.74 160.55,-41.85"/>
<polygon fill="blue" stroke="blue" points="163.25,-39.62 154.23,-34.06 157.81,-44.03 163.25,-39.62"/>
<text text-anchor="middle" x="191.5" y="-57.8" font-family="Helvetica,sans-Serif" font-size="14.00" fill="blue">truk</text>
</g>
<!-- sby -->
<g id="node5" class="node">
<title>sby</title>
<ellipse fill="none" stroke="black" cx="234" cy="-18" rx="27" ry="18"/>
<text text-anchor="middle" x="234" y="-14.3" font-family="Helvetica,sans-Serif" font-size="14.00">sby</text>
</g>
<!-- bdg&#45;&gt;sby -->
<g id="edge5" class="edge">
<title>bdg&#45;&gt;sby</title>
<path fill="none" stroke="red" d="M215.54,-87.21C218.76,-75.33 223.13,-59.17 226.81,-45.56"/>
<polygon fill="red" stroke="red" points="230.23,-46.33 229.47,-35.76 223.47,-44.5 230.23,-46.33"/>
<text text-anchor="middle" x="234.5" y="-57.8" font-family="Helvetica,sans-Serif" font-size="14.00" fill="red">krta</text>
</g>
</g>
</svg>
