<?xml version="1.0" encoding="UTF-8"?>
<svg xmlns="http://www.w3.org/2000/svg"
     xmlns:xlink="http://www.w3.org/1999/xlink"
     xmlns:gadfly="http://www.gadflyjl.org/ns"
     version="1.2"
     width="141.42mm" height="100mm" viewBox="0 0 141.42 100"
     stroke="none"
     fill="#000000"
     stroke-width="0.3"
     font-size="3.88"
>
<defs>
  <marker id="arrow" markerWidth="15" markerHeight="7" refX="5" refY="3.5" orient="auto" markerUnits="strokeWidth">
    <path d="M0,0 L15,3.5 L0,7 z" stroke="context-stroke" fill="context-stroke"/>
  </marker>
</defs>
<g class="plotroot xscalable yscalable" id="img-4d9fc219-1">
  <g font-size="3.88" font-family="'PT Sans','Helvetica Neue','Helvetica',sans-serif" fill="#564A55" stroke="#000000" stroke-opacity="0.000" id="img-4d9fc219-2">
    <g transform="translate(78.03,88.39)">
      <g class="primitive">
        <text text-anchor="middle" dy="0.6em">Utilisasi Trayek</text>
      </g>
    </g>
  </g>
  <g class="guide xlabels" font-size="2.82" font-family="'PT Sans Caption','Helvetica Neue','Helvetica',sans-serif" fill="#6C606B" id="img-4d9fc219-3">
    <g transform="translate(21.63,81.72)">
      <g class="primitive">
        <text text-anchor="middle" dy="0.6em">0.0%</text>
      </g>
    </g>
    <g transform="translate(78.03,81.72)">
      <g class="primitive">
        <text text-anchor="middle" dy="0.6em">50.0%</text>
      </g>
    </g>
    <g transform="translate(134.42,81.72)">
      <g class="primitive">
        <text text-anchor="middle" dy="0.6em">100.0%</text>
      </g>
    </g>
  </g>
  <g clip-path="url(#img-4d9fc219-4)">
    <g id="img-4d9fc219-5">
      <g pointer-events="visible" stroke-width="0.3" fill="#000000" fill-opacity="0.000" stroke="#000000" stroke-opacity="0.000" class="guide background" id="img-4d9fc219-6">
        <g transform="translate(78.03,42.86)" id="img-4d9fc219-7">
          <path d="M-58.39,-37.86 L58.39,-37.86 58.39,37.86 -58.39,37.86  z" class="primitive"/>
        </g>
      </g>
      <g class="guide ygridlines xfixed" stroke-dasharray="0.5,0.5" stroke-width="0.2" stroke="#D0D0E0" id="img-4d9fc219-8">
        <g transform="translate(78.03,78.71)" id="img-4d9fc219-9">
          <path fill="none" d="M-58.39,0 L58.39,0 " class="primitive"/>
        </g>
        <g transform="translate(78.03,60.79)" id="img-4d9fc219-10">
          <path fill="none" d="M-58.39,0 L58.39,0 " class="primitive"/>
        </g>
        <g transform="translate(78.03,42.86)" id="img-4d9fc219-11">
          <path fill="none" d="M-58.39,0 L58.39,0 " class="primitive"/>
        </g>
        <g transform="translate(78.03,24.93)" id="img-4d9fc219-12">
          <path fill="none" d="M-58.39,0 L58.39,0 " class="primitive"/>
        </g>
        <g transform="translate(78.03,7)" id="img-4d9fc219-13">
          <path fill="none" d="M-58.39,0 L58.39,0 " class="primitive"/>
        </g>
      </g>
      <g class="guide xgridlines yfixed" stroke-dasharray="0.5,0.5" stroke-width="0.2" stroke="#D0D0E0" id="img-4d9fc219-14">
        <g transform="translate(21.63,42.86)" id="img-4d9fc219-15">
          <path fill="none" d="M0,-37.86 L0,37.86 " class="primitive"/>
        </g>
        <g transform="translate(78.03,42.86)" id="img-4d9fc219-16">
          <path fill="none" d="M0,-37.86 L0,37.86 " class="primitive"/>
        </g>
        <g transform="translate(134.42,42.86)" id="img-4d9fc219-17">
          <path fill="none" d="M0,-37.86 L0,37.86 " class="primitive"/>
        </g>
      </g>
      <g class="plotpanel" id="img-4d9fc219-18">
        <metadata>
          <boundingbox value="19.63166666666666mm 5.0mm 116.78968957064285mm 75.715mm"/>
          <unitbox value="-0.017732117249488064 205.57763368890747 1.0354642344989762 -211.155267377815"/>
        </metadata>
        <g shape-rendering="crispEdges" stroke-width="0.3" id="img-4d9fc219-19">
          <g class="geometry" fill-opacity="1" stroke="#000000" stroke-opacity="0.000" fill="#00BFFF" id="img-4d9fc219-20">
            <g transform="translate(27.27,71.18)" id="img-4d9fc219-21">
              <path d="M-5.66,-7.53 L5.66,-7.53 5.66,7.53 -5.66,7.53  z" class="primitive"/>
            </g>
            <g transform="translate(38.55,73.69)" id="img-4d9fc219-22">
              <path d="M-5.66,-5.02 L5.66,-5.02 5.66,5.02 -5.66,5.02  z" class="primitive"/>
            </g>
            <g transform="translate(49.83,75.13)" id="img-4d9fc219-23">
              <path d="M-5.66,-3.59 L5.66,-3.59 5.66,3.59 -5.66,3.59  z" class="primitive"/>
            </g>
            <g transform="translate(61.11,70.29)" id="img-4d9fc219-24">
              <path d="M-5.66,-8.43 L5.66,-8.43 5.66,8.43 -5.66,8.43  z" class="primitive"/>
            </g>
            <g transform="translate(72.39,77.28)" id="img-4d9fc219-25">
              <path d="M-5.66,-1.43 L5.66,-1.43 5.66,1.43 -5.66,1.43  z" class="primitive"/>
            </g>
            <g transform="translate(83.67,72.98)" id="img-4d9fc219-26">
              <path d="M-5.66,-5.74 L5.66,-5.74 5.66,5.74 -5.66,5.74  z" class="primitive"/>
            </g>
            <g transform="translate(94.94,72.8)" id="img-4d9fc219-27">
              <path d="M-5.66,-5.92 L5.66,-5.92 5.66,5.92 -5.66,5.92  z" class="primitive"/>
            </g>
            <g transform="translate(106.22,54.51)" id="img-4d9fc219-28">
              <path d="M-5.66,-24.2 L5.66,-24.2 5.66,24.2 -5.66,24.2  z" class="primitive"/>
            </g>
            <g transform="translate(117.5,69.75)" id="img-4d9fc219-29">
              <path d="M-5.66,-8.96 L5.66,-8.96 5.66,8.96 -5.66,8.96  z" class="primitive"/>
            </g>
            <g transform="translate(128.78,46.98)" id="img-4d9fc219-30">
              <path d="M-5.66,-31.73 L5.66,-31.73 5.66,31.73 -5.66,31.73  z" class="primitive"/>
            </g>
          </g>
        </g>
      </g>
    </g>
  </g>
  <g class="guide ylabels" font-size="2.82" font-family="'PT Sans Caption','Helvetica Neue','Helvetica',sans-serif" fill="#6C606B" id="img-4d9fc219-31">
    <g transform="translate(18.63,78.71)" id="img-4d9fc219-32">
      <g class="primitive">
        <text text-anchor="end" dy="0.35em">0</text>
      </g>
    </g>
    <g transform="translate(18.63,60.79)" id="img-4d9fc219-33">
      <g class="primitive">
        <text text-anchor="end" dy="0.35em">50</text>
      </g>
    </g>
    <g transform="translate(18.63,42.86)" id="img-4d9fc219-34">
      <g class="primitive">
        <text text-anchor="end" dy="0.35em">100</text>
      </g>
    </g>
    <g transform="translate(18.63,24.93)" id="img-4d9fc219-35">
      <g class="primitive">
        <text text-anchor="end" dy="0.35em">150</text>
      </g>
    </g>
    <g transform="translate(18.63,7)" id="img-4d9fc219-36">
      <g class="primitive">
        <text text-anchor="end" dy="0.35em">200</text>
      </g>
    </g>
  </g>
  <g font-size="3.88" font-family="'PT Sans','Helvetica Neue','Helvetica',sans-serif" fill="#564A55" stroke="#000000" stroke-opacity="0.000" id="img-4d9fc219-37">
    <g transform="translate(8.81,40.86)" id="img-4d9fc219-38">
      <g class="primitive">
        <text text-anchor="middle" dy="0.35em" transform="rotate(-90,0, 2)">Jumlah Trayek dengan Utilisasi x</text>
      </g>
    </g>
  </g>
</g>
<defs>
  <clipPath id="img-4d9fc219-4">
    <path d="M19.63,5 L136.42,5 136.42,80.72 19.63,80.72 " />
  </clipPath>
</defs>
</svg>
