<?xml version="1.0" encoding="UTF-8" standalone="no"?>
<!DOCTYPE svg PUBLIC "-//W3C//DTD SVG 1.1//EN"
 "http://www.w3.org/Graphics/SVG/1.1/DTD/svg11.dtd">
<!-- Generated by graphviz version 2.50.0 (0)
 -->
<!-- Title: complete Pages: 1 -->
<svg width="727pt" height="282pt"
 viewBox="0.00 0.00 726.60 281.58" xmlns="http://www.w3.org/2000/svg" xmlns:xlink="http://www.w3.org/1999/xlink">
<g id="graph0" class="graph" transform="scale(1 1) rotate(0) translate(4 277.58)">
<title>complete</title>
<polygon fill="white" stroke="transparent" points="-4,4 -4,-277.58 722.6,-277.58 722.6,4 -4,4"/>
<!-- (8,2) -->
<g id="node1" class="node">
<title>(8,2)</title>
<ellipse fill="none" stroke="black" cx="133.6" cy="-28.6" rx="28.7" ry="28.7"/>
<text text-anchor="middle" x="133.6" y="-24.9" font-family="Helvetica,sans-Serif" font-size="14.00">(8,2)</text>
</g>
<!-- (7,1) -->
<g id="node2" class="node">
<title>(7,1)</title>
<ellipse fill="none" stroke="black" cx="233.6" cy="-136.79" rx="28.7" ry="28.7"/>
<text text-anchor="middle" x="233.6" y="-133.09" font-family="Helvetica,sans-Serif" font-size="14.00">(7,1)</text>
</g>
<!-- (7,2) -->
<g id="node11" class="node">
<title>(7,2)</title>
<ellipse fill="none" stroke="black" cx="233.6" cy="-28.6" rx="28.7" ry="28.7"/>
<text text-anchor="middle" x="233.6" y="-24.9" font-family="Helvetica,sans-Serif" font-size="14.00">(7,2)</text>
</g>
<!-- (7,1)&#45;&gt;(7,2) -->
<g id="edge1" class="edge">
<title>(7,1)&#45;&gt;(7,2)</title>
<path fill="none" stroke="black" d="M233.6,-108.17C233.6,-95.85 233.6,-81.14 233.6,-67.79"/>
<polygon fill="black" stroke="black" points="237.1,-67.45 233.6,-57.45 230.1,-67.45 237.1,-67.45"/>
<text text-anchor="middle" x="254.6" y="-78.99" font-family="Helvetica,sans-Serif" font-size="14.00">489.99</text>
</g>
<!-- (1,2) -->
<g id="node3" class="node">
<title>(1,2)</title>
<ellipse fill="none" stroke="black" cx="308.6" cy="-28.6" rx="28.7" ry="28.7"/>
<text text-anchor="middle" x="308.6" y="-24.9" font-family="Helvetica,sans-Serif" font-size="14.00">(1,2)</text>
</g>
<!-- (4,1) -->
<g id="node4" class="node">
<title>(4,1)</title>
<ellipse fill="none" stroke="black" cx="28.6" cy="-136.79" rx="28.7" ry="28.7"/>
<text text-anchor="middle" x="28.6" y="-133.09" font-family="Helvetica,sans-Serif" font-size="14.00">(4,1)</text>
</g>
<!-- (4,2) -->
<g id="node10" class="node">
<title>(4,2)</title>
<ellipse fill="none" stroke="black" cx="28.6" cy="-28.6" rx="28.7" ry="28.7"/>
<text text-anchor="middle" x="28.6" y="-24.9" font-family="Helvetica,sans-Serif" font-size="14.00">(4,2)</text>
</g>
<!-- (4,1)&#45;&gt;(4,2) -->
<g id="edge2" class="edge">
<title>(4,1)&#45;&gt;(4,2)</title>
<path fill="none" stroke="black" d="M28.6,-108.17C28.6,-95.85 28.6,-81.14 28.6,-67.79"/>
<polygon fill="black" stroke="black" points="32.1,-67.45 28.6,-57.45 25.1,-67.45 32.1,-67.45"/>
<text text-anchor="middle" x="57.1" y="-78.99" font-family="Helvetica,sans-Serif" font-size="14.00">11573.05</text>
</g>
<!-- (2,1) -->
<g id="node5" class="node">
<title>(2,1)</title>
<ellipse fill="none" stroke="black" cx="383.6" cy="-136.79" rx="28.7" ry="28.7"/>
<text text-anchor="middle" x="383.6" y="-133.09" font-family="Helvetica,sans-Serif" font-size="14.00">(2,1)</text>
</g>
<!-- (2,2) -->
<g id="node24" class="node">
<title>(2,2)</title>
<ellipse fill="none" stroke="black" cx="383.6" cy="-28.6" rx="28.7" ry="28.7"/>
<text text-anchor="middle" x="383.6" y="-24.9" font-family="Helvetica,sans-Serif" font-size="14.00">(2,2)</text>
</g>
<!-- (2,1)&#45;&gt;(2,2) -->
<g id="edge3" class="edge">
<title>(2,1)&#45;&gt;(2,2)</title>
<path fill="none" stroke="black" d="M383.6,-108.17C383.6,-95.85 383.6,-81.14 383.6,-67.79"/>
<polygon fill="black" stroke="black" points="387.1,-67.45 383.6,-57.45 380.1,-67.45 387.1,-67.45"/>
<text text-anchor="middle" x="404.6" y="-78.99" font-family="Helvetica,sans-Serif" font-size="14.00">552.63</text>
</g>
<!-- (6,2) -->
<g id="node6" class="node">
<title>(6,2)</title>
<ellipse fill="none" stroke="black" cx="574.6" cy="-28.6" rx="28.7" ry="28.7"/>
<text text-anchor="middle" x="574.6" y="-24.9" font-family="Helvetica,sans-Serif" font-size="14.00">(6,2)</text>
</g>
<!-- (4,0) -->
<g id="node7" class="node">
<title>(4,0)</title>
<ellipse fill="none" stroke="black" cx="55.6" cy="-244.99" rx="28.7" ry="28.7"/>
<text text-anchor="middle" x="55.6" y="-241.29" font-family="Helvetica,sans-Serif" font-size="14.00">(4,0)</text>
</g>
<!-- (4,0)&#45;&gt;(4,1) -->
<g id="edge5" class="edge">
<title>(4,0)&#45;&gt;(4,1)</title>
<path fill="none" stroke="black" d="M39.44,-220.84C35.45,-213.93 31.72,-206.12 29.6,-198.39 27.61,-191.13 26.65,-183.2 26.31,-175.54"/>
<polygon fill="black" stroke="black" points="29.81,-175.3 26.18,-165.35 22.81,-175.39 29.81,-175.3"/>
<text text-anchor="middle" x="58.1" y="-187.19" font-family="Helvetica,sans-Serif" font-size="14.00">11350.88</text>
</g>
<!-- (8,1) -->
<g id="node9" class="node">
<title>(8,1)</title>
<ellipse fill="none" stroke="black" cx="133.6" cy="-136.79" rx="28.7" ry="28.7"/>
<text text-anchor="middle" x="133.6" y="-133.09" font-family="Helvetica,sans-Serif" font-size="14.00">(8,1)</text>
</g>
<!-- (4,0)&#45;&gt;(8,1) -->
<g id="edge4" class="edge">
<title>(4,0)&#45;&gt;(8,1)</title>
<path fill="none" stroke="black" d="M72.14,-221.47C83.41,-206.12 98.48,-185.6 110.88,-168.73"/>
<polygon fill="black" stroke="black" points="113.98,-170.41 117.08,-160.28 108.34,-166.27 113.98,-170.41"/>
<text text-anchor="middle" x="113.1" y="-187.19" font-family="Helvetica,sans-Serif" font-size="14.00">2.72</text>
</g>
<!-- (1,0) -->
<g id="node8" class="node">
<title>(1,0)</title>
<ellipse fill="none" stroke="black" cx="308.6" cy="-244.99" rx="28.7" ry="28.7"/>
<text text-anchor="middle" x="308.6" y="-241.29" font-family="Helvetica,sans-Serif" font-size="14.00">(1,0)</text>
</g>
<!-- (1,1) -->
<g id="node22" class="node">
<title>(1,1)</title>
<ellipse fill="none" stroke="black" cx="308.6" cy="-136.79" rx="28.7" ry="28.7"/>
<text text-anchor="middle" x="308.6" y="-133.09" font-family="Helvetica,sans-Serif" font-size="14.00">(1,1)</text>
</g>
<!-- (1,0)&#45;&gt;(1,1) -->
<g id="edge6" class="edge">
<title>(1,0)&#45;&gt;(1,1)</title>
<path fill="none" stroke="black" d="M308.6,-216.36C308.6,-204.05 308.6,-189.33 308.6,-175.99"/>
<polygon fill="black" stroke="black" points="312.1,-175.65 308.6,-165.65 305.1,-175.65 312.1,-175.65"/>
<text text-anchor="middle" x="329.6" y="-187.19" font-family="Helvetica,sans-Serif" font-size="14.00">2517.6</text>
</g>
<!-- (8,1)&#45;&gt;(8,2) -->
<g id="edge7" class="edge">
<title>(8,1)&#45;&gt;(8,2)</title>
<path fill="none" stroke="black" d="M133.6,-108.17C133.6,-95.85 133.6,-81.14 133.6,-67.79"/>
<polygon fill="black" stroke="black" points="137.1,-67.45 133.6,-57.45 130.1,-67.45 137.1,-67.45"/>
<text text-anchor="middle" x="154.6" y="-78.99" font-family="Helvetica,sans-Serif" font-size="14.00">783.95</text>
</g>
<!-- (5,2) -->
<g id="node12" class="node">
<title>(5,2)</title>
<ellipse fill="none" stroke="black" cx="676.6" cy="-28.6" rx="28.7" ry="28.7"/>
<text text-anchor="middle" x="676.6" y="-24.9" font-family="Helvetica,sans-Serif" font-size="14.00">(5,2)</text>
</g>
<!-- (6,1) -->
<g id="node13" class="node">
<title>(6,1)</title>
<ellipse fill="none" stroke="black" cx="574.6" cy="-136.79" rx="28.7" ry="28.7"/>
<text text-anchor="middle" x="574.6" y="-133.09" font-family="Helvetica,sans-Serif" font-size="14.00">(6,1)</text>
</g>
<!-- (6,1)&#45;&gt;(6,2) -->
<g id="edge8" class="edge">
<title>(6,1)&#45;&gt;(6,2)</title>
<path fill="none" stroke="black" d="M574.6,-108.17C574.6,-95.85 574.6,-81.14 574.6,-67.79"/>
<polygon fill="black" stroke="black" points="578.1,-67.45 574.6,-57.45 571.1,-67.45 578.1,-67.45"/>
<text text-anchor="middle" x="599.1" y="-78.99" font-family="Helvetica,sans-Serif" font-size="14.00">2059.48</text>
</g>
<!-- (3,1) -->
<g id="node14" class="node">
<title>(3,1)</title>
<ellipse fill="none" stroke="black" cx="471.6" cy="-136.79" rx="28.7" ry="28.7"/>
<text text-anchor="middle" x="471.6" y="-133.09" font-family="Helvetica,sans-Serif" font-size="14.00">(3,1)</text>
</g>
<!-- (3,2) -->
<g id="node17" class="node">
<title>(3,2)</title>
<ellipse fill="none" stroke="black" cx="471.6" cy="-28.6" rx="28.7" ry="28.7"/>
<text text-anchor="middle" x="471.6" y="-24.9" font-family="Helvetica,sans-Serif" font-size="14.00">(3,2)</text>
</g>
<!-- (3,1)&#45;&gt;(3,2) -->
<g id="edge9" class="edge">
<title>(3,1)&#45;&gt;(3,2)</title>
<path fill="none" stroke="black" d="M471.6,-108.17C471.6,-95.85 471.6,-81.14 471.6,-67.79"/>
<polygon fill="black" stroke="black" points="475.1,-67.45 471.6,-57.45 468.1,-67.45 475.1,-67.45"/>
<text text-anchor="middle" x="488.6" y="-78.99" font-family="Helvetica,sans-Serif" font-size="14.00">711.0</text>
</g>
<!-- (5,0) -->
<g id="node15" class="node">
<title>(5,0)</title>
<ellipse fill="none" stroke="black" cx="676.6" cy="-244.99" rx="28.7" ry="28.7"/>
<text text-anchor="middle" x="676.6" y="-241.29" font-family="Helvetica,sans-Serif" font-size="14.00">(5,0)</text>
</g>
<!-- (5,1) -->
<g id="node23" class="node">
<title>(5,1)</title>
<ellipse fill="none" stroke="black" cx="676.6" cy="-136.79" rx="28.7" ry="28.7"/>
<text text-anchor="middle" x="676.6" y="-133.09" font-family="Helvetica,sans-Serif" font-size="14.00">(5,1)</text>
</g>
<!-- (5,0)&#45;&gt;(5,1) -->
<g id="edge10" class="edge">
<title>(5,0)&#45;&gt;(5,1)</title>
<path fill="none" stroke="black" d="M676.6,-216.36C676.6,-204.05 676.6,-189.33 676.6,-175.99"/>
<polygon fill="black" stroke="black" points="680.1,-175.65 676.6,-165.65 673.1,-175.65 680.1,-175.65"/>
<text text-anchor="middle" x="693.6" y="-187.19" font-family="Helvetica,sans-Serif" font-size="14.00">874.4</text>
</g>
<!-- (3,0) -->
<g id="node16" class="node">
<title>(3,0)</title>
<ellipse fill="none" stroke="black" cx="485.6" cy="-244.99" rx="28.7" ry="28.7"/>
<text text-anchor="middle" x="485.6" y="-241.29" font-family="Helvetica,sans-Serif" font-size="14.00">(3,0)</text>
</g>
<!-- (3,0)&#45;&gt;(6,1) -->
<g id="edge12" class="edge">
<title>(3,0)&#45;&gt;(6,1)</title>
<path fill="none" stroke="black" d="M503.61,-222.5C517,-206.52 535.42,-184.54 550.14,-166.97"/>
<polygon fill="black" stroke="black" points="552.87,-169.16 556.61,-159.25 547.51,-164.67 552.87,-169.16"/>
<text text-anchor="middle" x="555.6" y="-187.19" font-family="Helvetica,sans-Serif" font-size="14.00">225.37</text>
</g>
<!-- (3,0)&#45;&gt;(3,1) -->
<g id="edge11" class="edge">
<title>(3,0)&#45;&gt;(3,1)</title>
<path fill="none" stroke="black" d="M476.85,-217.72C475.11,-211.46 473.54,-204.74 472.6,-198.39 471.52,-191.09 470.95,-183.24 470.7,-175.7"/>
<polygon fill="black" stroke="black" points="474.2,-175.61 470.54,-165.67 467.2,-175.73 474.2,-175.61"/>
<text text-anchor="middle" x="493.6" y="-187.19" font-family="Helvetica,sans-Serif" font-size="14.00">343.43</text>
</g>
<!-- (7,0) -->
<g id="node18" class="node">
<title>(7,0)</title>
<ellipse fill="none" stroke="black" cx="233.6" cy="-244.99" rx="28.7" ry="28.7"/>
<text text-anchor="middle" x="233.6" y="-241.29" font-family="Helvetica,sans-Serif" font-size="14.00">(7,0)</text>
</g>
<!-- (7,0)&#45;&gt;(7,1) -->
<g id="edge13" class="edge">
<title>(7,0)&#45;&gt;(7,1)</title>
<path fill="none" stroke="black" d="M233.6,-216.36C233.6,-204.05 233.6,-189.33 233.6,-175.99"/>
<polygon fill="black" stroke="black" points="237.1,-175.65 233.6,-165.65 230.1,-175.65 237.1,-175.65"/>
<text text-anchor="middle" x="250.6" y="-187.19" font-family="Helvetica,sans-Serif" font-size="14.00">517.6</text>
</g>
<!-- (8,0) -->
<g id="node19" class="node">
<title>(8,0)</title>
<ellipse fill="none" stroke="black" cx="158.6" cy="-244.99" rx="28.7" ry="28.7"/>
<text text-anchor="middle" x="158.6" y="-241.29" font-family="Helvetica,sans-Serif" font-size="14.00">(8,0)</text>
</g>
<!-- (8,0)&#45;&gt;(8,1) -->
<g id="edge14" class="edge">
<title>(8,0)&#45;&gt;(8,1)</title>
<path fill="none" stroke="black" d="M152.22,-216.92C149.2,-204.06 145.53,-188.5 142.26,-174.59"/>
<polygon fill="black" stroke="black" points="145.66,-173.75 139.96,-164.82 138.84,-175.35 145.66,-173.75"/>
<text text-anchor="middle" x="164.6" y="-187.19" font-family="Helvetica,sans-Serif" font-size="14.00">446.7</text>
</g>
<!-- (6,0) -->
<g id="node20" class="node">
<title>(6,0)</title>
<ellipse fill="none" stroke="black" cx="601.6" cy="-244.99" rx="28.7" ry="28.7"/>
<text text-anchor="middle" x="601.6" y="-241.29" font-family="Helvetica,sans-Serif" font-size="14.00">(6,0)</text>
</g>
<!-- (6,0)&#45;&gt;(6,1) -->
<g id="edge15" class="edge">
<title>(6,0)&#45;&gt;(6,1)</title>
<path fill="none" stroke="black" d="M594.78,-217.19C591.49,-204.24 587.49,-188.49 583.92,-174.44"/>
<polygon fill="black" stroke="black" points="587.26,-173.41 581.41,-164.58 580.48,-175.14 587.26,-173.41"/>
<text text-anchor="middle" x="610.6" y="-187.19" font-family="Helvetica,sans-Serif" font-size="14.00">2183.2</text>
</g>
<!-- (2,0) -->
<g id="node21" class="node">
<title>(2,0)</title>
<ellipse fill="none" stroke="black" cx="383.6" cy="-244.99" rx="28.7" ry="28.7"/>
<text text-anchor="middle" x="383.6" y="-241.29" font-family="Helvetica,sans-Serif" font-size="14.00">(2,0)</text>
</g>
<!-- (2,0)&#45;&gt;(2,1) -->
<g id="edge16" class="edge">
<title>(2,0)&#45;&gt;(2,1)</title>
<path fill="none" stroke="black" d="M383.6,-216.36C383.6,-204.05 383.6,-189.33 383.6,-175.99"/>
<polygon fill="black" stroke="black" points="387.1,-175.65 383.6,-165.65 380.1,-175.65 387.1,-175.65"/>
<text text-anchor="middle" x="400.6" y="-187.19" font-family="Helvetica,sans-Serif" font-size="14.00">546.4</text>
</g>
<!-- (1,1)&#45;&gt;(1,2) -->
<g id="edge17" class="edge">
<title>(1,1)&#45;&gt;(1,2)</title>
<path fill="none" stroke="black" d="M308.6,-108.17C308.6,-95.85 308.6,-81.14 308.6,-67.79"/>
<polygon fill="black" stroke="black" points="312.1,-67.45 308.6,-57.45 305.1,-67.45 312.1,-67.45"/>
<text text-anchor="middle" x="333.1" y="-78.99" font-family="Helvetica,sans-Serif" font-size="14.00">2251.17</text>
</g>
<!-- (5,1)&#45;&gt;(5,2) -->
<g id="edge18" class="edge">
<title>(5,1)&#45;&gt;(5,2)</title>
<path fill="none" stroke="black" d="M676.6,-108.17C676.6,-95.85 676.6,-81.14 676.6,-67.79"/>
<polygon fill="black" stroke="black" points="680.1,-67.45 676.6,-57.45 673.1,-67.45 680.1,-67.45"/>
<text text-anchor="middle" x="697.6" y="-78.99" font-family="Helvetica,sans-Serif" font-size="14.00">988.75</text>
</g>
</g>
</svg>
