<?xml version="1.0" encoding="UTF-8" standalone="no"?>
<!DOCTYPE svg PUBLIC "-//W3C//DTD SVG 1.1//EN"
 "http://www.w3.org/Graphics/SVG/1.1/DTD/svg11.dtd">
<!-- Generated by graphviz version 2.50.0 (0)
 -->
<!-- Title: solution Pages: 1 -->
<svg width="140pt" height="158pt"
 viewBox="0.00 0.00 140.19 158.39" xmlns="http://www.w3.org/2000/svg" xmlns:xlink="http://www.w3.org/1999/xlink">
<g id="graph0" class="graph" transform="scale(1 1) rotate(0) translate(4 154.39)">
<title>solution</title>
<polygon fill="white" stroke="transparent" points="-4,4 -4,-154.39 136.19,-154.39 136.19,4 -4,4"/>
<!-- (8,1) -->
<g id="node1" class="node">
<title>(8,1)</title>
<ellipse fill="none" stroke="black" cx="28.6" cy="-28.6" rx="28.7" ry="28.7"/>
<text text-anchor="middle" x="28.6" y="-24.9" font-family="Helvetica,sans-Serif" font-size="14.00">(8,1)</text>
</g>
<!-- (4,0) -->
<g id="node2" class="node">
<title>(4,0)</title>
<ellipse fill="none" stroke="black" cx="28.6" cy="-121.79" rx="28.7" ry="28.7"/>
<text text-anchor="middle" x="28.6" y="-118.09" font-family="Helvetica,sans-Serif" font-size="14.00">(4,0)</text>
</g>
<!-- (4,0)&#45;&gt;(8,1) -->
<g id="edge1" class="edge">
<title>(4,0)&#45;&gt;(8,1)</title>
<path fill="none" stroke="black" d="M28.6,-92.94C28.6,-84.89 28.6,-75.98 28.6,-67.43"/>
<polygon fill="black" stroke="black" points="32.1,-67.28 28.6,-57.28 25.1,-67.28 32.1,-67.28"/>
</g>
<!-- (3,0) -->
<g id="node3" class="node">
<title>(3,0)</title>
<ellipse fill="none" stroke="black" cx="103.6" cy="-121.79" rx="28.7" ry="28.7"/>
<text text-anchor="middle" x="103.6" y="-118.09" font-family="Helvetica,sans-Serif" font-size="14.00">(3,0)</text>
</g>
<!-- (6,1) -->
<g id="node4" class="node">
<title>(6,1)</title>
<ellipse fill="none" stroke="black" cx="103.6" cy="-28.6" rx="28.7" ry="28.7"/>
<text text-anchor="middle" x="103.6" y="-24.9" font-family="Helvetica,sans-Serif" font-size="14.00">(6,1)</text>
</g>
<!-- (3,0)&#45;&gt;(6,1) -->
<g id="edge2" class="edge">
<title>(3,0)&#45;&gt;(6,1)</title>
<path fill="none" stroke="black" d="M103.6,-92.94C103.6,-84.89 103.6,-75.98 103.6,-67.43"/>
<polygon fill="black" stroke="black" points="107.1,-67.28 103.6,-57.28 100.1,-67.28 107.1,-67.28"/>
</g>
</g>
</svg>
