<?xml version="1.0" encoding="UTF-8" standalone="no"?>
<!DOCTYPE svg PUBLIC "-//W3C//DTD SVG 1.1//EN"
 "http://www.w3.org/Graphics/SVG/1.1/DTD/svg11.dtd">
<!-- Generated by graphviz version 2.50.0 (0)
 -->
<!-- Title: trayek Pages: 1 -->
<svg width="484pt" height="479pt"
 viewBox="0.00 0.00 484.00 479.00" xmlns="http://www.w3.org/2000/svg" xmlns:xlink="http://www.w3.org/1999/xlink">
<g id="graph0" class="graph" transform="scale(1 1) rotate(0) translate(4 475)">
<title>trayek</title>
<polygon fill="white" stroke="transparent" points="-4,4 -4,-475 480,-475 480,4 -4,4"/>
<!-- 3 -->
<g id="node1" class="node">
<title>3</title>
<ellipse fill="none" stroke="black" cx="257" cy="-279" rx="18" ry="18"/>
<text text-anchor="middle" x="257" y="-275.3" font-family="Helvetica,sans-Serif" font-size="14.00">3</text>
</g>
<!-- 4 -->
<g id="node2" class="node">
<title>4</title>
<ellipse fill="none" stroke="black" cx="362" cy="-192" rx="18" ry="18"/>
<text text-anchor="middle" x="362" y="-188.3" font-family="Helvetica,sans-Serif" font-size="14.00">4</text>
</g>
<!-- 3&#45;&#45;4 -->
<g id="edge1" class="edge">
<title>3&#45;&#45;4</title>
<path fill="none" stroke="blue" d="M270.73,-266.89C290.85,-250.6 328.14,-220.41 348.27,-204.11"/>
<text text-anchor="middle" x="333.5" y="-231.8" font-family="Helvetica,sans-Serif" font-size="14.00" fill="blue">TRUK</text>
</g>
<!-- 6 -->
<g id="node6" class="node">
<title>6</title>
<ellipse fill="none" stroke="black" cx="225" cy="-192" rx="18" ry="18"/>
<text text-anchor="middle" x="225" y="-188.3" font-family="Helvetica,sans-Serif" font-size="14.00">6</text>
</g>
<!-- 3&#45;&#45;6 -->
<g id="edge2" class="edge">
<title>3&#45;&#45;6</title>
<path fill="none" stroke="red" d="M241.86,-269.04C233.11,-262.93 222.89,-253.97 218,-243 213.21,-232.27 215.36,-219.08 218.48,-208.94"/>
<text text-anchor="middle" x="236.5" y="-231.8" font-family="Helvetica,sans-Serif" font-size="14.00" fill="red">KRTA</text>
</g>
<!-- 3&#45;&#45;6 -->
<g id="edge3" class="edge">
<title>3&#45;&#45;6</title>
<path fill="none" stroke="blue" d="M259.05,-260.76C259.57,-250.85 259.07,-238.35 255,-228 251.49,-219.06 244.68,-210.81 238.43,-204.57"/>
<text text-anchor="middle" x="276.5" y="-231.8" font-family="Helvetica,sans-Serif" font-size="14.00" fill="blue">TRUK</text>
</g>
<!-- 5 -->
<g id="node4" class="node">
<title>5</title>
<ellipse fill="none" stroke="black" cx="441" cy="-105" rx="18" ry="18"/>
<text text-anchor="middle" x="441" y="-101.3" font-family="Helvetica,sans-Serif" font-size="14.00">5</text>
</g>
<!-- 4&#45;&#45;5 -->
<g id="edge4" class="edge">
<title>4&#45;&#45;5</title>
<path fill="none" stroke="blue" d="M370.69,-175.66C376.98,-165.27 386.09,-151.57 396,-141 405.07,-131.33 416.98,-122.19 426.26,-115.68"/>
<text text-anchor="middle" x="414.5" y="-144.8" font-family="Helvetica,sans-Serif" font-size="14.00" fill="blue">TRUK</text>
</g>
<!-- 7 -->
<g id="node7" class="node">
<title>7</title>
<ellipse fill="none" stroke="black" cx="325" cy="-18" rx="18" ry="18"/>
<text text-anchor="middle" x="325" y="-14.3" font-family="Helvetica,sans-Serif" font-size="14.00">7</text>
</g>
<!-- 4&#45;&#45;7 -->
<g id="edge5" class="edge">
<title>4&#45;&#45;7</title>
<path fill="none" stroke="red" d="M358.38,-174.19C351.31,-141.31 335.72,-68.81 328.63,-35.87"/>
<text text-anchor="middle" x="365.5" y="-101.3" font-family="Helvetica,sans-Serif" font-size="14.00" fill="red">KRTA</text>
</g>
<!-- 8 -->
<g id="node8" class="node">
<title>8</title>
<ellipse fill="none" stroke="black" cx="202" cy="-105" rx="18" ry="18"/>
<text text-anchor="middle" x="202" y="-101.3" font-family="Helvetica,sans-Serif" font-size="14.00">8</text>
</g>
<!-- 4&#45;&#45;8 -->
<g id="edge6" class="edge">
<title>4&#45;&#45;8</title>
<path fill="none" stroke="red" d="M346.37,-182.7C315.86,-166.49 248.68,-130.8 217.93,-114.46"/>
<text text-anchor="middle" x="309.5" y="-144.8" font-family="Helvetica,sans-Serif" font-size="14.00" fill="red">KRTA</text>
</g>
<!-- 1 -->
<g id="node3" class="node">
<title>1</title>
<ellipse fill="none" stroke="black" cx="321" cy="-453" rx="18" ry="18"/>
<text text-anchor="middle" x="321" y="-449.3" font-family="Helvetica,sans-Serif" font-size="14.00">1</text>
</g>
<!-- 1&#45;&#45;4 -->
<g id="edge7" class="edge">
<title>1&#45;&#45;4</title>
<path fill="none" stroke="blue" d="M334.52,-440.88C341.49,-434.53 349.64,-426.03 355,-417 375.67,-382.19 375.93,-370.03 382,-330 388.59,-286.51 375.54,-235.19 367.56,-209.46"/>
<text text-anchor="middle" x="401.5" y="-318.8" font-family="Helvetica,sans-Serif" font-size="14.00" fill="blue">TRUK</text>
</g>
<!-- 2 -->
<g id="node5" class="node">
<title>2</title>
<ellipse fill="none" stroke="black" cx="204" cy="-366" rx="18" ry="18"/>
<text text-anchor="middle" x="204" y="-362.3" font-family="Helvetica,sans-Serif" font-size="14.00">2</text>
</g>
<!-- 1&#45;&#45;2 -->
<g id="edge8" class="edge">
<title>1&#45;&#45;2</title>
<path fill="none" stroke="blue" d="M306.65,-441.58C284.08,-425.17 240.52,-393.53 218.1,-377.24"/>
<text text-anchor="middle" x="287.5" y="-405.8" font-family="Helvetica,sans-Serif" font-size="14.00" fill="blue">TRUK</text>
</g>
<!-- 1&#45;&#45;6 -->
<g id="edge9" class="edge">
<title>1&#45;&#45;6</title>
<path fill="none" stroke="blue" d="M324.49,-435.22C331.81,-395.2 344.55,-292.7 299,-228 285.83,-209.29 259.95,-200.27 242.57,-196.15"/>
<text text-anchor="middle" x="348.5" y="-318.8" font-family="Helvetica,sans-Serif" font-size="14.00" fill="blue">TRUK</text>
</g>
<!-- 1&#45;&#45;8 -->
<g id="edge10" class="edge">
<title>1&#45;&#45;8</title>
<path fill="none" stroke="blue" d="M302.82,-451.14C234.92,-447.45 0,-430.13 0,-367 0,-367 0,-367 0,-191 0,-111.67 133.99,-105.18 183.72,-105.5"/>
<text text-anchor="middle" x="18.5" y="-275.3" font-family="Helvetica,sans-Serif" font-size="14.00" fill="blue">TRUK</text>
</g>
<!-- 5&#45;&#45;7 -->
<g id="edge11" class="edge">
<title>5&#45;&#45;7</title>
<path fill="none" stroke="blue" d="M426.95,-93.64C413.2,-83.52 391.68,-67.68 373,-54 361.68,-45.71 348.84,-36.35 339.29,-29.4"/>
<text text-anchor="middle" x="409.5" y="-57.8" font-family="Helvetica,sans-Serif" font-size="14.00" fill="blue">TRUK</text>
</g>
<!-- 5&#45;&#45;7 -->
<g id="edge12" class="edge">
<title>5&#45;&#45;7</title>
<path fill="none" stroke="red" d="M442.1,-86.83C441.86,-76.2 439.76,-62.91 432,-54 409.41,-28.06 367.31,-21.24 343.2,-19.52"/>
<text text-anchor="middle" x="457.5" y="-57.8" font-family="Helvetica,sans-Serif" font-size="14.00" fill="red">KRTA</text>
</g>
<!-- 2&#45;&#45;3 -->
<g id="edge17" class="edge">
<title>2&#45;&#45;3</title>
<path fill="none" stroke="blue" d="M213.23,-350.19C222.96,-334.59 238.19,-310.17 247.87,-294.64"/>
<text text-anchor="middle" x="251.5" y="-318.8" font-family="Helvetica,sans-Serif" font-size="14.00" fill="blue">TRUK</text>
</g>
<!-- 2&#45;&#45;5 -->
<g id="edge13" class="edge">
<title>2&#45;&#45;5</title>
<path fill="none" stroke="blue" d="M220.46,-358.67C235.25,-352.56 257.16,-342.41 274,-330 358.33,-267.85 390.17,-251.6 433,-156 437.6,-145.73 439.6,-133.23 440.45,-123.3"/>
<text text-anchor="middle" x="410.5" y="-231.8" font-family="Helvetica,sans-Serif" font-size="14.00" fill="blue">TRUK</text>
</g>
<!-- 2&#45;&#45;6 -->
<g id="edge14" class="edge">
<title>2&#45;&#45;6</title>
<path fill="none" stroke="blue" d="M199.02,-348.6C193.49,-327.95 186.19,-291.48 193,-261 197.35,-241.52 207.93,-221.03 215.74,-207.7"/>
<text text-anchor="middle" x="211.5" y="-275.3" font-family="Helvetica,sans-Serif" font-size="14.00" fill="blue">TRUK</text>
</g>
<!-- 2&#45;&#45;7 -->
<g id="edge15" class="edge">
<title>2&#45;&#45;7</title>
<path fill="none" stroke="blue" d="M186.11,-362.56C148.57,-356.33 65,-336.15 65,-280 65,-280 65,-280 65,-104 65,-71.62 89.01,-68.43 118,-54 181.95,-22.16 269.32,-18.56 306.76,-18.62"/>
<text text-anchor="middle" x="83.5" y="-188.3" font-family="Helvetica,sans-Serif" font-size="14.00" fill="blue">TRUK</text>
</g>
<!-- 2&#45;&#45;7 -->
<g id="edge16" class="edge">
<title>2&#45;&#45;7</title>
<path fill="none" stroke="red" d="M195.71,-349.67C172.26,-304 111.17,-167.06 175,-87 208.96,-44.41 275.44,-27.55 307.23,-21.71"/>
<text text-anchor="middle" x="166.5" y="-188.3" font-family="Helvetica,sans-Serif" font-size="14.00" fill="red">KRTA</text>
</g>
<!-- 6&#45;&#45;7 -->
<g id="edge18" class="edge">
<title>6&#45;&#45;7</title>
<path fill="none" stroke="blue" d="M243.15,-190.44C266.13,-188.63 304.89,-181.7 323,-156 326.84,-150.55 326.04,-146.93 323,-141 316.76,-128.81 304.24,-135.19 298,-123 290.71,-108.76 294.99,-102.72 298,-87 301.63,-68.04 310.47,-47.62 317.05,-34.16"/>
<text text-anchor="middle" x="316.5" y="-101.3" font-family="Helvetica,sans-Serif" font-size="14.00" fill="blue">TRUK</text>
</g>
<!-- 6&#45;&#45;8 -->
<g id="edge19" class="edge">
<title>6&#45;&#45;8</title>
<path fill="none" stroke="blue" d="M220.46,-174.21C216.4,-159.21 210.49,-137.37 206.46,-122.47"/>
<text text-anchor="middle" x="232.5" y="-144.8" font-family="Helvetica,sans-Serif" font-size="14.00" fill="blue">TRUK</text>
</g>
<!-- 6&#45;&#45;8 -->
<g id="edge20" class="edge">
<title>6&#45;&#45;8</title>
<path fill="none" stroke="red" d="M208.23,-185.22C195.48,-179.83 178.84,-170.43 171,-156 163.39,-142 176.57,-126.5 188.02,-116.52"/>
<text text-anchor="middle" x="189.5" y="-144.8" font-family="Helvetica,sans-Serif" font-size="14.00" fill="red">KRTA</text>
</g>
</g>
</svg>
