<?xml version="1.0" encoding="UTF-8" standalone="no"?>
<!DOCTYPE svg PUBLIC "-//W3C//DTD SVG 1.1//EN"
 "http://www.w3.org/Graphics/SVG/1.1/DTD/svg11.dtd">
<!-- Generated by graphviz version 2.50.0 (0)
 -->
<!-- Title: complete Pages: 1 -->
<svg width="1351pt" height="326pt"
 viewBox="0.00 0.00 1350.50 326.00" xmlns="http://www.w3.org/2000/svg" xmlns:xlink="http://www.w3.org/1999/xlink">
<g id="graph0" class="graph" transform="scale(1 1) rotate(0) translate(4 322)">
<title>complete</title>
<polygon fill="white" stroke="transparent" points="-4,4 -4,-322 1346.5,-322 1346.5,4 -4,4"/>
<!-- (1,2) -->
<g id="node1" class="node">
<title>(1,2)</title>
<polygon fill="none" stroke="black" points="3.5,-0.5 3.5,-46.5 143.5,-46.5 143.5,-0.5 3.5,-0.5"/>
<text text-anchor="middle" x="25.5" y="-19.8" font-family="Helvetica,sans-Serif" font-size="14.00">(1,2)</text>
<polyline fill="none" stroke="black" points="47.5,-0.5 47.5,-46.5 "/>
<text text-anchor="middle" x="66.5" y="-31.3" font-family="Helvetica,sans-Serif" font-size="14.00">50k</text>
<polyline fill="none" stroke="black" points="47.5,-23.5 85.5,-23.5 "/>
<text text-anchor="middle" x="66.5" y="-8.3" font-family="Helvetica,sans-Serif" font-size="14.00">20k</text>
<polyline fill="none" stroke="black" points="85.5,-0.5 85.5,-46.5 "/>
<text text-anchor="middle" x="114.5" y="-31.3" font-family="Helvetica,sans-Serif" font-size="14.00">&#45;89.19</text>
<polyline fill="none" stroke="black" points="85.5,-23.5 143.5,-23.5 "/>
<text text-anchor="middle" x="114.5" y="-8.3" font-family="Helvetica,sans-Serif" font-size="14.00">148.29</text>
</g>
<!-- (7,0) -->
<g id="node2" class="node">
<title>(7,0)</title>
<polygon fill="none" stroke="black" points="165.5,-271.5 165.5,-317.5 305.5,-317.5 305.5,-271.5 165.5,-271.5"/>
<text text-anchor="middle" x="187.5" y="-290.8" font-family="Helvetica,sans-Serif" font-size="14.00">(7,0)</text>
<polyline fill="none" stroke="black" points="209.5,-271.5 209.5,-317.5 "/>
<text text-anchor="middle" x="228.5" y="-302.3" font-family="Helvetica,sans-Serif" font-size="14.00">50k</text>
<polyline fill="none" stroke="black" points="209.5,-294.5 247.5,-294.5 "/>
<text text-anchor="middle" x="228.5" y="-279.3" font-family="Helvetica,sans-Serif" font-size="14.00">20k</text>
<polyline fill="none" stroke="black" points="247.5,-271.5 247.5,-317.5 "/>
<text text-anchor="middle" x="276.5" y="-302.3" font-family="Helvetica,sans-Serif" font-size="14.00">123.54</text>
<polyline fill="none" stroke="black" points="247.5,-294.5 305.5,-294.5 "/>
<text text-anchor="middle" x="276.5" y="-279.3" font-family="Helvetica,sans-Serif" font-size="14.00">48.5</text>
</g>
<!-- (7,1) -->
<g id="node5" class="node">
<title>(7,1)</title>
<polygon fill="none" stroke="black" points="169.5,-128.5 169.5,-174.5 301.5,-174.5 301.5,-128.5 169.5,-128.5"/>
<text text-anchor="middle" x="191.5" y="-147.8" font-family="Helvetica,sans-Serif" font-size="14.00">(7,1)</text>
<polyline fill="none" stroke="black" points="213.5,-128.5 213.5,-174.5 "/>
<text text-anchor="middle" x="232.5" y="-159.3" font-family="Helvetica,sans-Serif" font-size="14.00">50k</text>
<polyline fill="none" stroke="black" points="213.5,-151.5 251.5,-151.5 "/>
<text text-anchor="middle" x="232.5" y="-136.3" font-family="Helvetica,sans-Serif" font-size="14.00">20k</text>
<polyline fill="none" stroke="black" points="251.5,-128.5 251.5,-174.5 "/>
<text text-anchor="middle" x="276.5" y="-159.3" font-family="Helvetica,sans-Serif" font-size="14.00">93.72</text>
<polyline fill="none" stroke="black" points="251.5,-151.5 301.5,-151.5 "/>
<text text-anchor="middle" x="276.5" y="-136.3" font-family="Helvetica,sans-Serif" font-size="14.00">26.73</text>
</g>
<!-- (7,0)&#45;&gt;(7,1) -->
<g id="edge1" class="edge">
<title>(7,0)&#45;&gt;(7,1)</title>
<path fill="none" stroke="purple" d="M235.5,-271.47C235.5,-248.32 235.5,-211.67 235.5,-185.16"/>
<polygon fill="purple" stroke="purple" points="239,-184.84 235.5,-174.84 232,-184.84 239,-184.84"/>
<text text-anchor="middle" x="269" y="-234.3" font-family="Helvetica,sans-Serif" font-size="14.00" fill="purple">50k:123.54</text>
<text text-anchor="middle" x="269" y="-219.3" font-family="Helvetica,sans-Serif" font-size="14.00" fill="purple"> 20k:48.5</text>
<text text-anchor="middle" x="269" y="-204.3" font-family="Helvetica,sans-Serif" font-size="14.00" fill="purple"> kont=1.0</text>
</g>
<!-- (3,0) -->
<g id="node3" class="node">
<title>(3,0)</title>
<polygon fill="none" stroke="black" points="341.5,-271.5 341.5,-317.5 481.5,-317.5 481.5,-271.5 341.5,-271.5"/>
<text text-anchor="middle" x="363.5" y="-290.8" font-family="Helvetica,sans-Serif" font-size="14.00">(3,0)</text>
<polyline fill="none" stroke="black" points="385.5,-271.5 385.5,-317.5 "/>
<text text-anchor="middle" x="404.5" y="-302.3" font-family="Helvetica,sans-Serif" font-size="14.00">50k</text>
<polyline fill="none" stroke="black" points="385.5,-294.5 423.5,-294.5 "/>
<text text-anchor="middle" x="404.5" y="-279.3" font-family="Helvetica,sans-Serif" font-size="14.00">20k</text>
<polyline fill="none" stroke="black" points="423.5,-271.5 423.5,-317.5 "/>
<text text-anchor="middle" x="452.5" y="-302.3" font-family="Helvetica,sans-Serif" font-size="14.00">186.39</text>
<polyline fill="none" stroke="black" points="423.5,-294.5 481.5,-294.5 "/>
<text text-anchor="middle" x="452.5" y="-279.3" font-family="Helvetica,sans-Serif" font-size="14.00">51.61</text>
</g>
<!-- (3,1) -->
<g id="node12" class="node">
<title>(3,1)</title>
<polygon fill="none" stroke="black" points="325.5,-128.5 325.5,-174.5 469.5,-174.5 469.5,-128.5 325.5,-128.5"/>
<text text-anchor="middle" x="347.5" y="-147.8" font-family="Helvetica,sans-Serif" font-size="14.00">(3,1)</text>
<polyline fill="none" stroke="black" points="369.5,-128.5 369.5,-174.5 "/>
<text text-anchor="middle" x="388.5" y="-159.3" font-family="Helvetica,sans-Serif" font-size="14.00">50k</text>
<polyline fill="none" stroke="black" points="369.5,-151.5 407.5,-151.5 "/>
<text text-anchor="middle" x="388.5" y="-136.3" font-family="Helvetica,sans-Serif" font-size="14.00">20k</text>
<polyline fill="none" stroke="black" points="407.5,-128.5 407.5,-174.5 "/>
<text text-anchor="middle" x="438.5" y="-159.3" font-family="Helvetica,sans-Serif" font-size="14.00">&#45;185.62</text>
<polyline fill="none" stroke="black" points="407.5,-151.5 469.5,-151.5 "/>
<text text-anchor="middle" x="438.5" y="-136.3" font-family="Helvetica,sans-Serif" font-size="14.00">&#45;62.17</text>
</g>
<!-- (3,0)&#45;&gt;(3,1) -->
<g id="edge3" class="edge">
<title>(3,0)&#45;&gt;(3,1)</title>
<path fill="none" stroke="purple" d="M402.99,-271.09C401.15,-265.28 399.47,-258.98 398.5,-253 394.84,-230.37 394.67,-204.5 395.38,-184.67"/>
<polygon fill="purple" stroke="purple" points="398.88,-184.77 395.83,-174.62 391.89,-184.45 398.88,-184.77"/>
<text text-anchor="middle" x="428.5" y="-234.3" font-family="Helvetica,sans-Serif" font-size="14.00" fill="purple">50k:12.63</text>
<text text-anchor="middle" x="428.5" y="-219.3" font-family="Helvetica,sans-Serif" font-size="14.00" fill="purple"> 20k:0.0</text>
<text text-anchor="middle" x="428.5" y="-204.3" font-family="Helvetica,sans-Serif" font-size="14.00" fill="purple"> kont=1.0</text>
</g>
<!-- (6,1) -->
<g id="node18" class="node">
<title>(6,1)</title>
<polygon fill="none" stroke="black" points="502.5,-128.5 502.5,-174.5 642.5,-174.5 642.5,-128.5 502.5,-128.5"/>
<text text-anchor="middle" x="524.5" y="-147.8" font-family="Helvetica,sans-Serif" font-size="14.00">(6,1)</text>
<polyline fill="none" stroke="black" points="546.5,-128.5 546.5,-174.5 "/>
<text text-anchor="middle" x="565.5" y="-159.3" font-family="Helvetica,sans-Serif" font-size="14.00">50k</text>
<polyline fill="none" stroke="black" points="546.5,-151.5 584.5,-151.5 "/>
<text text-anchor="middle" x="565.5" y="-136.3" font-family="Helvetica,sans-Serif" font-size="14.00">20k</text>
<polyline fill="none" stroke="black" points="584.5,-128.5 584.5,-174.5 "/>
<text text-anchor="middle" x="613.5" y="-159.3" font-family="Helvetica,sans-Serif" font-size="14.00">119.59</text>
<polyline fill="none" stroke="black" points="584.5,-151.5 642.5,-151.5 "/>
<text text-anchor="middle" x="613.5" y="-136.3" font-family="Helvetica,sans-Serif" font-size="14.00">169.37</text>
</g>
<!-- (3,0)&#45;&gt;(6,1) -->
<g id="edge2" class="edge">
<title>(3,0)&#45;&gt;(6,1)</title>
<path fill="none" stroke="green" d="M441.01,-271.12C447.23,-265.61 453.43,-259.43 458.5,-253 477.1,-229.44 468.03,-213.98 489.5,-193 494.43,-188.18 500.05,-183.84 505.98,-179.95"/>
<polygon fill="green" stroke="green" points="508.12,-182.75 514.85,-174.57 504.49,-176.76 508.12,-182.75"/>
<text text-anchor="middle" x="531.5" y="-241.8" font-family="Helvetica,sans-Serif" font-size="14.00" fill="green">50k:173.76</text>
<text text-anchor="middle" x="531.5" y="-226.8" font-family="Helvetica,sans-Serif" font-size="14.00" fill="green"> 20k:51.61</text>
<text text-anchor="middle" x="531.5" y="-211.8" font-family="Helvetica,sans-Serif" font-size="14.00" fill="green"> kont=1.0</text>
<text text-anchor="middle" x="531.5" y="-196.8" font-family="Helvetica,sans-Serif" font-size="14.00" fill="green"> moda=TRUK</text>
</g>
<!-- (3,2) -->
<g id="node4" class="node">
<title>(3,2)</title>
<polygon fill="none" stroke="black" points="325.5,-0.5 325.5,-46.5 469.5,-46.5 469.5,-0.5 325.5,-0.5"/>
<text text-anchor="middle" x="347.5" y="-19.8" font-family="Helvetica,sans-Serif" font-size="14.00">(3,2)</text>
<polyline fill="none" stroke="black" points="369.5,-0.5 369.5,-46.5 "/>
<text text-anchor="middle" x="388.5" y="-31.3" font-family="Helvetica,sans-Serif" font-size="14.00">50k</text>
<polyline fill="none" stroke="black" points="369.5,-23.5 407.5,-23.5 "/>
<text text-anchor="middle" x="388.5" y="-8.3" font-family="Helvetica,sans-Serif" font-size="14.00">20k</text>
<polyline fill="none" stroke="black" points="407.5,-0.5 407.5,-46.5 "/>
<text text-anchor="middle" x="438.5" y="-31.3" font-family="Helvetica,sans-Serif" font-size="14.00">&#45;201.78</text>
<polyline fill="none" stroke="black" points="407.5,-23.5 469.5,-23.5 "/>
<text text-anchor="middle" x="438.5" y="-8.3" font-family="Helvetica,sans-Serif" font-size="14.00">&#45;153.51</text>
</g>
<!-- (7,2) -->
<g id="node14" class="node">
<title>(7,2)</title>
<polygon fill="none" stroke="black" points="163.5,-0.5 163.5,-46.5 307.5,-46.5 307.5,-0.5 163.5,-0.5"/>
<text text-anchor="middle" x="185.5" y="-19.8" font-family="Helvetica,sans-Serif" font-size="14.00">(7,2)</text>
<polyline fill="none" stroke="black" points="207.5,-0.5 207.5,-46.5 "/>
<text text-anchor="middle" x="226.5" y="-31.3" font-family="Helvetica,sans-Serif" font-size="14.00">50k</text>
<polyline fill="none" stroke="black" points="207.5,-23.5 245.5,-23.5 "/>
<text text-anchor="middle" x="226.5" y="-8.3" font-family="Helvetica,sans-Serif" font-size="14.00">20k</text>
<polyline fill="none" stroke="black" points="245.5,-0.5 245.5,-46.5 "/>
<text text-anchor="middle" x="276.5" y="-31.3" font-family="Helvetica,sans-Serif" font-size="14.00">&#45;109.87</text>
<polyline fill="none" stroke="black" points="245.5,-23.5 307.5,-23.5 "/>
<text text-anchor="middle" x="276.5" y="-8.3" font-family="Helvetica,sans-Serif" font-size="14.00">&#45;52.19</text>
</g>
<!-- (7,1)&#45;&gt;(7,2) -->
<g id="edge4" class="edge">
<title>(7,1)&#45;&gt;(7,2)</title>
<path fill="none" stroke="purple" d="M235.5,-128.26C235.5,-108.38 235.5,-79.01 235.5,-56.58"/>
<polygon fill="purple" stroke="purple" points="239,-56.51 235.5,-46.51 232,-56.51 239,-56.51"/>
<text text-anchor="middle" x="267.5" y="-98.8" font-family="Helvetica,sans-Serif" font-size="14.00" fill="purple">50k:29.83</text>
<text text-anchor="middle" x="267.5" y="-83.8" font-family="Helvetica,sans-Serif" font-size="14.00" fill="purple"> 20k:21.77</text>
<text text-anchor="middle" x="267.5" y="-68.8" font-family="Helvetica,sans-Serif" font-size="14.00" fill="purple"> kont=1.0</text>
</g>
<!-- (6,0) -->
<g id="node6" class="node">
<title>(6,0)</title>
<polygon fill="none" stroke="black" points="514,-271.5 514,-317.5 661,-317.5 661,-271.5 514,-271.5"/>
<text text-anchor="middle" x="536" y="-290.8" font-family="Helvetica,sans-Serif" font-size="14.00">(6,0)</text>
<polyline fill="none" stroke="black" points="558,-271.5 558,-317.5 "/>
<text text-anchor="middle" x="577" y="-302.3" font-family="Helvetica,sans-Serif" font-size="14.00">50k</text>
<polyline fill="none" stroke="black" points="558,-294.5 596,-294.5 "/>
<text text-anchor="middle" x="577" y="-279.3" font-family="Helvetica,sans-Serif" font-size="14.00">20k</text>
<polyline fill="none" stroke="black" points="596,-271.5 596,-317.5 "/>
<text text-anchor="middle" x="628.5" y="-302.3" font-family="Helvetica,sans-Serif" font-size="14.00">1642.66</text>
<polyline fill="none" stroke="black" points="596,-294.5 661,-294.5 "/>
<text text-anchor="middle" x="628.5" y="-279.3" font-family="Helvetica,sans-Serif" font-size="14.00">169.72</text>
</g>
<!-- (6,0)&#45;&gt;(6,1) -->
<g id="edge5" class="edge">
<title>(6,0)&#45;&gt;(6,1)</title>
<path fill="none" stroke="purple" d="M585.16,-271.47C582.68,-248.22 578.76,-211.34 575.94,-184.81"/>
<polygon fill="purple" stroke="purple" points="579.42,-184.42 574.88,-174.84 572.45,-185.16 579.42,-184.42"/>
<text text-anchor="middle" x="621" y="-234.3" font-family="Helvetica,sans-Serif" font-size="14.00" fill="purple">50k:1642.66</text>
<text text-anchor="middle" x="621" y="-219.3" font-family="Helvetica,sans-Serif" font-size="14.00" fill="purple"> 20k:169.72</text>
<text text-anchor="middle" x="621" y="-204.3" font-family="Helvetica,sans-Serif" font-size="14.00" fill="purple"> kont=1.0</text>
</g>
<!-- (1,0) -->
<g id="node7" class="node">
<title>(1,0)</title>
<polygon fill="none" stroke="black" points="0,-271.5 0,-317.5 147,-317.5 147,-271.5 0,-271.5"/>
<text text-anchor="middle" x="22" y="-290.8" font-family="Helvetica,sans-Serif" font-size="14.00">(1,0)</text>
<polyline fill="none" stroke="black" points="44,-271.5 44,-317.5 "/>
<text text-anchor="middle" x="63" y="-302.3" font-family="Helvetica,sans-Serif" font-size="14.00">50k</text>
<polyline fill="none" stroke="black" points="44,-294.5 82,-294.5 "/>
<text text-anchor="middle" x="63" y="-279.3" font-family="Helvetica,sans-Serif" font-size="14.00">20k</text>
<polyline fill="none" stroke="black" points="82,-271.5 82,-317.5 "/>
<text text-anchor="middle" x="114.5" y="-302.3" font-family="Helvetica,sans-Serif" font-size="14.00">378.79</text>
<polyline fill="none" stroke="black" points="82,-294.5 147,-294.5 "/>
<text text-anchor="middle" x="114.5" y="-279.3" font-family="Helvetica,sans-Serif" font-size="14.00">1053.47</text>
</g>
<!-- (1,1) -->
<g id="node19" class="node">
<title>(1,1)</title>
<polygon fill="none" stroke="black" points="3.5,-128.5 3.5,-174.5 143.5,-174.5 143.5,-128.5 3.5,-128.5"/>
<text text-anchor="middle" x="25.5" y="-147.8" font-family="Helvetica,sans-Serif" font-size="14.00">(1,1)</text>
<polyline fill="none" stroke="black" points="47.5,-128.5 47.5,-174.5 "/>
<text text-anchor="middle" x="66.5" y="-159.3" font-family="Helvetica,sans-Serif" font-size="14.00">50k</text>
<polyline fill="none" stroke="black" points="47.5,-151.5 85.5,-151.5 "/>
<text text-anchor="middle" x="66.5" y="-136.3" font-family="Helvetica,sans-Serif" font-size="14.00">20k</text>
<polyline fill="none" stroke="black" points="85.5,-128.5 85.5,-174.5 "/>
<text text-anchor="middle" x="114.5" y="-159.3" font-family="Helvetica,sans-Serif" font-size="14.00">37.74</text>
<polyline fill="none" stroke="black" points="85.5,-151.5 143.5,-151.5 "/>
<text text-anchor="middle" x="114.5" y="-136.3" font-family="Helvetica,sans-Serif" font-size="14.00">387.75</text>
</g>
<!-- (1,0)&#45;&gt;(1,1) -->
<g id="edge6" class="edge">
<title>(1,0)&#45;&gt;(1,1)</title>
<path fill="none" stroke="purple" d="M73.5,-271.47C73.5,-248.32 73.5,-211.67 73.5,-185.16"/>
<polygon fill="purple" stroke="purple" points="77,-184.84 73.5,-174.84 70,-184.84 77,-184.84"/>
<text text-anchor="middle" x="113" y="-234.3" font-family="Helvetica,sans-Serif" font-size="14.00" fill="purple">50k:378.79</text>
<text text-anchor="middle" x="113" y="-219.3" font-family="Helvetica,sans-Serif" font-size="14.00" fill="purple"> 20k:1053.47</text>
<text text-anchor="middle" x="113" y="-204.3" font-family="Helvetica,sans-Serif" font-size="14.00" fill="purple"> kont=1.0</text>
</g>
<!-- (5,0) -->
<g id="node8" class="node">
<title>(5,0)</title>
<polygon fill="none" stroke="black" points="679.5,-271.5 679.5,-317.5 819.5,-317.5 819.5,-271.5 679.5,-271.5"/>
<text text-anchor="middle" x="701.5" y="-290.8" font-family="Helvetica,sans-Serif" font-size="14.00">(5,0)</text>
<polyline fill="none" stroke="black" points="723.5,-271.5 723.5,-317.5 "/>
<text text-anchor="middle" x="742.5" y="-302.3" font-family="Helvetica,sans-Serif" font-size="14.00">50k</text>
<polyline fill="none" stroke="black" points="723.5,-294.5 761.5,-294.5 "/>
<text text-anchor="middle" x="742.5" y="-279.3" font-family="Helvetica,sans-Serif" font-size="14.00">20k</text>
<polyline fill="none" stroke="black" points="761.5,-271.5 761.5,-317.5 "/>
<text text-anchor="middle" x="790.5" y="-302.3" font-family="Helvetica,sans-Serif" font-size="14.00">100.44</text>
<polyline fill="none" stroke="black" points="761.5,-294.5 819.5,-294.5 "/>
<text text-anchor="middle" x="790.5" y="-279.3" font-family="Helvetica,sans-Serif" font-size="14.00">407.32</text>
</g>
<!-- (5,1) -->
<g id="node9" class="node">
<title>(5,1)</title>
<polygon fill="none" stroke="black" points="681,-128.5 681,-174.5 818,-174.5 818,-128.5 681,-128.5"/>
<text text-anchor="middle" x="703" y="-147.8" font-family="Helvetica,sans-Serif" font-size="14.00">(5,1)</text>
<polyline fill="none" stroke="black" points="725,-128.5 725,-174.5 "/>
<text text-anchor="middle" x="744" y="-159.3" font-family="Helvetica,sans-Serif" font-size="14.00">50k</text>
<polyline fill="none" stroke="black" points="725,-151.5 763,-151.5 "/>
<text text-anchor="middle" x="744" y="-136.3" font-family="Helvetica,sans-Serif" font-size="14.00">20k</text>
<polyline fill="none" stroke="black" points="763,-128.5 763,-174.5 "/>
<text text-anchor="middle" x="790.5" y="-159.3" font-family="Helvetica,sans-Serif" font-size="14.00">&#45;87.76</text>
<polyline fill="none" stroke="black" points="763,-151.5 818,-151.5 "/>
<text text-anchor="middle" x="790.5" y="-136.3" font-family="Helvetica,sans-Serif" font-size="14.00">126.7</text>
</g>
<!-- (5,0)&#45;&gt;(5,1) -->
<g id="edge7" class="edge">
<title>(5,0)&#45;&gt;(5,1)</title>
<path fill="none" stroke="purple" d="M749.5,-271.47C749.5,-248.32 749.5,-211.67 749.5,-185.16"/>
<polygon fill="purple" stroke="purple" points="753,-184.84 749.5,-174.84 746,-184.84 753,-184.84"/>
<text text-anchor="middle" x="785" y="-234.3" font-family="Helvetica,sans-Serif" font-size="14.00" fill="purple">50k:100.44</text>
<text text-anchor="middle" x="785" y="-219.3" font-family="Helvetica,sans-Serif" font-size="14.00" fill="purple"> 20k:407.32</text>
<text text-anchor="middle" x="785" y="-204.3" font-family="Helvetica,sans-Serif" font-size="14.00" fill="purple"> kont=1.0</text>
</g>
<!-- (5,2) -->
<g id="node22" class="node">
<title>(5,2)</title>
<polygon fill="none" stroke="black" points="679.5,-0.5 679.5,-46.5 819.5,-46.5 819.5,-0.5 679.5,-0.5"/>
<text text-anchor="middle" x="701.5" y="-19.8" font-family="Helvetica,sans-Serif" font-size="14.00">(5,2)</text>
<polyline fill="none" stroke="black" points="723.5,-0.5 723.5,-46.5 "/>
<text text-anchor="middle" x="742.5" y="-31.3" font-family="Helvetica,sans-Serif" font-size="14.00">50k</text>
<polyline fill="none" stroke="black" points="723.5,-23.5 761.5,-23.5 "/>
<text text-anchor="middle" x="742.5" y="-8.3" font-family="Helvetica,sans-Serif" font-size="14.00">20k</text>
<polyline fill="none" stroke="black" points="761.5,-0.5 761.5,-46.5 "/>
<text text-anchor="middle" x="790.5" y="-31.3" font-family="Helvetica,sans-Serif" font-size="14.00">126.22</text>
<polyline fill="none" stroke="black" points="761.5,-23.5 819.5,-23.5 "/>
<text text-anchor="middle" x="790.5" y="-8.3" font-family="Helvetica,sans-Serif" font-size="14.00">322.59</text>
</g>
<!-- (5,1)&#45;&gt;(5,2) -->
<g id="edge8" class="edge">
<title>(5,1)&#45;&gt;(5,2)</title>
<path fill="none" stroke="purple" d="M749.5,-128.26C749.5,-108.38 749.5,-79.01 749.5,-56.58"/>
<polygon fill="purple" stroke="purple" points="753,-56.51 749.5,-46.51 746,-56.51 753,-56.51"/>
<text text-anchor="middle" x="785" y="-98.8" font-family="Helvetica,sans-Serif" font-size="14.00" fill="purple">50k:188.19</text>
<text text-anchor="middle" x="785" y="-83.8" font-family="Helvetica,sans-Serif" font-size="14.00" fill="purple"> 20k:280.62</text>
<text text-anchor="middle" x="785" y="-68.8" font-family="Helvetica,sans-Serif" font-size="14.00" fill="purple"> kont=1.0</text>
</g>
<!-- (4,1) -->
<g id="node10" class="node">
<title>(4,1)</title>
<polygon fill="none" stroke="black" points="836,-128.5 836,-174.5 973,-174.5 973,-128.5 836,-128.5"/>
<text text-anchor="middle" x="858" y="-147.8" font-family="Helvetica,sans-Serif" font-size="14.00">(4,1)</text>
<polyline fill="none" stroke="black" points="880,-128.5 880,-174.5 "/>
<text text-anchor="middle" x="899" y="-159.3" font-family="Helvetica,sans-Serif" font-size="14.00">50k</text>
<polyline fill="none" stroke="black" points="880,-151.5 918,-151.5 "/>
<text text-anchor="middle" x="899" y="-136.3" font-family="Helvetica,sans-Serif" font-size="14.00">20k</text>
<polyline fill="none" stroke="black" points="918,-128.5 918,-174.5 "/>
<text text-anchor="middle" x="945.5" y="-159.3" font-family="Helvetica,sans-Serif" font-size="14.00">&#45;83.86</text>
<polyline fill="none" stroke="black" points="918,-151.5 973,-151.5 "/>
<text text-anchor="middle" x="945.5" y="-136.3" font-family="Helvetica,sans-Serif" font-size="14.00">30.27</text>
</g>
<!-- (4,2) -->
<g id="node20" class="node">
<title>(4,2)</title>
<polygon fill="none" stroke="black" points="838.5,-0.5 838.5,-46.5 970.5,-46.5 970.5,-0.5 838.5,-0.5"/>
<text text-anchor="middle" x="860.5" y="-19.8" font-family="Helvetica,sans-Serif" font-size="14.00">(4,2)</text>
<polyline fill="none" stroke="black" points="882.5,-0.5 882.5,-46.5 "/>
<text text-anchor="middle" x="901.5" y="-31.3" font-family="Helvetica,sans-Serif" font-size="14.00">50k</text>
<polyline fill="none" stroke="black" points="882.5,-23.5 920.5,-23.5 "/>
<text text-anchor="middle" x="901.5" y="-8.3" font-family="Helvetica,sans-Serif" font-size="14.00">20k</text>
<polyline fill="none" stroke="black" points="920.5,-0.5 920.5,-46.5 "/>
<text text-anchor="middle" x="945.5" y="-31.3" font-family="Helvetica,sans-Serif" font-size="14.00">16.67</text>
<polyline fill="none" stroke="black" points="920.5,-23.5 970.5,-23.5 "/>
<text text-anchor="middle" x="945.5" y="-8.3" font-family="Helvetica,sans-Serif" font-size="14.00">193.3</text>
</g>
<!-- (4,1)&#45;&gt;(4,2) -->
<g id="edge9" class="edge">
<title>(4,1)&#45;&gt;(4,2)</title>
<path fill="none" stroke="purple" d="M904.5,-128.26C904.5,-108.38 904.5,-79.01 904.5,-56.58"/>
<polygon fill="purple" stroke="purple" points="908,-56.51 904.5,-46.51 901,-56.51 908,-56.51"/>
<text text-anchor="middle" x="944" y="-98.8" font-family="Helvetica,sans-Serif" font-size="14.00" fill="purple">50k:7237.01</text>
<text text-anchor="middle" x="944" y="-83.8" font-family="Helvetica,sans-Serif" font-size="14.00" fill="purple"> 20k:2523.09</text>
<text text-anchor="middle" x="944" y="-68.8" font-family="Helvetica,sans-Serif" font-size="14.00" fill="purple"> kont=1.0</text>
</g>
<!-- (2,2) -->
<g id="node11" class="node">
<title>(2,2)</title>
<polygon fill="none" stroke="black" points="1198.5,-0.5 1198.5,-46.5 1342.5,-46.5 1342.5,-0.5 1198.5,-0.5"/>
<text text-anchor="middle" x="1220.5" y="-19.8" font-family="Helvetica,sans-Serif" font-size="14.00">(2,2)</text>
<polyline fill="none" stroke="black" points="1242.5,-0.5 1242.5,-46.5 "/>
<text text-anchor="middle" x="1261.5" y="-31.3" font-family="Helvetica,sans-Serif" font-size="14.00">50k</text>
<polyline fill="none" stroke="black" points="1242.5,-23.5 1280.5,-23.5 "/>
<text text-anchor="middle" x="1261.5" y="-8.3" font-family="Helvetica,sans-Serif" font-size="14.00">20k</text>
<polyline fill="none" stroke="black" points="1280.5,-0.5 1280.5,-46.5 "/>
<text text-anchor="middle" x="1311.5" y="-31.3" font-family="Helvetica,sans-Serif" font-size="14.00">&#45;125.69</text>
<polyline fill="none" stroke="black" points="1280.5,-23.5 1342.5,-23.5 "/>
<text text-anchor="middle" x="1311.5" y="-8.3" font-family="Helvetica,sans-Serif" font-size="14.00">&#45;235.94</text>
</g>
<!-- (3,1)&#45;&gt;(3,2) -->
<g id="edge10" class="edge">
<title>(3,1)&#45;&gt;(3,2)</title>
<path fill="none" stroke="purple" d="M397.5,-128.26C397.5,-108.38 397.5,-79.01 397.5,-56.58"/>
<polygon fill="purple" stroke="purple" points="401,-56.51 397.5,-46.51 394,-56.51 401,-56.51"/>
<text text-anchor="middle" x="431" y="-98.8" font-family="Helvetica,sans-Serif" font-size="14.00" fill="purple">50k:198.25</text>
<text text-anchor="middle" x="431" y="-83.8" font-family="Helvetica,sans-Serif" font-size="14.00" fill="purple"> 20k:62.17</text>
<text text-anchor="middle" x="431" y="-68.8" font-family="Helvetica,sans-Serif" font-size="14.00" fill="purple"> kont=1.0</text>
</g>
<!-- (8,2) -->
<g id="node13" class="node">
<title>(8,2)</title>
<polygon fill="none" stroke="black" points="1013.5,-0.5 1013.5,-46.5 1157.5,-46.5 1157.5,-0.5 1013.5,-0.5"/>
<text text-anchor="middle" x="1035.5" y="-19.8" font-family="Helvetica,sans-Serif" font-size="14.00">(8,2)</text>
<polyline fill="none" stroke="black" points="1057.5,-0.5 1057.5,-46.5 "/>
<text text-anchor="middle" x="1076.5" y="-31.3" font-family="Helvetica,sans-Serif" font-size="14.00">50k</text>
<polyline fill="none" stroke="black" points="1057.5,-23.5 1095.5,-23.5 "/>
<text text-anchor="middle" x="1076.5" y="-8.3" font-family="Helvetica,sans-Serif" font-size="14.00">20k</text>
<polyline fill="none" stroke="black" points="1095.5,-0.5 1095.5,-46.5 "/>
<text text-anchor="middle" x="1126.5" y="-31.3" font-family="Helvetica,sans-Serif" font-size="14.00">&#45;325.87</text>
<polyline fill="none" stroke="black" points="1095.5,-23.5 1157.5,-23.5 "/>
<text text-anchor="middle" x="1126.5" y="-8.3" font-family="Helvetica,sans-Serif" font-size="14.00">190.15</text>
</g>
<!-- (8,0) -->
<g id="node15" class="node">
<title>(8,0)</title>
<polygon fill="none" stroke="black" points="1042.5,-271.5 1042.5,-317.5 1182.5,-317.5 1182.5,-271.5 1042.5,-271.5"/>
<text text-anchor="middle" x="1064.5" y="-290.8" font-family="Helvetica,sans-Serif" font-size="14.00">(8,0)</text>
<polyline fill="none" stroke="black" points="1086.5,-271.5 1086.5,-317.5 "/>
<text text-anchor="middle" x="1105.5" y="-302.3" font-family="Helvetica,sans-Serif" font-size="14.00">50k</text>
<polyline fill="none" stroke="black" points="1086.5,-294.5 1124.5,-294.5 "/>
<text text-anchor="middle" x="1105.5" y="-279.3" font-family="Helvetica,sans-Serif" font-size="14.00">20k</text>
<polyline fill="none" stroke="black" points="1124.5,-271.5 1124.5,-317.5 "/>
<text text-anchor="middle" x="1153.5" y="-302.3" font-family="Helvetica,sans-Serif" font-size="14.00">105.95</text>
<polyline fill="none" stroke="black" points="1124.5,-294.5 1182.5,-294.5 "/>
<text text-anchor="middle" x="1153.5" y="-279.3" font-family="Helvetica,sans-Serif" font-size="14.00">338.91</text>
</g>
<!-- (8,1) -->
<g id="node24" class="node">
<title>(8,1)</title>
<polygon fill="none" stroke="black" points="1013.5,-128.5 1013.5,-174.5 1157.5,-174.5 1157.5,-128.5 1013.5,-128.5"/>
<text text-anchor="middle" x="1035.5" y="-147.8" font-family="Helvetica,sans-Serif" font-size="14.00">(8,1)</text>
<polyline fill="none" stroke="black" points="1057.5,-128.5 1057.5,-174.5 "/>
<text text-anchor="middle" x="1076.5" y="-159.3" font-family="Helvetica,sans-Serif" font-size="14.00">50k</text>
<polyline fill="none" stroke="black" points="1057.5,-151.5 1095.5,-151.5 "/>
<text text-anchor="middle" x="1076.5" y="-136.3" font-family="Helvetica,sans-Serif" font-size="14.00">20k</text>
<polyline fill="none" stroke="black" points="1095.5,-128.5 1095.5,-174.5 "/>
<text text-anchor="middle" x="1126.5" y="-159.3" font-family="Helvetica,sans-Serif" font-size="14.00">108.67</text>
<polyline fill="none" stroke="black" points="1095.5,-151.5 1157.5,-151.5 "/>
<text text-anchor="middle" x="1126.5" y="-136.3" font-family="Helvetica,sans-Serif" font-size="14.00">&#45;226.36</text>
</g>
<!-- (8,0)&#45;&gt;(8,1) -->
<g id="edge11" class="edge">
<title>(8,0)&#45;&gt;(8,1)</title>
<path fill="none" stroke="purple" d="M1108.28,-271.47C1103.83,-248.22 1096.77,-211.34 1091.69,-184.81"/>
<polygon fill="purple" stroke="purple" points="1095.1,-184.01 1089.78,-174.84 1088.22,-185.32 1095.1,-184.01"/>
<text text-anchor="middle" x="1141" y="-234.3" font-family="Helvetica,sans-Serif" font-size="14.00" fill="purple">50k:105.95</text>
<text text-anchor="middle" x="1141" y="-219.3" font-family="Helvetica,sans-Serif" font-size="14.00" fill="purple"> 20k:338.91</text>
<text text-anchor="middle" x="1141" y="-204.3" font-family="Helvetica,sans-Serif" font-size="14.00" fill="purple"> kont=1.0</text>
</g>
<!-- (4,0) -->
<g id="node16" class="node">
<title>(4,0)</title>
<polygon fill="none" stroke="black" points="858,-271.5 858,-317.5 1005,-317.5 1005,-271.5 858,-271.5"/>
<text text-anchor="middle" x="880" y="-290.8" font-family="Helvetica,sans-Serif" font-size="14.00">(4,0)</text>
<polyline fill="none" stroke="black" points="902,-271.5 902,-317.5 "/>
<text text-anchor="middle" x="921" y="-302.3" font-family="Helvetica,sans-Serif" font-size="14.00">50k</text>
<polyline fill="none" stroke="black" points="902,-294.5 940,-294.5 "/>
<text text-anchor="middle" x="921" y="-279.3" font-family="Helvetica,sans-Serif" font-size="14.00">20k</text>
<polyline fill="none" stroke="black" points="940,-271.5 940,-317.5 "/>
<text text-anchor="middle" x="972.5" y="-302.3" font-family="Helvetica,sans-Serif" font-size="14.00">7155.87</text>
<polyline fill="none" stroke="black" points="940,-294.5 1005,-294.5 "/>
<text text-anchor="middle" x="972.5" y="-279.3" font-family="Helvetica,sans-Serif" font-size="14.00">2553.36</text>
</g>
<!-- (4,0)&#45;&gt;(4,1) -->
<g id="edge12" class="edge">
<title>(4,0)&#45;&gt;(4,1)</title>
<path fill="none" stroke="purple" d="M914.24,-271.47C910.67,-265.76 907.41,-259.4 905.5,-253 898.89,-230.89 898.85,-204.81 900.34,-184.76"/>
<polygon fill="purple" stroke="purple" points="903.85,-184.86 901.27,-174.59 896.88,-184.23 903.85,-184.86"/>
<text text-anchor="middle" x="945" y="-234.3" font-family="Helvetica,sans-Serif" font-size="14.00" fill="purple">50k:7153.15</text>
<text text-anchor="middle" x="945" y="-219.3" font-family="Helvetica,sans-Serif" font-size="14.00" fill="purple"> 20k:2553.36</text>
<text text-anchor="middle" x="945" y="-204.3" font-family="Helvetica,sans-Serif" font-size="14.00" fill="purple"> kont=1.0</text>
</g>
<!-- (4,0)&#45;&gt;(8,1) -->
<g id="edge13" class="edge">
<title>(4,0)&#45;&gt;(8,1)</title>
<path fill="none" stroke="green" d="M966.34,-271.44C973.02,-266.02 979.49,-259.81 984.5,-253 1001.34,-230.13 987.68,-214.27 1006.5,-193 1010.66,-188.3 1015.48,-184.08 1020.67,-180.29"/>
<polygon fill="green" stroke="green" points="1022.68,-183.15 1029.06,-174.69 1018.8,-177.33 1022.68,-183.15"/>
<text text-anchor="middle" x="1048" y="-241.8" font-family="Helvetica,sans-Serif" font-size="14.00" fill="green">50k:2.72</text>
<text text-anchor="middle" x="1048" y="-226.8" font-family="Helvetica,sans-Serif" font-size="14.00" fill="green"> 20k:0.0</text>
<text text-anchor="middle" x="1048" y="-211.8" font-family="Helvetica,sans-Serif" font-size="14.00" fill="green"> kont=1.0</text>
<text text-anchor="middle" x="1048" y="-196.8" font-family="Helvetica,sans-Serif" font-size="14.00" fill="green"> moda=KRTA</text>
</g>
<!-- (6,2) -->
<g id="node17" class="node">
<title>(6,2)</title>
<polygon fill="none" stroke="black" points="504,-0.5 504,-46.5 641,-46.5 641,-0.5 504,-0.5"/>
<text text-anchor="middle" x="526" y="-19.8" font-family="Helvetica,sans-Serif" font-size="14.00">(6,2)</text>
<polyline fill="none" stroke="black" points="548,-0.5 548,-46.5 "/>
<text text-anchor="middle" x="567" y="-31.3" font-family="Helvetica,sans-Serif" font-size="14.00">50k</text>
<polyline fill="none" stroke="black" points="548,-23.5 586,-23.5 "/>
<text text-anchor="middle" x="567" y="-8.3" font-family="Helvetica,sans-Serif" font-size="14.00">20k</text>
<polyline fill="none" stroke="black" points="586,-0.5 586,-46.5 "/>
<text text-anchor="middle" x="613.5" y="-31.3" font-family="Helvetica,sans-Serif" font-size="14.00">&#45;43.87</text>
<polyline fill="none" stroke="black" points="586,-23.5 641,-23.5 "/>
<text text-anchor="middle" x="613.5" y="-8.3" font-family="Helvetica,sans-Serif" font-size="14.00">23.14</text>
</g>
<!-- (6,1)&#45;&gt;(6,2) -->
<g id="edge14" class="edge">
<title>(6,1)&#45;&gt;(6,2)</title>
<path fill="none" stroke="purple" d="M572.5,-128.26C572.5,-108.38 572.5,-79.01 572.5,-56.58"/>
<polygon fill="purple" stroke="purple" points="576,-56.51 572.5,-46.51 569,-56.51 576,-56.51"/>
<text text-anchor="middle" x="610" y="-98.8" font-family="Helvetica,sans-Serif" font-size="14.00" fill="purple">50k:1696.83</text>
<text text-anchor="middle" x="610" y="-83.8" font-family="Helvetica,sans-Serif" font-size="14.00" fill="purple"> 20k:51.96</text>
<text text-anchor="middle" x="610" y="-68.8" font-family="Helvetica,sans-Serif" font-size="14.00" fill="purple"> kont=1.0</text>
</g>
<!-- (1,1)&#45;&gt;(1,2) -->
<g id="edge15" class="edge">
<title>(1,1)&#45;&gt;(1,2)</title>
<path fill="none" stroke="purple" d="M73.5,-128.26C73.5,-108.38 73.5,-79.01 73.5,-56.58"/>
<polygon fill="purple" stroke="purple" points="77,-56.51 73.5,-46.51 70,-56.51 77,-56.51"/>
<text text-anchor="middle" x="109" y="-98.8" font-family="Helvetica,sans-Serif" font-size="14.00" fill="purple">50k:341.05</text>
<text text-anchor="middle" x="109" y="-83.8" font-family="Helvetica,sans-Serif" font-size="14.00" fill="purple"> 20k:665.72</text>
<text text-anchor="middle" x="109" y="-68.8" font-family="Helvetica,sans-Serif" font-size="14.00" fill="purple"> kont=1.0</text>
</g>
<!-- (2,1) -->
<g id="node21" class="node">
<title>(2,1)</title>
<polygon fill="none" stroke="black" points="1202,-128.5 1202,-174.5 1339,-174.5 1339,-128.5 1202,-128.5"/>
<text text-anchor="middle" x="1224" y="-147.8" font-family="Helvetica,sans-Serif" font-size="14.00">(2,1)</text>
<polyline fill="none" stroke="black" points="1246,-128.5 1246,-174.5 "/>
<text text-anchor="middle" x="1265" y="-159.3" font-family="Helvetica,sans-Serif" font-size="14.00">50k</text>
<polyline fill="none" stroke="black" points="1246,-151.5 1284,-151.5 "/>
<text text-anchor="middle" x="1265" y="-136.3" font-family="Helvetica,sans-Serif" font-size="14.00">20k</text>
<polyline fill="none" stroke="black" points="1284,-128.5 1284,-174.5 "/>
<text text-anchor="middle" x="1311.5" y="-159.3" font-family="Helvetica,sans-Serif" font-size="14.00">&#45;60.7</text>
<polyline fill="none" stroke="black" points="1284,-151.5 1339,-151.5 "/>
<text text-anchor="middle" x="1311.5" y="-136.3" font-family="Helvetica,sans-Serif" font-size="14.00">&#45;35.93</text>
</g>
<!-- (2,1)&#45;&gt;(2,2) -->
<g id="edge16" class="edge">
<title>(2,1)&#45;&gt;(2,2)</title>
<path fill="none" stroke="purple" d="M1270.5,-128.26C1270.5,-108.38 1270.5,-79.01 1270.5,-56.58"/>
<polygon fill="purple" stroke="purple" points="1274,-56.51 1270.5,-46.51 1267,-56.51 1274,-56.51"/>
<text text-anchor="middle" x="1306" y="-98.8" font-family="Helvetica,sans-Serif" font-size="14.00" fill="purple">50k:99.66</text>
<text text-anchor="middle" x="1306" y="-83.8" font-family="Helvetica,sans-Serif" font-size="14.00" fill="purple"> 20k:429.99</text>
<text text-anchor="middle" x="1306" y="-68.8" font-family="Helvetica,sans-Serif" font-size="14.00" fill="purple"> kont=1.0</text>
</g>
<!-- (2,0) -->
<g id="node23" class="node">
<title>(2,0)</title>
<polygon fill="none" stroke="black" points="1200.5,-271.5 1200.5,-317.5 1340.5,-317.5 1340.5,-271.5 1200.5,-271.5"/>
<text text-anchor="middle" x="1222.5" y="-290.8" font-family="Helvetica,sans-Serif" font-size="14.00">(2,0)</text>
<polyline fill="none" stroke="black" points="1244.5,-271.5 1244.5,-317.5 "/>
<text text-anchor="middle" x="1263.5" y="-302.3" font-family="Helvetica,sans-Serif" font-size="14.00">50k</text>
<polyline fill="none" stroke="black" points="1244.5,-294.5 1282.5,-294.5 "/>
<text text-anchor="middle" x="1263.5" y="-279.3" font-family="Helvetica,sans-Serif" font-size="14.00">20k</text>
<polyline fill="none" stroke="black" points="1282.5,-271.5 1282.5,-317.5 "/>
<text text-anchor="middle" x="1311.5" y="-302.3" font-family="Helvetica,sans-Serif" font-size="14.00">38.96</text>
<polyline fill="none" stroke="black" points="1282.5,-294.5 1340.5,-294.5 "/>
<text text-anchor="middle" x="1311.5" y="-279.3" font-family="Helvetica,sans-Serif" font-size="14.00">394.07</text>
</g>
<!-- (2,0)&#45;&gt;(2,1) -->
<g id="edge17" class="edge">
<title>(2,0)&#45;&gt;(2,1)</title>
<path fill="none" stroke="purple" d="M1270.5,-271.47C1270.5,-248.32 1270.5,-211.67 1270.5,-185.16"/>
<polygon fill="purple" stroke="purple" points="1274,-184.84 1270.5,-174.84 1267,-184.84 1274,-184.84"/>
<text text-anchor="middle" x="1306" y="-234.3" font-family="Helvetica,sans-Serif" font-size="14.00" fill="purple">50k:38.96</text>
<text text-anchor="middle" x="1306" y="-219.3" font-family="Helvetica,sans-Serif" font-size="14.00" fill="purple"> 20k:394.07</text>
<text text-anchor="middle" x="1306" y="-204.3" font-family="Helvetica,sans-Serif" font-size="14.00" fill="purple"> kont=1.0</text>
</g>
<!-- (8,1)&#45;&gt;(8,2) -->
<g id="edge18" class="edge">
<title>(8,1)&#45;&gt;(8,2)</title>
<path fill="none" stroke="purple" d="M1085.5,-128.26C1085.5,-108.38 1085.5,-79.01 1085.5,-56.58"/>
<polygon fill="purple" stroke="purple" points="1089,-56.51 1085.5,-46.51 1082,-56.51 1089,-56.51"/>
<text text-anchor="middle" x="1121" y="-98.8" font-family="Helvetica,sans-Serif" font-size="14.00" fill="purple">50k:0.0</text>
<text text-anchor="middle" x="1121" y="-83.8" font-family="Helvetica,sans-Serif" font-size="14.00" fill="purple"> 20k:565.27</text>
<text text-anchor="middle" x="1121" y="-68.8" font-family="Helvetica,sans-Serif" font-size="14.00" fill="purple"> kont=1.0</text>
</g>
</g>
</svg>
