<?xml version="1.0" encoding="UTF-8" standalone="no"?>
<!DOCTYPE svg PUBLIC "-//W3C//DTD SVG 1.1//EN"
 "http://www.w3.org/Graphics/SVG/1.1/DTD/svg11.dtd">
<!-- Generated by graphviz version 2.50.0 (0)
 -->
<!-- Title: expanded Pages: 1 -->
<svg width="863pt" height="447pt"
 viewBox="0.00 0.00 863.00 447.00" xmlns="http://www.w3.org/2000/svg" xmlns:xlink="http://www.w3.org/1999/xlink">
<g id="graph0" class="graph" transform="scale(1 1) rotate(0) translate(4 443)">
<title>expanded</title>
<polygon fill="white" stroke="transparent" points="-4,4 -4,-443 859,-443 859,4 -4,4"/>
<!-- (jkt,t=2) -->
<g id="node1" class="node">
<title>(jkt,t=2)</title>
<polygon fill="none" stroke="black" points="525.5,-196.5 525.5,-242.5 671.5,-242.5 671.5,-196.5 525.5,-196.5"/>
<text text-anchor="middle" x="550.5" y="-215.8" font-family="Helvetica,sans-Serif" font-size="14.00">(jkt,2)</text>
<polyline fill="none" stroke="black" points="575.5,-196.5 575.5,-242.5 "/>
<text text-anchor="middle" x="594.5" y="-227.3" font-family="Helvetica,sans-Serif" font-size="14.00">50k</text>
<polyline fill="none" stroke="black" points="575.5,-219.5 613.5,-219.5 "/>
<text text-anchor="middle" x="594.5" y="-204.3" font-family="Helvetica,sans-Serif" font-size="14.00">20k</text>
<polyline fill="none" stroke="black" points="613.5,-196.5 613.5,-242.5 "/>
<text text-anchor="middle" x="642.5" y="-227.3" font-family="Helvetica,sans-Serif" font-size="14.00">&#45;89.19</text>
<polyline fill="none" stroke="black" points="613.5,-219.5 671.5,-219.5 "/>
<text text-anchor="middle" x="642.5" y="-204.3" font-family="Helvetica,sans-Serif" font-size="14.00">148.29</text>
</g>
<!-- (cbn,t=3) -->
<g id="node2" class="node">
<title>(cbn,t=3)</title>
<polygon fill="none" stroke="black" points="340,-98.5 340,-144.5 499,-144.5 499,-98.5 340,-98.5"/>
<text text-anchor="middle" x="369.5" y="-117.8" font-family="Helvetica,sans-Serif" font-size="14.00">(cbn,3)</text>
<polyline fill="none" stroke="black" points="399,-98.5 399,-144.5 "/>
<text text-anchor="middle" x="418" y="-129.3" font-family="Helvetica,sans-Serif" font-size="14.00">50k</text>
<polyline fill="none" stroke="black" points="399,-121.5 437,-121.5 "/>
<text text-anchor="middle" x="418" y="-106.3" font-family="Helvetica,sans-Serif" font-size="14.00">20k</text>
<polyline fill="none" stroke="black" points="437,-98.5 437,-144.5 "/>
<text text-anchor="middle" x="468" y="-129.3" font-family="Helvetica,sans-Serif" font-size="14.00">&#45;40.6</text>
<polyline fill="none" stroke="black" points="437,-121.5 499,-121.5 "/>
<text text-anchor="middle" x="468" y="-106.3" font-family="Helvetica,sans-Serif" font-size="14.00">&#45;257.57</text>
</g>
<!-- (jkt,t=2)&#45;&gt;(cbn,t=3) -->
<g id="edge35" class="edge">
<title>(jkt,t=2)&#45;&gt;(cbn,t=3)</title>
<path fill="none" stroke="blue" d="M570.67,-196.25C556.24,-185.35 538,-172.56 520.5,-163 511.04,-157.83 500.79,-152.96 490.56,-148.5"/>
<polygon fill="blue" stroke="blue" points="491.76,-145.22 481.19,-144.53 489.03,-151.66 491.76,-145.22"/>
<text text-anchor="middle" x="554" y="-166.8" font-family="Helvetica,sans-Serif" font-size="14.00" fill="blue">truk</text>
</g>
<!-- (jkt,t=3) -->
<g id="node5" class="node">
<title>(jkt,t=3)</title>
<polygon fill="none" stroke="black" points="517.5,-98.5 517.5,-144.5 667.5,-144.5 667.5,-98.5 517.5,-98.5"/>
<text text-anchor="middle" x="542.5" y="-117.8" font-family="Helvetica,sans-Serif" font-size="14.00">(jkt,3)</text>
<polyline fill="none" stroke="black" points="567.5,-98.5 567.5,-144.5 "/>
<text text-anchor="middle" x="586.5" y="-129.3" font-family="Helvetica,sans-Serif" font-size="14.00">50k</text>
<polyline fill="none" stroke="black" points="567.5,-121.5 605.5,-121.5 "/>
<text text-anchor="middle" x="586.5" y="-106.3" font-family="Helvetica,sans-Serif" font-size="14.00">20k</text>
<polyline fill="none" stroke="black" points="605.5,-98.5 605.5,-144.5 "/>
<text text-anchor="middle" x="636.5" y="-129.3" font-family="Helvetica,sans-Serif" font-size="14.00">&#45;104.49</text>
<polyline fill="none" stroke="black" points="605.5,-121.5 667.5,-121.5 "/>
<text text-anchor="middle" x="636.5" y="-106.3" font-family="Helvetica,sans-Serif" font-size="14.00">2.26</text>
</g>
<!-- (jkt,t=2)&#45;&gt;(jkt,t=3) -->
<g id="edge38" class="edge">
<title>(jkt,t=2)&#45;&gt;(jkt,t=3)</title>
<path fill="none" stroke="purple" d="M597.11,-196.23C596.34,-183.88 595.36,-168.29 594.51,-154.63"/>
<polygon fill="purple" stroke="purple" points="598,-154.41 593.88,-144.64 591.01,-154.84 598,-154.41"/>
<text text-anchor="middle" x="604.5" y="-166.8" font-family="Helvetica,sans-Serif" font-size="14.00" fill="purple">inv</text>
</g>
<!-- (yyk,t=3) -->
<g id="node8" class="node">
<title>(yyk,t=3)</title>
<polygon fill="none" stroke="black" points="686,-98.5 686,-144.5 843,-144.5 843,-98.5 686,-98.5"/>
<text text-anchor="middle" x="714.5" y="-117.8" font-family="Helvetica,sans-Serif" font-size="14.00">(yyk,3)</text>
<polyline fill="none" stroke="black" points="743,-98.5 743,-144.5 "/>
<text text-anchor="middle" x="762" y="-129.3" font-family="Helvetica,sans-Serif" font-size="14.00">50k</text>
<polyline fill="none" stroke="black" points="743,-121.5 781,-121.5 "/>
<text text-anchor="middle" x="762" y="-106.3" font-family="Helvetica,sans-Serif" font-size="14.00">20k</text>
<polyline fill="none" stroke="black" points="781,-98.5 781,-144.5 "/>
<text text-anchor="middle" x="812" y="-129.3" font-family="Helvetica,sans-Serif" font-size="14.00">278.35</text>
<polyline fill="none" stroke="black" points="781,-121.5 843,-121.5 "/>
<text text-anchor="middle" x="812" y="-106.3" font-family="Helvetica,sans-Serif" font-size="14.00">&#45;146.91</text>
</g>
<!-- (jkt,t=2)&#45;&gt;(yyk,t=3) -->
<g id="edge36" class="edge">
<title>(jkt,t=2)&#45;&gt;(yyk,t=3)</title>
<path fill="none" stroke="red" d="M620.85,-196.23C632.78,-185.2 648.14,-172.29 663.5,-163 672.2,-157.74 681.7,-152.9 691.29,-148.54"/>
<polygon fill="red" stroke="red" points="692.73,-151.73 700.48,-144.51 689.91,-145.32 692.73,-151.73"/>
<text text-anchor="middle" x="675" y="-166.8" font-family="Helvetica,sans-Serif" font-size="14.00" fill="red">krta</text>
</g>
<!-- (jkt,t=2)&#45;&gt;(yyk,t=3) -->
<g id="edge37" class="edge">
<title>(jkt,t=2)&#45;&gt;(yyk,t=3)</title>
<path fill="none" stroke="blue" d="M650.97,-196.31C662.87,-190.74 675.29,-184.49 686.5,-178 700.54,-169.87 715.21,-159.87 728,-150.61"/>
<polygon fill="blue" stroke="blue" points="730.11,-153.4 736.1,-144.66 725.97,-147.76 730.11,-153.4"/>
<text text-anchor="middle" x="720" y="-166.8" font-family="Helvetica,sans-Serif" font-size="14.00" fill="blue">truk</text>
</g>
<!-- (cbn,t=4) -->
<g id="node21" class="node">
<title>(cbn,t=4)</title>
<polygon fill="none" stroke="black" points="341,-0.5 341,-46.5 500,-46.5 500,-0.5 341,-0.5"/>
<text text-anchor="middle" x="370.5" y="-19.8" font-family="Helvetica,sans-Serif" font-size="14.00">(cbn,4)</text>
<polyline fill="none" stroke="black" points="400,-0.5 400,-46.5 "/>
<text text-anchor="middle" x="419" y="-31.3" font-family="Helvetica,sans-Serif" font-size="14.00">50k</text>
<polyline fill="none" stroke="black" points="400,-23.5 438,-23.5 "/>
<text text-anchor="middle" x="419" y="-8.3" font-family="Helvetica,sans-Serif" font-size="14.00">20k</text>
<polyline fill="none" stroke="black" points="438,-0.5 438,-46.5 "/>
<text text-anchor="middle" x="469" y="-31.3" font-family="Helvetica,sans-Serif" font-size="14.00">&#45;114.17</text>
<polyline fill="none" stroke="black" points="438,-23.5 500,-23.5 "/>
<text text-anchor="middle" x="469" y="-8.3" font-family="Helvetica,sans-Serif" font-size="14.00">26.76</text>
</g>
<!-- (cbn,t=3)&#45;&gt;(cbn,t=4) -->
<g id="edge3" class="edge">
<title>(cbn,t=3)&#45;&gt;(cbn,t=4)</title>
<path fill="none" stroke="purple" d="M419.73,-98.23C419.86,-86 420.02,-70.59 420.16,-57.03"/>
<polygon fill="purple" stroke="purple" points="423.66,-56.68 420.27,-46.64 416.67,-56.61 423.66,-56.68"/>
<text text-anchor="middle" x="428.5" y="-68.8" font-family="Helvetica,sans-Serif" font-size="14.00" fill="purple">inv</text>
</g>
<!-- (yyk,t=1) -->
<g id="node3" class="node">
<title>(yyk,t=1)</title>
<polygon fill="none" stroke="black" points="689.5,-294.5 689.5,-340.5 839.5,-340.5 839.5,-294.5 689.5,-294.5"/>
<text text-anchor="middle" x="718" y="-313.8" font-family="Helvetica,sans-Serif" font-size="14.00">(yyk,1)</text>
<polyline fill="none" stroke="black" points="746.5,-294.5 746.5,-340.5 "/>
<text text-anchor="middle" x="765.5" y="-325.3" font-family="Helvetica,sans-Serif" font-size="14.00">50k</text>
<polyline fill="none" stroke="black" points="746.5,-317.5 784.5,-317.5 "/>
<text text-anchor="middle" x="765.5" y="-302.3" font-family="Helvetica,sans-Serif" font-size="14.00">20k</text>
<polyline fill="none" stroke="black" points="784.5,-294.5 784.5,-340.5 "/>
<text text-anchor="middle" x="812" y="-325.3" font-family="Helvetica,sans-Serif" font-size="14.00">&#45;83.86</text>
<polyline fill="none" stroke="black" points="784.5,-317.5 839.5,-317.5 "/>
<text text-anchor="middle" x="812" y="-302.3" font-family="Helvetica,sans-Serif" font-size="14.00">30.27</text>
</g>
<!-- (yyk,t=2) -->
<g id="node23" class="node">
<title>(yyk,t=2)</title>
<polygon fill="none" stroke="black" points="691,-196.5 691,-242.5 836,-242.5 836,-196.5 691,-196.5"/>
<text text-anchor="middle" x="719.5" y="-215.8" font-family="Helvetica,sans-Serif" font-size="14.00">(yyk,2)</text>
<polyline fill="none" stroke="black" points="748,-196.5 748,-242.5 "/>
<text text-anchor="middle" x="767" y="-227.3" font-family="Helvetica,sans-Serif" font-size="14.00">50k</text>
<polyline fill="none" stroke="black" points="748,-219.5 786,-219.5 "/>
<text text-anchor="middle" x="767" y="-204.3" font-family="Helvetica,sans-Serif" font-size="14.00">20k</text>
<polyline fill="none" stroke="black" points="786,-196.5 786,-242.5 "/>
<text text-anchor="middle" x="811" y="-227.3" font-family="Helvetica,sans-Serif" font-size="14.00">16.67</text>
<polyline fill="none" stroke="black" points="786,-219.5 836,-219.5 "/>
<text text-anchor="middle" x="811" y="-204.3" font-family="Helvetica,sans-Serif" font-size="14.00">193.3</text>
</g>
<!-- (yyk,t=1)&#45;&gt;(yyk,t=2) -->
<g id="edge4" class="edge">
<title>(yyk,t=1)&#45;&gt;(yyk,t=2)</title>
<path fill="none" stroke="purple" d="M764.27,-294.23C764.14,-282 763.98,-266.59 763.84,-253.03"/>
<polygon fill="purple" stroke="purple" points="767.33,-252.61 763.73,-242.64 760.34,-252.68 767.33,-252.61"/>
<text text-anchor="middle" x="772.5" y="-264.8" font-family="Helvetica,sans-Serif" font-size="14.00" fill="purple">inv</text>
</g>
<!-- (bdg,t=0) -->
<g id="node4" class="node">
<title>(bdg,t=0)</title>
<polygon fill="none" stroke="black" points="177,-392.5 177,-438.5 332,-438.5 332,-392.5 177,-392.5"/>
<text text-anchor="middle" x="206.5" y="-411.8" font-family="Helvetica,sans-Serif" font-size="14.00">(bdg,0)</text>
<polyline fill="none" stroke="black" points="236,-392.5 236,-438.5 "/>
<text text-anchor="middle" x="255" y="-423.3" font-family="Helvetica,sans-Serif" font-size="14.00">50k</text>
<polyline fill="none" stroke="black" points="236,-415.5 274,-415.5 "/>
<text text-anchor="middle" x="255" y="-400.3" font-family="Helvetica,sans-Serif" font-size="14.00">20k</text>
<polyline fill="none" stroke="black" points="274,-392.5 274,-438.5 "/>
<text text-anchor="middle" x="303" y="-423.3" font-family="Helvetica,sans-Serif" font-size="14.00">38.96</text>
<polyline fill="none" stroke="black" points="274,-415.5 332,-415.5 "/>
<text text-anchor="middle" x="303" y="-400.3" font-family="Helvetica,sans-Serif" font-size="14.00">394.07</text>
</g>
<!-- (bdg,t=1) -->
<g id="node16" class="node">
<title>(bdg,t=1)</title>
<polygon fill="none" stroke="black" points="178.5,-294.5 178.5,-340.5 330.5,-340.5 330.5,-294.5 178.5,-294.5"/>
<text text-anchor="middle" x="208" y="-313.8" font-family="Helvetica,sans-Serif" font-size="14.00">(bdg,1)</text>
<polyline fill="none" stroke="black" points="237.5,-294.5 237.5,-340.5 "/>
<text text-anchor="middle" x="256.5" y="-325.3" font-family="Helvetica,sans-Serif" font-size="14.00">50k</text>
<polyline fill="none" stroke="black" points="237.5,-317.5 275.5,-317.5 "/>
<text text-anchor="middle" x="256.5" y="-302.3" font-family="Helvetica,sans-Serif" font-size="14.00">20k</text>
<polyline fill="none" stroke="black" points="275.5,-294.5 275.5,-340.5 "/>
<text text-anchor="middle" x="303" y="-325.3" font-family="Helvetica,sans-Serif" font-size="14.00">&#45;60.7</text>
<polyline fill="none" stroke="black" points="275.5,-317.5 330.5,-317.5 "/>
<text text-anchor="middle" x="303" y="-302.3" font-family="Helvetica,sans-Serif" font-size="14.00">&#45;35.93</text>
</g>
<!-- (bdg,t=0)&#45;&gt;(bdg,t=1) -->
<g id="edge6" class="edge">
<title>(bdg,t=0)&#45;&gt;(bdg,t=1)</title>
<path fill="none" stroke="purple" d="M254.5,-392.23C254.5,-380 254.5,-364.59 254.5,-351.03"/>
<polygon fill="purple" stroke="purple" points="258,-350.64 254.5,-340.64 251,-350.64 258,-350.64"/>
<text text-anchor="middle" x="263.5" y="-362.8" font-family="Helvetica,sans-Serif" font-size="14.00" fill="purple">inv</text>
</g>
<!-- (sby,t=1) -->
<g id="node22" class="node">
<title>(sby,t=1)</title>
<polygon fill="none" stroke="black" points="2,-294.5 2,-340.5 159,-340.5 159,-294.5 2,-294.5"/>
<text text-anchor="middle" x="30.5" y="-313.8" font-family="Helvetica,sans-Serif" font-size="14.00">(sby,1)</text>
<polyline fill="none" stroke="black" points="59,-294.5 59,-340.5 "/>
<text text-anchor="middle" x="78" y="-325.3" font-family="Helvetica,sans-Serif" font-size="14.00">50k</text>
<polyline fill="none" stroke="black" points="59,-317.5 97,-317.5 "/>
<text text-anchor="middle" x="78" y="-302.3" font-family="Helvetica,sans-Serif" font-size="14.00">20k</text>
<polyline fill="none" stroke="black" points="97,-294.5 97,-340.5 "/>
<text text-anchor="middle" x="128" y="-325.3" font-family="Helvetica,sans-Serif" font-size="14.00">&#45;185.62</text>
<polyline fill="none" stroke="black" points="97,-317.5 159,-317.5 "/>
<text text-anchor="middle" x="128" y="-302.3" font-family="Helvetica,sans-Serif" font-size="14.00">&#45;62.17</text>
</g>
<!-- (bdg,t=0)&#45;&gt;(sby,t=1) -->
<g id="edge5" class="edge">
<title>(bdg,t=0)&#45;&gt;(sby,t=1)</title>
<path fill="none" stroke="red" d="M214.58,-392.48C189.25,-378.5 156.3,-360.32 129.4,-345.48"/>
<polygon fill="red" stroke="red" points="130.98,-342.35 120.53,-340.59 127.6,-348.48 130.98,-342.35"/>
<text text-anchor="middle" x="190" y="-362.8" font-family="Helvetica,sans-Serif" font-size="14.00" fill="red">krta</text>
</g>
<!-- (cbn,t=1) -->
<g id="node24" class="node">
<title>(cbn,t=1)</title>
<polygon fill="none" stroke="black" points="355.5,-294.5 355.5,-340.5 507.5,-340.5 507.5,-294.5 355.5,-294.5"/>
<text text-anchor="middle" x="385" y="-313.8" font-family="Helvetica,sans-Serif" font-size="14.00">(cbn,1)</text>
<polyline fill="none" stroke="black" points="414.5,-294.5 414.5,-340.5 "/>
<text text-anchor="middle" x="433.5" y="-325.3" font-family="Helvetica,sans-Serif" font-size="14.00">50k</text>
<polyline fill="none" stroke="black" points="414.5,-317.5 452.5,-317.5 "/>
<text text-anchor="middle" x="433.5" y="-302.3" font-family="Helvetica,sans-Serif" font-size="14.00">20k</text>
<polyline fill="none" stroke="black" points="452.5,-294.5 452.5,-340.5 "/>
<text text-anchor="middle" x="480" y="-325.3" font-family="Helvetica,sans-Serif" font-size="14.00">&#45;87.76</text>
<polyline fill="none" stroke="black" points="452.5,-317.5 507.5,-317.5 "/>
<text text-anchor="middle" x="480" y="-302.3" font-family="Helvetica,sans-Serif" font-size="14.00">126.7</text>
</g>
<!-- (bdg,t=0)&#45;&gt;(cbn,t=1) -->
<g id="edge7" class="edge">
<title>(bdg,t=0)&#45;&gt;(cbn,t=1)</title>
<path fill="none" stroke="blue" d="M295.11,-392.48C320.87,-378.5 354.39,-360.32 381.75,-345.48"/>
<polygon fill="blue" stroke="blue" points="383.65,-348.43 390.78,-340.59 380.32,-342.28 383.65,-348.43"/>
<text text-anchor="middle" x="365" y="-362.8" font-family="Helvetica,sans-Serif" font-size="14.00" fill="blue">truk</text>
</g>
<!-- (jkt,t=4) -->
<g id="node15" class="node">
<title>(jkt,t=4)</title>
<polygon fill="none" stroke="black" points="519.5,-0.5 519.5,-46.5 665.5,-46.5 665.5,-0.5 519.5,-0.5"/>
<text text-anchor="middle" x="544.5" y="-19.8" font-family="Helvetica,sans-Serif" font-size="14.00">(jkt,4)</text>
<polyline fill="none" stroke="black" points="569.5,-0.5 569.5,-46.5 "/>
<text text-anchor="middle" x="588.5" y="-31.3" font-family="Helvetica,sans-Serif" font-size="14.00">50k</text>
<polyline fill="none" stroke="black" points="569.5,-23.5 607.5,-23.5 "/>
<text text-anchor="middle" x="588.5" y="-8.3" font-family="Helvetica,sans-Serif" font-size="14.00">20k</text>
<polyline fill="none" stroke="black" points="607.5,-0.5 607.5,-46.5 "/>
<text text-anchor="middle" x="636.5" y="-31.3" font-family="Helvetica,sans-Serif" font-size="14.00">&#45;67.52</text>
<polyline fill="none" stroke="black" points="607.5,-23.5 665.5,-23.5 "/>
<text text-anchor="middle" x="636.5" y="-8.3" font-family="Helvetica,sans-Serif" font-size="14.00">380.73</text>
</g>
<!-- (jkt,t=3)&#45;&gt;(jkt,t=4) -->
<g id="edge8" class="edge">
<title>(jkt,t=3)&#45;&gt;(jkt,t=4)</title>
<path fill="none" stroke="purple" d="M592.5,-98.23C592.5,-86 592.5,-70.59 592.5,-57.03"/>
<polygon fill="purple" stroke="purple" points="596,-56.64 592.5,-46.64 589,-56.64 596,-56.64"/>
<text text-anchor="middle" x="601.5" y="-68.8" font-family="Helvetica,sans-Serif" font-size="14.00" fill="purple">inv</text>
</g>
<!-- (bdg,t=4) -->
<g id="node6" class="node">
<title>(bdg,t=4)</title>
<polygon fill="none" stroke="black" points="170.5,-0.5 170.5,-46.5 322.5,-46.5 322.5,-0.5 170.5,-0.5"/>
<text text-anchor="middle" x="200" y="-19.8" font-family="Helvetica,sans-Serif" font-size="14.00">(bdg,4)</text>
<polyline fill="none" stroke="black" points="229.5,-0.5 229.5,-46.5 "/>
<text text-anchor="middle" x="248.5" y="-31.3" font-family="Helvetica,sans-Serif" font-size="14.00">50k</text>
<polyline fill="none" stroke="black" points="229.5,-23.5 267.5,-23.5 "/>
<text text-anchor="middle" x="248.5" y="-8.3" font-family="Helvetica,sans-Serif" font-size="14.00">20k</text>
<polyline fill="none" stroke="black" points="267.5,-0.5 267.5,-46.5 "/>
<text text-anchor="middle" x="295" y="-31.3" font-family="Helvetica,sans-Serif" font-size="14.00">8.53</text>
<polyline fill="none" stroke="black" points="267.5,-23.5 322.5,-23.5 "/>
<text text-anchor="middle" x="295" y="-8.3" font-family="Helvetica,sans-Serif" font-size="14.00">&#45;47.93</text>
</g>
<!-- (bdg,t=2) -->
<g id="node7" class="node">
<title>(bdg,t=2)</title>
<polygon fill="none" stroke="black" points="175,-196.5 175,-242.5 334,-242.5 334,-196.5 175,-196.5"/>
<text text-anchor="middle" x="204.5" y="-215.8" font-family="Helvetica,sans-Serif" font-size="14.00">(bdg,2)</text>
<polyline fill="none" stroke="black" points="234,-196.5 234,-242.5 "/>
<text text-anchor="middle" x="253" y="-227.3" font-family="Helvetica,sans-Serif" font-size="14.00">50k</text>
<polyline fill="none" stroke="black" points="234,-219.5 272,-219.5 "/>
<text text-anchor="middle" x="253" y="-204.3" font-family="Helvetica,sans-Serif" font-size="14.00">20k</text>
<polyline fill="none" stroke="black" points="272,-196.5 272,-242.5 "/>
<text text-anchor="middle" x="303" y="-227.3" font-family="Helvetica,sans-Serif" font-size="14.00">&#45;125.69</text>
<polyline fill="none" stroke="black" points="272,-219.5 334,-219.5 "/>
<text text-anchor="middle" x="303" y="-204.3" font-family="Helvetica,sans-Serif" font-size="14.00">&#45;235.94</text>
</g>
<!-- (bdg,t=2)&#45;&gt;(cbn,t=3) -->
<g id="edge9" class="edge">
<title>(bdg,t=2)&#45;&gt;(cbn,t=3)</title>
<path fill="none" stroke="blue" d="M292.35,-196.48C316.27,-182.56 347.35,-164.48 372.79,-149.68"/>
<polygon fill="blue" stroke="blue" points="374.65,-152.64 381.54,-144.59 371.13,-146.59 374.65,-152.64"/>
<text text-anchor="middle" x="358" y="-166.8" font-family="Helvetica,sans-Serif" font-size="14.00" fill="blue">truk</text>
</g>
<!-- (sby,t=3) -->
<g id="node9" class="node">
<title>(sby,t=3)</title>
<polygon fill="none" stroke="black" points="0,-98.5 0,-144.5 157,-144.5 157,-98.5 0,-98.5"/>
<text text-anchor="middle" x="28.5" y="-117.8" font-family="Helvetica,sans-Serif" font-size="14.00">(sby,3)</text>
<polyline fill="none" stroke="black" points="57,-98.5 57,-144.5 "/>
<text text-anchor="middle" x="76" y="-129.3" font-family="Helvetica,sans-Serif" font-size="14.00">50k</text>
<polyline fill="none" stroke="black" points="57,-121.5 95,-121.5 "/>
<text text-anchor="middle" x="76" y="-106.3" font-family="Helvetica,sans-Serif" font-size="14.00">20k</text>
<polyline fill="none" stroke="black" points="95,-98.5 95,-144.5 "/>
<text text-anchor="middle" x="126" y="-129.3" font-family="Helvetica,sans-Serif" font-size="14.00">142.54</text>
<polyline fill="none" stroke="black" points="95,-121.5 157,-121.5 "/>
<text text-anchor="middle" x="126" y="-106.3" font-family="Helvetica,sans-Serif" font-size="14.00">&#45;334.48</text>
</g>
<!-- (bdg,t=2)&#45;&gt;(sby,t=3) -->
<g id="edge10" class="edge">
<title>(bdg,t=2)&#45;&gt;(sby,t=3)</title>
<path fill="none" stroke="red" d="M214.12,-196.48C188.5,-182.5 155.17,-164.32 127.97,-149.48"/>
<polygon fill="red" stroke="red" points="129.45,-146.3 118.99,-144.59 126.1,-152.45 129.45,-146.3"/>
<text text-anchor="middle" x="189" y="-166.8" font-family="Helvetica,sans-Serif" font-size="14.00" fill="red">krta</text>
</g>
<!-- (bdg,t=3) -->
<g id="node10" class="node">
<title>(bdg,t=3)</title>
<polygon fill="none" stroke="black" points="175,-98.5 175,-144.5 322,-144.5 322,-98.5 175,-98.5"/>
<text text-anchor="middle" x="204.5" y="-117.8" font-family="Helvetica,sans-Serif" font-size="14.00">(bdg,3)</text>
<polyline fill="none" stroke="black" points="234,-98.5 234,-144.5 "/>
<text text-anchor="middle" x="253" y="-129.3" font-family="Helvetica,sans-Serif" font-size="14.00">50k</text>
<polyline fill="none" stroke="black" points="234,-121.5 272,-121.5 "/>
<text text-anchor="middle" x="253" y="-106.3" font-family="Helvetica,sans-Serif" font-size="14.00">20k</text>
<polyline fill="none" stroke="black" points="272,-98.5 272,-144.5 "/>
<text text-anchor="middle" x="297" y="-129.3" font-family="Helvetica,sans-Serif" font-size="14.00">&#45;86.0</text>
<polyline fill="none" stroke="black" points="272,-121.5 322,-121.5 "/>
<text text-anchor="middle" x="297" y="-106.3" font-family="Helvetica,sans-Serif" font-size="14.00">28.33</text>
</g>
<!-- (bdg,t=2)&#45;&gt;(bdg,t=3) -->
<g id="edge11" class="edge">
<title>(bdg,t=2)&#45;&gt;(bdg,t=3)</title>
<path fill="none" stroke="purple" d="M253.11,-196.23C252.34,-183.88 251.36,-168.29 250.51,-154.63"/>
<polygon fill="purple" stroke="purple" points="254,-154.41 249.88,-144.64 247.01,-154.84 254,-154.41"/>
<text text-anchor="middle" x="260.5" y="-166.8" font-family="Helvetica,sans-Serif" font-size="14.00" fill="purple">inv</text>
</g>
<!-- (yyk,t=4) -->
<g id="node12" class="node">
<title>(yyk,t=4)</title>
<polygon fill="none" stroke="black" points="689.5,-0.5 689.5,-46.5 839.5,-46.5 839.5,-0.5 689.5,-0.5"/>
<text text-anchor="middle" x="718" y="-19.8" font-family="Helvetica,sans-Serif" font-size="14.00">(yyk,4)</text>
<polyline fill="none" stroke="black" points="746.5,-0.5 746.5,-46.5 "/>
<text text-anchor="middle" x="765.5" y="-31.3" font-family="Helvetica,sans-Serif" font-size="14.00">50k</text>
<polyline fill="none" stroke="black" points="746.5,-23.5 784.5,-23.5 "/>
<text text-anchor="middle" x="765.5" y="-8.3" font-family="Helvetica,sans-Serif" font-size="14.00">20k</text>
<polyline fill="none" stroke="black" points="784.5,-0.5 784.5,-46.5 "/>
<text text-anchor="middle" x="812" y="-31.3" font-family="Helvetica,sans-Serif" font-size="14.00">&#45;48.22</text>
<polyline fill="none" stroke="black" points="784.5,-23.5 839.5,-23.5 "/>
<text text-anchor="middle" x="812" y="-8.3" font-family="Helvetica,sans-Serif" font-size="14.00">51.81</text>
</g>
<!-- (yyk,t=3)&#45;&gt;(yyk,t=4) -->
<g id="edge12" class="edge">
<title>(yyk,t=3)&#45;&gt;(yyk,t=4)</title>
<path fill="none" stroke="purple" d="M764.5,-98.23C764.5,-86 764.5,-70.59 764.5,-57.03"/>
<polygon fill="purple" stroke="purple" points="768,-56.64 764.5,-46.64 761,-56.64 768,-56.64"/>
<text text-anchor="middle" x="773.5" y="-68.8" font-family="Helvetica,sans-Serif" font-size="14.00" fill="purple">inv</text>
</g>
<!-- (sby,t=4) -->
<g id="node25" class="node">
<title>(sby,t=4)</title>
<polygon fill="none" stroke="black" points="6,-0.5 6,-46.5 151,-46.5 151,-0.5 6,-0.5"/>
<text text-anchor="middle" x="34.5" y="-19.8" font-family="Helvetica,sans-Serif" font-size="14.00">(sby,4)</text>
<polyline fill="none" stroke="black" points="63,-0.5 63,-46.5 "/>
<text text-anchor="middle" x="82" y="-31.3" font-family="Helvetica,sans-Serif" font-size="14.00">50k</text>
<polyline fill="none" stroke="black" points="63,-23.5 101,-23.5 "/>
<text text-anchor="middle" x="82" y="-8.3" font-family="Helvetica,sans-Serif" font-size="14.00">20k</text>
<polyline fill="none" stroke="black" points="101,-0.5 101,-46.5 "/>
<text text-anchor="middle" x="126" y="-31.3" font-family="Helvetica,sans-Serif" font-size="14.00">80.99</text>
<polyline fill="none" stroke="black" points="101,-23.5 151,-23.5 "/>
<text text-anchor="middle" x="126" y="-8.3" font-family="Helvetica,sans-Serif" font-size="14.00">327.9</text>
</g>
<!-- (sby,t=3)&#45;&gt;(sby,t=4) -->
<g id="edge13" class="edge">
<title>(sby,t=3)&#45;&gt;(sby,t=4)</title>
<path fill="none" stroke="purple" d="M78.5,-98.23C78.5,-86 78.5,-70.59 78.5,-57.03"/>
<polygon fill="purple" stroke="purple" points="82,-56.64 78.5,-46.64 75,-56.64 82,-56.64"/>
<text text-anchor="middle" x="87.5" y="-68.8" font-family="Helvetica,sans-Serif" font-size="14.00" fill="purple">inv</text>
</g>
<!-- (bdg,t=3)&#45;&gt;(bdg,t=4) -->
<g id="edge14" class="edge">
<title>(bdg,t=3)&#45;&gt;(bdg,t=4)</title>
<path fill="none" stroke="purple" d="M248.04,-98.23C247.78,-86 247.46,-70.59 247.18,-57.03"/>
<polygon fill="purple" stroke="purple" points="250.67,-56.57 246.96,-46.64 243.67,-56.72 250.67,-56.57"/>
<text text-anchor="middle" x="256.5" y="-68.8" font-family="Helvetica,sans-Serif" font-size="14.00" fill="purple">inv</text>
</g>
<!-- (jkt,t=0) -->
<g id="node11" class="node">
<title>(jkt,t=0)</title>
<polygon fill="none" stroke="black" points="531,-392.5 531,-438.5 684,-438.5 684,-392.5 531,-392.5"/>
<text text-anchor="middle" x="556" y="-411.8" font-family="Helvetica,sans-Serif" font-size="14.00">(jkt,0)</text>
<polyline fill="none" stroke="black" points="581,-392.5 581,-438.5 "/>
<text text-anchor="middle" x="600" y="-423.3" font-family="Helvetica,sans-Serif" font-size="14.00">50k</text>
<polyline fill="none" stroke="black" points="581,-415.5 619,-415.5 "/>
<text text-anchor="middle" x="600" y="-400.3" font-family="Helvetica,sans-Serif" font-size="14.00">20k</text>
<polyline fill="none" stroke="black" points="619,-392.5 619,-438.5 "/>
<text text-anchor="middle" x="651.5" y="-423.3" font-family="Helvetica,sans-Serif" font-size="14.00">378.79</text>
<polyline fill="none" stroke="black" points="619,-415.5 684,-415.5 "/>
<text text-anchor="middle" x="651.5" y="-400.3" font-family="Helvetica,sans-Serif" font-size="14.00">1053.47</text>
</g>
<!-- (jkt,t=0)&#45;&gt;(yyk,t=1) -->
<g id="edge16" class="edge">
<title>(jkt,t=0)&#45;&gt;(yyk,t=1)</title>
<path fill="none" stroke="red" d="M631.53,-392.32C644.05,-381.45 659.97,-368.65 675.5,-359 683.53,-354.01 692.27,-349.28 701.04,-344.93"/>
<polygon fill="red" stroke="red" points="702.67,-348.03 710.16,-340.53 699.63,-341.72 702.67,-348.03"/>
<text text-anchor="middle" x="687" y="-362.8" font-family="Helvetica,sans-Serif" font-size="14.00" fill="red">krta</text>
</g>
<!-- (jkt,t=0)&#45;&gt;(yyk,t=1) -->
<g id="edge17" class="edge">
<title>(jkt,t=0)&#45;&gt;(yyk,t=1)</title>
<path fill="none" stroke="blue" d="M663.63,-392.49C675.47,-387.03 687.65,-380.79 698.5,-374 710.74,-366.34 723.12,-356.58 733.8,-347.39"/>
<polygon fill="blue" stroke="blue" points="736.42,-349.75 741.61,-340.51 731.79,-344.49 736.42,-349.75"/>
<text text-anchor="middle" x="729" y="-362.8" font-family="Helvetica,sans-Serif" font-size="14.00" fill="blue">truk</text>
</g>
<!-- (jkt,t=1) -->
<g id="node17" class="node">
<title>(jkt,t=1)</title>
<polygon fill="none" stroke="black" points="525.5,-294.5 525.5,-340.5 671.5,-340.5 671.5,-294.5 525.5,-294.5"/>
<text text-anchor="middle" x="550.5" y="-313.8" font-family="Helvetica,sans-Serif" font-size="14.00">(jkt,1)</text>
<polyline fill="none" stroke="black" points="575.5,-294.5 575.5,-340.5 "/>
<text text-anchor="middle" x="594.5" y="-325.3" font-family="Helvetica,sans-Serif" font-size="14.00">50k</text>
<polyline fill="none" stroke="black" points="575.5,-317.5 613.5,-317.5 "/>
<text text-anchor="middle" x="594.5" y="-302.3" font-family="Helvetica,sans-Serif" font-size="14.00">20k</text>
<polyline fill="none" stroke="black" points="613.5,-294.5 613.5,-340.5 "/>
<text text-anchor="middle" x="642.5" y="-325.3" font-family="Helvetica,sans-Serif" font-size="14.00">37.74</text>
<polyline fill="none" stroke="black" points="613.5,-317.5 671.5,-317.5 "/>
<text text-anchor="middle" x="642.5" y="-302.3" font-family="Helvetica,sans-Serif" font-size="14.00">387.75</text>
</g>
<!-- (jkt,t=0)&#45;&gt;(jkt,t=1) -->
<g id="edge15" class="edge">
<title>(jkt,t=0)&#45;&gt;(jkt,t=1)</title>
<path fill="none" stroke="purple" d="M605.41,-392.23C604.25,-379.88 602.79,-364.29 601.51,-350.63"/>
<polygon fill="purple" stroke="purple" points="604.99,-350.27 600.58,-340.64 598.02,-350.93 604.99,-350.27"/>
<text text-anchor="middle" x="612.5" y="-362.8" font-family="Helvetica,sans-Serif" font-size="14.00" fill="purple">inv</text>
</g>
<!-- (jkt,t=0)&#45;&gt;(cbn,t=1) -->
<g id="edge18" class="edge">
<title>(jkt,t=0)&#45;&gt;(cbn,t=1)</title>
<path fill="none" stroke="blue" d="M578.39,-392.48C563.35,-381.65 544.43,-368.84 526.5,-359 517.39,-354 507.53,-349.19 497.73,-344.73"/>
<polygon fill="blue" stroke="blue" points="498.94,-341.44 488.38,-340.58 496.1,-347.84 498.94,-341.44"/>
<text text-anchor="middle" x="561" y="-362.8" font-family="Helvetica,sans-Serif" font-size="14.00" fill="blue">truk</text>
</g>
<!-- (cbn,t=2) -->
<g id="node13" class="node">
<title>(cbn,t=2)</title>
<polygon fill="none" stroke="black" points="352,-196.5 352,-242.5 507,-242.5 507,-196.5 352,-196.5"/>
<text text-anchor="middle" x="381.5" y="-215.8" font-family="Helvetica,sans-Serif" font-size="14.00">(cbn,2)</text>
<polyline fill="none" stroke="black" points="411,-196.5 411,-242.5 "/>
<text text-anchor="middle" x="430" y="-227.3" font-family="Helvetica,sans-Serif" font-size="14.00">50k</text>
<polyline fill="none" stroke="black" points="411,-219.5 449,-219.5 "/>
<text text-anchor="middle" x="430" y="-204.3" font-family="Helvetica,sans-Serif" font-size="14.00">20k</text>
<polyline fill="none" stroke="black" points="449,-196.5 449,-242.5 "/>
<text text-anchor="middle" x="478" y="-227.3" font-family="Helvetica,sans-Serif" font-size="14.00">126.22</text>
<polyline fill="none" stroke="black" points="449,-219.5 507,-219.5 "/>
<text text-anchor="middle" x="478" y="-204.3" font-family="Helvetica,sans-Serif" font-size="14.00">322.59</text>
</g>
<!-- (cbn,t=2)&#45;&gt;(cbn,t=3) -->
<g id="edge20" class="edge">
<title>(cbn,t=2)&#45;&gt;(cbn,t=3)</title>
<path fill="none" stroke="purple" d="M427.18,-196.23C425.89,-183.88 424.27,-168.29 422.85,-154.63"/>
<polygon fill="purple" stroke="purple" points="426.32,-154.23 421.81,-144.64 419.36,-154.95 426.32,-154.23"/>
<text text-anchor="middle" x="433.5" y="-166.8" font-family="Helvetica,sans-Serif" font-size="14.00" fill="purple">inv</text>
</g>
<!-- (cbn,t=2)&#45;&gt;(jkt,t=3) -->
<g id="edge21" class="edge">
<title>(cbn,t=2)&#45;&gt;(jkt,t=3)</title>
<path fill="none" stroke="blue" d="M453.12,-196.43C465.67,-185.46 481.72,-172.54 497.5,-163 505.96,-157.89 515.18,-153.1 524.44,-148.73"/>
<polygon fill="blue" stroke="blue" points="526.05,-151.84 533.69,-144.51 523.14,-145.48 526.05,-151.84"/>
<text text-anchor="middle" x="509" y="-166.8" font-family="Helvetica,sans-Serif" font-size="14.00" fill="blue">truk</text>
</g>
<!-- (sby,t=0) -->
<g id="node14" class="node">
<title>(sby,t=0)</title>
<polygon fill="none" stroke="black" points="4,-392.5 4,-438.5 157,-438.5 157,-392.5 4,-392.5"/>
<text text-anchor="middle" x="32.5" y="-411.8" font-family="Helvetica,sans-Serif" font-size="14.00">(sby,0)</text>
<polyline fill="none" stroke="black" points="61,-392.5 61,-438.5 "/>
<text text-anchor="middle" x="80" y="-423.3" font-family="Helvetica,sans-Serif" font-size="14.00">50k</text>
<polyline fill="none" stroke="black" points="61,-415.5 99,-415.5 "/>
<text text-anchor="middle" x="80" y="-400.3" font-family="Helvetica,sans-Serif" font-size="14.00">20k</text>
<polyline fill="none" stroke="black" points="99,-392.5 99,-438.5 "/>
<text text-anchor="middle" x="128" y="-423.3" font-family="Helvetica,sans-Serif" font-size="14.00">186.39</text>
<polyline fill="none" stroke="black" points="99,-415.5 157,-415.5 "/>
<text text-anchor="middle" x="128" y="-400.3" font-family="Helvetica,sans-Serif" font-size="14.00">51.61</text>
</g>
<!-- (sby,t=0)&#45;&gt;(sby,t=1) -->
<g id="edge19" class="edge">
<title>(sby,t=0)&#45;&gt;(sby,t=1)</title>
<path fill="none" stroke="purple" d="M80.5,-392.23C80.5,-380 80.5,-364.59 80.5,-351.03"/>
<polygon fill="purple" stroke="purple" points="84,-350.64 80.5,-340.64 77,-350.64 84,-350.64"/>
<text text-anchor="middle" x="89.5" y="-362.8" font-family="Helvetica,sans-Serif" font-size="14.00" fill="purple">inv</text>
</g>
<!-- (bdg,t=1)&#45;&gt;(bdg,t=2) -->
<g id="edge22" class="edge">
<title>(bdg,t=1)&#45;&gt;(bdg,t=2)</title>
<path fill="none" stroke="purple" d="M254.5,-294.23C254.5,-282 254.5,-266.59 254.5,-253.03"/>
<polygon fill="purple" stroke="purple" points="258,-252.64 254.5,-242.64 251,-252.64 258,-252.64"/>
<text text-anchor="middle" x="263.5" y="-264.8" font-family="Helvetica,sans-Serif" font-size="14.00" fill="purple">inv</text>
</g>
<!-- (bdg,t=1)&#45;&gt;(cbn,t=2) -->
<g id="edge24" class="edge">
<title>(bdg,t=1)&#45;&gt;(cbn,t=2)</title>
<path fill="none" stroke="blue" d="M294.65,-294.48C320.12,-280.5 353.26,-262.32 380.32,-247.48"/>
<polygon fill="blue" stroke="blue" points="382.15,-250.47 389.24,-242.59 378.78,-244.33 382.15,-250.47"/>
<text text-anchor="middle" x="363" y="-264.8" font-family="Helvetica,sans-Serif" font-size="14.00" fill="blue">truk</text>
</g>
<!-- (sby,t=2) -->
<g id="node19" class="node">
<title>(sby,t=2)</title>
<polygon fill="none" stroke="black" points="0,-196.5 0,-242.5 157,-242.5 157,-196.5 0,-196.5"/>
<text text-anchor="middle" x="28.5" y="-215.8" font-family="Helvetica,sans-Serif" font-size="14.00">(sby,2)</text>
<polyline fill="none" stroke="black" points="57,-196.5 57,-242.5 "/>
<text text-anchor="middle" x="76" y="-227.3" font-family="Helvetica,sans-Serif" font-size="14.00">50k</text>
<polyline fill="none" stroke="black" points="57,-219.5 95,-219.5 "/>
<text text-anchor="middle" x="76" y="-204.3" font-family="Helvetica,sans-Serif" font-size="14.00">20k</text>
<polyline fill="none" stroke="black" points="95,-196.5 95,-242.5 "/>
<text text-anchor="middle" x="126" y="-227.3" font-family="Helvetica,sans-Serif" font-size="14.00">&#45;201.78</text>
<polyline fill="none" stroke="black" points="95,-219.5 157,-219.5 "/>
<text text-anchor="middle" x="126" y="-204.3" font-family="Helvetica,sans-Serif" font-size="14.00">&#45;153.51</text>
</g>
<!-- (bdg,t=1)&#45;&gt;(sby,t=2) -->
<g id="edge23" class="edge">
<title>(bdg,t=1)&#45;&gt;(sby,t=2)</title>
<path fill="none" stroke="red" d="M214.12,-294.48C188.5,-280.5 155.17,-262.32 127.97,-247.48"/>
<polygon fill="red" stroke="red" points="129.45,-244.3 118.99,-242.59 126.1,-250.45 129.45,-244.3"/>
<text text-anchor="middle" x="189" y="-264.8" font-family="Helvetica,sans-Serif" font-size="14.00" fill="red">krta</text>
</g>
<!-- (jkt,t=1)&#45;&gt;(jkt,t=2) -->
<g id="edge28" class="edge">
<title>(jkt,t=1)&#45;&gt;(jkt,t=2)</title>
<path fill="none" stroke="purple" d="M598.5,-294.23C598.5,-282 598.5,-266.59 598.5,-253.03"/>
<polygon fill="purple" stroke="purple" points="602,-252.64 598.5,-242.64 595,-252.64 602,-252.64"/>
<text text-anchor="middle" x="607.5" y="-264.8" font-family="Helvetica,sans-Serif" font-size="14.00" fill="purple">inv</text>
</g>
<!-- (jkt,t=1)&#45;&gt;(cbn,t=2) -->
<g id="edge25" class="edge">
<title>(jkt,t=1)&#45;&gt;(cbn,t=2)</title>
<path fill="none" stroke="blue" d="M570.93,-294.47C556.66,-283.63 538.66,-270.82 521.5,-261 512.87,-256.06 503.52,-251.31 494.2,-246.92"/>
<polygon fill="blue" stroke="blue" points="495.46,-243.65 484.91,-242.64 492.53,-250 495.46,-243.65"/>
<text text-anchor="middle" x="555" y="-264.8" font-family="Helvetica,sans-Serif" font-size="14.00" fill="blue">truk</text>
</g>
<!-- (jkt,t=1)&#45;&gt;(yyk,t=2) -->
<g id="edge26" class="edge">
<title>(jkt,t=1)&#45;&gt;(yyk,t=2)</title>
<path fill="none" stroke="red" d="M641.39,-294.3C652.27,-288.49 663.88,-282.13 674.5,-276 689.65,-267.25 705.96,-257.26 720.43,-248.18"/>
<polygon fill="red" stroke="red" points="722.58,-250.96 729.17,-242.66 718.85,-245.04 722.58,-250.96"/>
<text text-anchor="middle" x="710" y="-264.8" font-family="Helvetica,sans-Serif" font-size="14.00" fill="red">krta</text>
</g>
<!-- (jkt,t=1)&#45;&gt;(yyk,t=2) -->
<g id="edge27" class="edge">
<title>(jkt,t=1)&#45;&gt;(yyk,t=2)</title>
<path fill="none" stroke="blue" d="M613.81,-294.27C622.55,-282.98 634.38,-269.82 647.5,-261 657.84,-254.05 669.49,-248.17 681.33,-243.22"/>
<polygon fill="blue" stroke="blue" points="682.83,-246.39 690.84,-239.45 680.25,-239.88 682.83,-246.39"/>
<text text-anchor="middle" x="659" y="-264.8" font-family="Helvetica,sans-Serif" font-size="14.00" fill="blue">truk</text>
</g>
<!-- (cbn,t=0) -->
<g id="node18" class="node">
<title>(cbn,t=0)</title>
<polygon fill="none" stroke="black" points="350.5,-392.5 350.5,-438.5 512.5,-438.5 512.5,-392.5 350.5,-392.5"/>
<text text-anchor="middle" x="380" y="-411.8" font-family="Helvetica,sans-Serif" font-size="14.00">(cbn,0)</text>
<polyline fill="none" stroke="black" points="409.5,-392.5 409.5,-438.5 "/>
<text text-anchor="middle" x="428.5" y="-423.3" font-family="Helvetica,sans-Serif" font-size="14.00">50k</text>
<polyline fill="none" stroke="black" points="409.5,-415.5 447.5,-415.5 "/>
<text text-anchor="middle" x="428.5" y="-400.3" font-family="Helvetica,sans-Serif" font-size="14.00">20k</text>
<polyline fill="none" stroke="black" points="447.5,-392.5 447.5,-438.5 "/>
<text text-anchor="middle" x="480" y="-423.3" font-family="Helvetica,sans-Serif" font-size="14.00">7155.87</text>
<polyline fill="none" stroke="black" points="447.5,-415.5 512.5,-415.5 "/>
<text text-anchor="middle" x="480" y="-400.3" font-family="Helvetica,sans-Serif" font-size="14.00">2553.36</text>
</g>
<!-- (cbn,t=0)&#45;&gt;(jkt,t=1) -->
<g id="edge29" class="edge">
<title>(cbn,t=0)&#45;&gt;(jkt,t=1)</title>
<path fill="none" stroke="blue" d="M457.03,-392.26C470.32,-381.36 487.16,-368.57 503.5,-359 512.14,-353.94 521.54,-349.15 530.95,-344.77"/>
<polygon fill="blue" stroke="blue" points="532.67,-347.84 540.33,-340.53 529.78,-341.46 532.67,-347.84"/>
<text text-anchor="middle" x="515" y="-362.8" font-family="Helvetica,sans-Serif" font-size="14.00" fill="blue">truk</text>
</g>
<!-- (cbn,t=0)&#45;&gt;(cbn,t=1) -->
<g id="edge30" class="edge">
<title>(cbn,t=0)&#45;&gt;(cbn,t=1)</title>
<path fill="none" stroke="purple" d="M431.5,-392.23C431.5,-380 431.5,-364.59 431.5,-351.03"/>
<polygon fill="purple" stroke="purple" points="435,-350.64 431.5,-340.64 428,-350.64 435,-350.64"/>
<text text-anchor="middle" x="440.5" y="-362.8" font-family="Helvetica,sans-Serif" font-size="14.00" fill="purple">inv</text>
</g>
<!-- (sby,t=2)&#45;&gt;(sby,t=3) -->
<g id="edge31" class="edge">
<title>(sby,t=2)&#45;&gt;(sby,t=3)</title>
<path fill="none" stroke="purple" d="M78.5,-196.23C78.5,-184 78.5,-168.59 78.5,-155.03"/>
<polygon fill="purple" stroke="purple" points="82,-154.64 78.5,-144.64 75,-154.64 82,-154.64"/>
<text text-anchor="middle" x="87.5" y="-166.8" font-family="Helvetica,sans-Serif" font-size="14.00" fill="purple">inv</text>
</g>
<!-- (yyk,t=0) -->
<g id="node20" class="node">
<title>(yyk,t=0)</title>
<polygon fill="none" stroke="black" points="702,-392.5 702,-438.5 855,-438.5 855,-392.5 702,-392.5"/>
<text text-anchor="middle" x="730.5" y="-411.8" font-family="Helvetica,sans-Serif" font-size="14.00">(yyk,0)</text>
<polyline fill="none" stroke="black" points="759,-392.5 759,-438.5 "/>
<text text-anchor="middle" x="778" y="-423.3" font-family="Helvetica,sans-Serif" font-size="14.00">50k</text>
<polyline fill="none" stroke="black" points="759,-415.5 797,-415.5 "/>
<text text-anchor="middle" x="778" y="-400.3" font-family="Helvetica,sans-Serif" font-size="14.00">20k</text>
<polyline fill="none" stroke="black" points="797,-392.5 797,-438.5 "/>
<text text-anchor="middle" x="826" y="-423.3" font-family="Helvetica,sans-Serif" font-size="14.00">100.44</text>
<polyline fill="none" stroke="black" points="797,-415.5 855,-415.5 "/>
<text text-anchor="middle" x="826" y="-400.3" font-family="Helvetica,sans-Serif" font-size="14.00">407.32</text>
</g>
<!-- (yyk,t=0)&#45;&gt;(yyk,t=1) -->
<g id="edge32" class="edge">
<title>(yyk,t=0)&#45;&gt;(yyk,t=1)</title>
<path fill="none" stroke="purple" d="M775.25,-392.23C773.45,-379.88 771.18,-364.29 769.19,-350.63"/>
<polygon fill="purple" stroke="purple" points="772.64,-350.04 767.73,-340.64 765.71,-351.05 772.64,-350.04"/>
<text text-anchor="middle" x="780.5" y="-362.8" font-family="Helvetica,sans-Serif" font-size="14.00" fill="purple">inv</text>
</g>
<!-- (sby,t=1)&#45;&gt;(sby,t=2) -->
<g id="edge33" class="edge">
<title>(sby,t=1)&#45;&gt;(sby,t=2)</title>
<path fill="none" stroke="purple" d="M80.04,-294.23C79.78,-282 79.46,-266.59 79.18,-253.03"/>
<polygon fill="purple" stroke="purple" points="82.67,-252.57 78.96,-242.64 75.67,-252.72 82.67,-252.57"/>
<text text-anchor="middle" x="89.5" y="-264.8" font-family="Helvetica,sans-Serif" font-size="14.00" fill="purple">inv</text>
</g>
<!-- (yyk,t=2)&#45;&gt;(yyk,t=3) -->
<g id="edge34" class="edge">
<title>(yyk,t=2)&#45;&gt;(yyk,t=3)</title>
<path fill="none" stroke="purple" d="M763.73,-196.23C763.86,-184 764.02,-168.59 764.16,-155.03"/>
<polygon fill="purple" stroke="purple" points="767.66,-154.68 764.27,-144.64 760.67,-154.61 767.66,-154.68"/>
<text text-anchor="middle" x="772.5" y="-166.8" font-family="Helvetica,sans-Serif" font-size="14.00" fill="purple">inv</text>
</g>
<!-- (cbn,t=1)&#45;&gt;(jkt,t=2) -->
<g id="edge2" class="edge">
<title>(cbn,t=1)&#45;&gt;(jkt,t=2)</title>
<path fill="none" stroke="blue" d="M454.65,-294.29C466.98,-283.28 482.81,-270.37 498.5,-261 507.21,-255.8 516.72,-250.98 526.29,-246.62"/>
<polygon fill="blue" stroke="blue" points="527.72,-249.82 535.46,-242.59 524.9,-243.41 527.72,-249.82"/>
<text text-anchor="middle" x="510" y="-264.8" font-family="Helvetica,sans-Serif" font-size="14.00" fill="blue">truk</text>
</g>
<!-- (cbn,t=1)&#45;&gt;(cbn,t=2) -->
<g id="edge1" class="edge">
<title>(cbn,t=1)&#45;&gt;(cbn,t=2)</title>
<path fill="none" stroke="purple" d="M431.04,-294.23C430.78,-282 430.46,-266.59 430.18,-253.03"/>
<polygon fill="purple" stroke="purple" points="433.67,-252.57 429.96,-242.64 426.67,-252.72 433.67,-252.57"/>
<text text-anchor="middle" x="439.5" y="-264.8" font-family="Helvetica,sans-Serif" font-size="14.00" fill="purple">inv</text>
</g>
</g>
</svg>
