<?xml version="1.0" encoding="UTF-8" standalone="no"?>
<!DOCTYPE svg PUBLIC "-//W3C//DTD SVG 1.1//EN"
 "http://www.w3.org/Graphics/SVG/1.1/DTD/svg11.dtd">
<!-- Generated by graphviz version 2.50.0 (0)
 -->
<!-- Title: expanded Pages: 1 -->
<svg width="661pt" height="392pt"
 viewBox="0.00 0.00 660.99 392.00" xmlns="http://www.w3.org/2000/svg" xmlns:xlink="http://www.w3.org/1999/xlink">
<g id="graph0" class="graph" transform="scale(1 1) rotate(0) translate(4 388)">
<title>expanded</title>
<polygon fill="white" stroke="transparent" points="-4,4 -4,-388 656.99,-388 656.99,4 -4,4"/>
<!-- (cbn,t=1) -->
<g id="node1" class="node">
<title>(cbn,t=1)</title>
<ellipse fill="none" stroke="black" cx="342.15" cy="-279" rx="46.29" ry="18"/>
<text text-anchor="middle" x="342.15" y="-275.3" font-family="Helvetica,sans-Serif" font-size="14.00">(cbn,t=1)</text>
</g>
<!-- (cbn,t=2) -->
<g id="node14" class="node">
<title>(cbn,t=2)</title>
<ellipse fill="none" stroke="black" cx="301.15" cy="-192" rx="46.29" ry="18"/>
<text text-anchor="middle" x="301.15" y="-188.3" font-family="Helvetica,sans-Serif" font-size="14.00">(cbn,t=2)</text>
</g>
<!-- (cbn,t=1)&#45;&gt;(cbn,t=2) -->
<g id="edge1" class="edge">
<title>(cbn,t=1)&#45;&gt;(cbn,t=2)</title>
<path fill="none" stroke="purple" d="M318.77,-263.14C312.17,-257.67 305.81,-250.86 302.15,-243 298.87,-235.97 297.76,-227.75 297.7,-220.03"/>
<polygon fill="purple" stroke="purple" points="301.2,-220.13 298.17,-209.98 294.21,-219.8 301.2,-220.13"/>
<text text-anchor="middle" x="311.15" y="-231.8" font-family="Helvetica,sans-Serif" font-size="14.00" fill="purple">inv</text>
</g>
<!-- (jkt,t=2) -->
<g id="node25" class="node">
<title>(jkt,t=2)</title>
<ellipse fill="none" stroke="black" cx="413.15" cy="-192" rx="40.09" ry="18"/>
<text text-anchor="middle" x="413.15" y="-188.3" font-family="Helvetica,sans-Serif" font-size="14.00">(jkt,t=2)</text>
</g>
<!-- (cbn,t=1)&#45;&gt;(jkt,t=2) -->
<g id="edge2" class="edge">
<title>(cbn,t=1)&#45;&gt;(jkt,t=2)</title>
<path fill="none" stroke="blue" d="M338.31,-260.99C336.95,-250.68 337.02,-237.69 343.15,-228 349.38,-218.14 359.3,-210.96 369.74,-205.76"/>
<polygon fill="blue" stroke="blue" points="371.23,-208.93 378.97,-201.7 368.41,-202.53 371.23,-208.93"/>
<text text-anchor="middle" x="354.65" y="-231.8" font-family="Helvetica,sans-Serif" font-size="14.00" fill="blue">truk</text>
</g>
<!-- (cbn,t=3) -->
<g id="node2" class="node">
<title>(cbn,t=3)</title>
<ellipse fill="none" stroke="black" cx="264.15" cy="-105" rx="46.29" ry="18"/>
<text text-anchor="middle" x="264.15" y="-101.3" font-family="Helvetica,sans-Serif" font-size="14.00">(cbn,t=3)</text>
</g>
<!-- (cbn,t=4) -->
<g id="node21" class="node">
<title>(cbn,t=4)</title>
<ellipse fill="none" stroke="black" cx="264.15" cy="-18" rx="46.29" ry="18"/>
<text text-anchor="middle" x="264.15" y="-14.3" font-family="Helvetica,sans-Serif" font-size="14.00">(cbn,t=4)</text>
</g>
<!-- (cbn,t=3)&#45;&gt;(cbn,t=4) -->
<g id="edge3" class="edge">
<title>(cbn,t=3)&#45;&gt;(cbn,t=4)</title>
<path fill="none" stroke="purple" d="M264.15,-86.8C264.15,-75.16 264.15,-59.55 264.15,-46.24"/>
<polygon fill="purple" stroke="purple" points="267.65,-46.18 264.15,-36.18 260.65,-46.18 267.65,-46.18"/>
<text text-anchor="middle" x="273.15" y="-57.8" font-family="Helvetica,sans-Serif" font-size="14.00" fill="purple">inv</text>
</g>
<!-- (yyk,t=1) -->
<g id="node3" class="node">
<title>(yyk,t=1)</title>
<ellipse fill="none" stroke="black" cx="565.15" cy="-279" rx="44.69" ry="18"/>
<text text-anchor="middle" x="565.15" y="-275.3" font-family="Helvetica,sans-Serif" font-size="14.00">(yyk,t=1)</text>
</g>
<!-- (yyk,t=2) -->
<g id="node24" class="node">
<title>(yyk,t=2)</title>
<ellipse fill="none" stroke="black" cx="524.15" cy="-192" rx="44.69" ry="18"/>
<text text-anchor="middle" x="524.15" y="-188.3" font-family="Helvetica,sans-Serif" font-size="14.00">(yyk,t=2)</text>
</g>
<!-- (yyk,t=1)&#45;&gt;(yyk,t=2) -->
<g id="edge4" class="edge">
<title>(yyk,t=1)&#45;&gt;(yyk,t=2)</title>
<path fill="none" stroke="purple" d="M559.13,-261.04C555.46,-251.22 550.46,-238.72 545.15,-228 543.59,-224.86 541.85,-221.62 540.05,-218.45"/>
<polygon fill="purple" stroke="purple" points="543.04,-216.63 534.96,-209.78 537.01,-220.18 543.04,-216.63"/>
<text text-anchor="middle" x="560.15" y="-231.8" font-family="Helvetica,sans-Serif" font-size="14.00" fill="purple">inv</text>
</g>
<!-- (bdg,t=0) -->
<g id="node4" class="node">
<title>(bdg,t=0)</title>
<ellipse fill="none" stroke="black" cx="163.15" cy="-366" rx="46.29" ry="18"/>
<text text-anchor="middle" x="163.15" y="-362.3" font-family="Helvetica,sans-Serif" font-size="14.00">(bdg,t=0)</text>
</g>
<!-- (bdg,t=0)&#45;&gt;(cbn,t=1) -->
<g id="edge7" class="edge">
<title>(bdg,t=0)&#45;&gt;(cbn,t=1)</title>
<path fill="none" stroke="blue" d="M181.32,-349.2C197.21,-335.49 218.47,-317.46 223.15,-315 249.29,-301.24 258.81,-305.36 287.15,-297 290.51,-296.01 293.98,-294.97 297.47,-293.91"/>
<polygon fill="blue" stroke="blue" points="298.73,-297.19 307.27,-290.93 296.69,-290.49 298.73,-297.19"/>
<text text-anchor="middle" x="234.65" y="-318.8" font-family="Helvetica,sans-Serif" font-size="14.00" fill="blue">truk</text>
</g>
<!-- (bdg,t=1) -->
<g id="node16" class="node">
<title>(bdg,t=1)</title>
<ellipse fill="none" stroke="black" cx="124.15" cy="-279" rx="46.29" ry="18"/>
<text text-anchor="middle" x="124.15" y="-275.3" font-family="Helvetica,sans-Serif" font-size="14.00">(bdg,t=1)</text>
</g>
<!-- (bdg,t=0)&#45;&gt;(bdg,t=1) -->
<g id="edge6" class="edge">
<title>(bdg,t=0)&#45;&gt;(bdg,t=1)</title>
<path fill="none" stroke="purple" d="M149.05,-348.75C144.73,-343.11 140.28,-336.55 137.15,-330 133.74,-322.88 131.14,-314.75 129.19,-307.14"/>
<polygon fill="purple" stroke="purple" points="132.57,-306.2 126.93,-297.23 125.74,-307.76 132.57,-306.2"/>
<text text-anchor="middle" x="146.15" y="-318.8" font-family="Helvetica,sans-Serif" font-size="14.00" fill="purple">inv</text>
</g>
<!-- (sby,t=1) -->
<g id="node22" class="node">
<title>(sby,t=1)</title>
<ellipse fill="none" stroke="black" cx="233.15" cy="-279" rx="44.69" ry="18"/>
<text text-anchor="middle" x="233.15" y="-275.3" font-family="Helvetica,sans-Serif" font-size="14.00">(sby,t=1)</text>
</g>
<!-- (bdg,t=0)&#45;&gt;(sby,t=1) -->
<g id="edge5" class="edge">
<title>(bdg,t=0)&#45;&gt;(sby,t=1)</title>
<path fill="none" stroke="red" d="M166.04,-347.91C168.46,-337.57 172.75,-324.58 180.15,-315 184.78,-309 190.75,-303.7 197,-299.15"/>
<polygon fill="red" stroke="red" points="199.21,-301.88 205.6,-293.43 195.33,-296.05 199.21,-301.88"/>
<text text-anchor="middle" x="191.65" y="-318.8" font-family="Helvetica,sans-Serif" font-size="14.00" fill="red">krta</text>
</g>
<!-- (jkt,t=3) -->
<g id="node5" class="node">
<title>(jkt,t=3)</title>
<ellipse fill="none" stroke="black" cx="374.15" cy="-105" rx="40.09" ry="18"/>
<text text-anchor="middle" x="374.15" y="-101.3" font-family="Helvetica,sans-Serif" font-size="14.00">(jkt,t=3)</text>
</g>
<!-- (jkt,t=4) -->
<g id="node15" class="node">
<title>(jkt,t=4)</title>
<ellipse fill="none" stroke="black" cx="374.15" cy="-18" rx="40.09" ry="18"/>
<text text-anchor="middle" x="374.15" y="-14.3" font-family="Helvetica,sans-Serif" font-size="14.00">(jkt,t=4)</text>
</g>
<!-- (jkt,t=3)&#45;&gt;(jkt,t=4) -->
<g id="edge8" class="edge">
<title>(jkt,t=3)&#45;&gt;(jkt,t=4)</title>
<path fill="none" stroke="purple" d="M374.15,-86.8C374.15,-75.16 374.15,-59.55 374.15,-46.24"/>
<polygon fill="purple" stroke="purple" points="377.65,-46.18 374.15,-36.18 370.65,-46.18 377.65,-46.18"/>
<text text-anchor="middle" x="383.15" y="-57.8" font-family="Helvetica,sans-Serif" font-size="14.00" fill="purple">inv</text>
</g>
<!-- (bdg,t=4) -->
<g id="node6" class="node">
<title>(bdg,t=4)</title>
<ellipse fill="none" stroke="black" cx="46.15" cy="-18" rx="46.29" ry="18"/>
<text text-anchor="middle" x="46.15" y="-14.3" font-family="Helvetica,sans-Serif" font-size="14.00">(bdg,t=4)</text>
</g>
<!-- (bdg,t=2) -->
<g id="node7" class="node">
<title>(bdg,t=2)</title>
<ellipse fill="none" stroke="black" cx="83.15" cy="-192" rx="46.29" ry="18"/>
<text text-anchor="middle" x="83.15" y="-188.3" font-family="Helvetica,sans-Serif" font-size="14.00">(bdg,t=2)</text>
</g>
<!-- (bdg,t=2)&#45;&gt;(cbn,t=3) -->
<g id="edge9" class="edge">
<title>(bdg,t=2)&#45;&gt;(cbn,t=3)</title>
<path fill="none" stroke="blue" d="M99.2,-174.97C111.01,-164 127.94,-149.88 145.15,-141 171.4,-127.45 180.81,-131.36 209.15,-123 212.51,-122.01 215.98,-120.97 219.47,-119.91"/>
<polygon fill="blue" stroke="blue" points="220.73,-123.19 229.27,-116.93 218.69,-116.49 220.73,-123.19"/>
<text text-anchor="middle" x="156.65" y="-144.8" font-family="Helvetica,sans-Serif" font-size="14.00" fill="blue">truk</text>
</g>
<!-- (sby,t=3) -->
<g id="node9" class="node">
<title>(sby,t=3)</title>
<ellipse fill="none" stroke="black" cx="155.15" cy="-105" rx="44.69" ry="18"/>
<text text-anchor="middle" x="155.15" y="-101.3" font-family="Helvetica,sans-Serif" font-size="14.00">(sby,t=3)</text>
</g>
<!-- (bdg,t=2)&#45;&gt;(sby,t=3) -->
<g id="edge10" class="edge">
<title>(bdg,t=2)&#45;&gt;(sby,t=3)</title>
<path fill="none" stroke="red" d="M84.33,-173.83C85.8,-163.46 89.03,-150.46 96.15,-141 101.34,-134.09 108.34,-128.29 115.69,-123.51"/>
<polygon fill="red" stroke="red" points="117.56,-126.47 124.4,-118.38 114.01,-120.44 117.56,-126.47"/>
<text text-anchor="middle" x="107.65" y="-144.8" font-family="Helvetica,sans-Serif" font-size="14.00" fill="red">krta</text>
</g>
<!-- (bdg,t=3) -->
<g id="node10" class="node">
<title>(bdg,t=3)</title>
<ellipse fill="none" stroke="black" cx="46.15" cy="-105" rx="46.29" ry="18"/>
<text text-anchor="middle" x="46.15" y="-101.3" font-family="Helvetica,sans-Serif" font-size="14.00">(bdg,t=3)</text>
</g>
<!-- (bdg,t=2)&#45;&gt;(bdg,t=3) -->
<g id="edge11" class="edge">
<title>(bdg,t=2)&#45;&gt;(bdg,t=3)</title>
<path fill="none" stroke="purple" d="M66.68,-174.81C61.93,-169.27 57.21,-162.76 54.15,-156 50.99,-149.03 49.06,-141.03 47.88,-133.49"/>
<polygon fill="purple" stroke="purple" points="51.32,-132.83 46.66,-123.31 44.37,-133.66 51.32,-132.83"/>
<text text-anchor="middle" x="63.15" y="-144.8" font-family="Helvetica,sans-Serif" font-size="14.00" fill="purple">inv</text>
</g>
<!-- (yyk,t=3) -->
<g id="node8" class="node">
<title>(yyk,t=3)</title>
<ellipse fill="none" stroke="black" cx="480.15" cy="-105" rx="44.69" ry="18"/>
<text text-anchor="middle" x="480.15" y="-101.3" font-family="Helvetica,sans-Serif" font-size="14.00">(yyk,t=3)</text>
</g>
<!-- (yyk,t=4) -->
<g id="node12" class="node">
<title>(yyk,t=4)</title>
<ellipse fill="none" stroke="black" cx="480.15" cy="-18" rx="44.69" ry="18"/>
<text text-anchor="middle" x="480.15" y="-14.3" font-family="Helvetica,sans-Serif" font-size="14.00">(yyk,t=4)</text>
</g>
<!-- (yyk,t=3)&#45;&gt;(yyk,t=4) -->
<g id="edge12" class="edge">
<title>(yyk,t=3)&#45;&gt;(yyk,t=4)</title>
<path fill="none" stroke="purple" d="M480.15,-86.8C480.15,-75.16 480.15,-59.55 480.15,-46.24"/>
<polygon fill="purple" stroke="purple" points="483.65,-46.18 480.15,-36.18 476.65,-46.18 483.65,-46.18"/>
<text text-anchor="middle" x="489.15" y="-57.8" font-family="Helvetica,sans-Serif" font-size="14.00" fill="purple">inv</text>
</g>
<!-- (sby,t=4) -->
<g id="node23" class="node">
<title>(sby,t=4)</title>
<ellipse fill="none" stroke="black" cx="155.15" cy="-18" rx="44.69" ry="18"/>
<text text-anchor="middle" x="155.15" y="-14.3" font-family="Helvetica,sans-Serif" font-size="14.00">(sby,t=4)</text>
</g>
<!-- (sby,t=3)&#45;&gt;(sby,t=4) -->
<g id="edge13" class="edge">
<title>(sby,t=3)&#45;&gt;(sby,t=4)</title>
<path fill="none" stroke="purple" d="M155.15,-86.8C155.15,-75.16 155.15,-59.55 155.15,-46.24"/>
<polygon fill="purple" stroke="purple" points="158.65,-46.18 155.15,-36.18 151.65,-46.18 158.65,-46.18"/>
<text text-anchor="middle" x="164.15" y="-57.8" font-family="Helvetica,sans-Serif" font-size="14.00" fill="purple">inv</text>
</g>
<!-- (bdg,t=3)&#45;&gt;(bdg,t=4) -->
<g id="edge14" class="edge">
<title>(bdg,t=3)&#45;&gt;(bdg,t=4)</title>
<path fill="none" stroke="purple" d="M46.15,-86.8C46.15,-75.16 46.15,-59.55 46.15,-46.24"/>
<polygon fill="purple" stroke="purple" points="49.65,-46.18 46.15,-36.18 42.65,-46.18 49.65,-46.18"/>
<text text-anchor="middle" x="55.15" y="-57.8" font-family="Helvetica,sans-Serif" font-size="14.00" fill="purple">inv</text>
</g>
<!-- (jkt,t=0) -->
<g id="node11" class="node">
<title>(jkt,t=0)</title>
<ellipse fill="none" stroke="black" cx="496.15" cy="-366" rx="40.09" ry="18"/>
<text text-anchor="middle" x="496.15" y="-362.3" font-family="Helvetica,sans-Serif" font-size="14.00">(jkt,t=0)</text>
</g>
<!-- (jkt,t=0)&#45;&gt;(cbn,t=1) -->
<g id="edge18" class="edge">
<title>(jkt,t=0)&#45;&gt;(cbn,t=1)</title>
<path fill="none" stroke="blue" d="M472.04,-351.3C454.17,-341.19 429.2,-327.13 407.15,-315 397.53,-309.71 387.07,-304.04 377.42,-298.84"/>
<polygon fill="blue" stroke="blue" points="378.92,-295.68 368.45,-294.03 375.61,-301.84 378.92,-295.68"/>
<text text-anchor="middle" x="445.65" y="-318.8" font-family="Helvetica,sans-Serif" font-size="14.00" fill="blue">truk</text>
</g>
<!-- (jkt,t=0)&#45;&gt;(yyk,t=1) -->
<g id="edge16" class="edge">
<title>(jkt,t=0)&#45;&gt;(yyk,t=1)</title>
<path fill="none" stroke="red" d="M500.73,-348.03C504.09,-337.74 509.44,-324.75 517.15,-315 521.44,-309.57 526.79,-304.57 532.34,-300.16"/>
<polygon fill="red" stroke="red" points="534.55,-302.89 540.52,-294.14 530.4,-297.25 534.55,-302.89"/>
<text text-anchor="middle" x="528.65" y="-318.8" font-family="Helvetica,sans-Serif" font-size="14.00" fill="red">krta</text>
</g>
<!-- (jkt,t=0)&#45;&gt;(yyk,t=1) -->
<g id="edge17" class="edge">
<title>(jkt,t=0)&#45;&gt;(yyk,t=1)</title>
<path fill="none" stroke="blue" d="M517.95,-350.64C525.62,-344.86 533.88,-337.73 540.15,-330 545.79,-323.03 550.62,-314.58 554.49,-306.62"/>
<polygon fill="blue" stroke="blue" points="557.78,-307.84 558.71,-297.29 551.4,-304.96 557.78,-307.84"/>
<text text-anchor="middle" x="560.65" y="-318.8" font-family="Helvetica,sans-Serif" font-size="14.00" fill="blue">truk</text>
</g>
<!-- (jkt,t=1) -->
<g id="node17" class="node">
<title>(jkt,t=1)</title>
<ellipse fill="none" stroke="black" cx="454.15" cy="-279" rx="40.09" ry="18"/>
<text text-anchor="middle" x="454.15" y="-275.3" font-family="Helvetica,sans-Serif" font-size="14.00">(jkt,t=1)</text>
</g>
<!-- (jkt,t=0)&#45;&gt;(jkt,t=1) -->
<g id="edge15" class="edge">
<title>(jkt,t=0)&#45;&gt;(jkt,t=1)</title>
<path fill="none" stroke="purple" d="M486.22,-348.46C482.89,-342.69 479.23,-336.12 476.15,-330 472.3,-322.38 468.45,-313.94 465.05,-306.19"/>
<polygon fill="purple" stroke="purple" points="468.21,-304.68 461.05,-296.87 461.78,-307.44 468.21,-304.68"/>
<text text-anchor="middle" x="485.15" y="-318.8" font-family="Helvetica,sans-Serif" font-size="14.00" fill="purple">inv</text>
</g>
<!-- (sby,t=0) -->
<g id="node13" class="node">
<title>(sby,t=0)</title>
<ellipse fill="none" stroke="black" cx="272.15" cy="-366" rx="44.69" ry="18"/>
<text text-anchor="middle" x="272.15" y="-362.3" font-family="Helvetica,sans-Serif" font-size="14.00">(sby,t=0)</text>
</g>
<!-- (sby,t=0)&#45;&gt;(sby,t=1) -->
<g id="edge19" class="edge">
<title>(sby,t=0)&#45;&gt;(sby,t=1)</title>
<path fill="none" stroke="purple" d="M264.77,-347.8C260.57,-338.13 255.16,-325.84 250.15,-315 248.83,-312.15 247.43,-309.18 246.02,-306.23"/>
<polygon fill="purple" stroke="purple" points="249.08,-304.51 241.58,-297.03 242.77,-307.56 249.08,-304.51"/>
<text text-anchor="middle" x="266.15" y="-318.8" font-family="Helvetica,sans-Serif" font-size="14.00" fill="purple">inv</text>
</g>
<!-- (cbn,t=2)&#45;&gt;(cbn,t=3) -->
<g id="edge20" class="edge">
<title>(cbn,t=2)&#45;&gt;(cbn,t=3)</title>
<path fill="none" stroke="purple" d="M277.67,-176.18C271.08,-170.72 264.73,-163.9 261.15,-156 257.93,-148.92 257.33,-140.69 257.91,-132.98"/>
<polygon fill="purple" stroke="purple" points="261.39,-133.32 259.29,-122.93 254.46,-132.36 261.39,-133.32"/>
<text text-anchor="middle" x="270.15" y="-144.8" font-family="Helvetica,sans-Serif" font-size="14.00" fill="purple">inv</text>
</g>
<!-- (cbn,t=2)&#45;&gt;(jkt,t=3) -->
<g id="edge21" class="edge">
<title>(cbn,t=2)&#45;&gt;(jkt,t=3)</title>
<path fill="none" stroke="blue" d="M297.28,-173.97C295.9,-163.65 295.97,-150.65 302.15,-141 308.7,-130.76 319.19,-123.43 330.15,-118.21"/>
<polygon fill="blue" stroke="blue" points="331.54,-121.43 339.39,-114.32 328.82,-114.98 331.54,-121.43"/>
<text text-anchor="middle" x="313.65" y="-144.8" font-family="Helvetica,sans-Serif" font-size="14.00" fill="blue">truk</text>
</g>
<!-- (bdg,t=1)&#45;&gt;(bdg,t=2) -->
<g id="edge22" class="edge">
<title>(bdg,t=1)&#45;&gt;(bdg,t=2)</title>
<path fill="none" stroke="purple" d="M107.66,-262.13C102.65,-256.52 97.57,-249.88 94.15,-243 90.66,-236 88.26,-227.9 86.63,-220.29"/>
<polygon fill="purple" stroke="purple" points="90.06,-219.58 84.84,-210.36 83.17,-220.83 90.06,-219.58"/>
<text text-anchor="middle" x="103.15" y="-231.8" font-family="Helvetica,sans-Serif" font-size="14.00" fill="purple">inv</text>
</g>
<!-- (bdg,t=1)&#45;&gt;(cbn,t=2) -->
<g id="edge24" class="edge">
<title>(bdg,t=1)&#45;&gt;(cbn,t=2)</title>
<path fill="none" stroke="blue" d="M141.27,-262.08C155.28,-249.31 174.2,-232.78 183.15,-228 208.83,-214.28 218.23,-218.3 246.15,-210 249.5,-209 252.98,-207.96 256.46,-206.9"/>
<polygon fill="blue" stroke="blue" points="257.72,-210.17 266.27,-203.9 255.68,-203.48 257.72,-210.17"/>
<text text-anchor="middle" x="194.65" y="-231.8" font-family="Helvetica,sans-Serif" font-size="14.00" fill="blue">truk</text>
</g>
<!-- (sby,t=2) -->
<g id="node19" class="node">
<title>(sby,t=2)</title>
<ellipse fill="none" stroke="black" cx="192.15" cy="-192" rx="44.69" ry="18"/>
<text text-anchor="middle" x="192.15" y="-188.3" font-family="Helvetica,sans-Serif" font-size="14.00">(sby,t=2)</text>
</g>
<!-- (bdg,t=1)&#45;&gt;(sby,t=2) -->
<g id="edge23" class="edge">
<title>(bdg,t=1)&#45;&gt;(sby,t=2)</title>
<path fill="none" stroke="red" d="M126.27,-260.93C128.24,-250.59 132.01,-237.6 139.15,-228 143.67,-221.92 149.59,-216.58 155.82,-212.02"/>
<polygon fill="red" stroke="red" points="158.03,-214.75 164.42,-206.29 154.15,-208.92 158.03,-214.75"/>
<text text-anchor="middle" x="150.65" y="-231.8" font-family="Helvetica,sans-Serif" font-size="14.00" fill="red">krta</text>
</g>
<!-- (jkt,t=1)&#45;&gt;(cbn,t=2) -->
<g id="edge25" class="edge">
<title>(jkt,t=1)&#45;&gt;(cbn,t=2)</title>
<path fill="none" stroke="blue" d="M430.32,-264.27C412.67,-254.14 387.98,-240.08 366.15,-228 356.54,-222.69 346.09,-217.01 336.43,-211.81"/>
<polygon fill="blue" stroke="blue" points="337.94,-208.65 327.47,-207 334.62,-214.81 337.94,-208.65"/>
<text text-anchor="middle" x="404.65" y="-231.8" font-family="Helvetica,sans-Serif" font-size="14.00" fill="blue">truk</text>
</g>
<!-- (jkt,t=1)&#45;&gt;(yyk,t=2) -->
<g id="edge26" class="edge">
<title>(jkt,t=1)&#45;&gt;(yyk,t=2)</title>
<path fill="none" stroke="red" d="M476.46,-263.72C484.3,-257.95 492.75,-250.81 499.15,-243 504.98,-235.88 509.93,-227.17 513.84,-219.03"/>
<polygon fill="red" stroke="red" points="517.05,-220.41 517.95,-209.86 510.67,-217.55 517.05,-220.41"/>
<text text-anchor="middle" x="520.65" y="-231.8" font-family="Helvetica,sans-Serif" font-size="14.00" fill="red">krta</text>
</g>
<!-- (jkt,t=1)&#45;&gt;(yyk,t=2) -->
<g id="edge27" class="edge">
<title>(jkt,t=1)&#45;&gt;(yyk,t=2)</title>
<path fill="none" stroke="blue" d="M457.46,-260.93C460.11,-250.6 464.66,-237.61 472.15,-228 476.74,-222.1 482.62,-216.84 488.76,-212.31"/>
<polygon fill="blue" stroke="blue" points="490.89,-215.1 497.2,-206.59 486.96,-209.3 490.89,-215.1"/>
<text text-anchor="middle" x="483.65" y="-231.8" font-family="Helvetica,sans-Serif" font-size="14.00" fill="blue">truk</text>
</g>
<!-- (jkt,t=1)&#45;&gt;(jkt,t=2) -->
<g id="edge28" class="edge">
<title>(jkt,t=1)&#45;&gt;(jkt,t=2)</title>
<path fill="none" stroke="purple" d="M444.78,-261.41C441.61,-255.64 438.13,-249.08 435.15,-243 431.39,-235.34 427.55,-226.88 424.16,-219.14"/>
<polygon fill="purple" stroke="purple" points="427.32,-217.62 420.14,-209.83 420.89,-220.39 427.32,-217.62"/>
<text text-anchor="middle" x="444.15" y="-231.8" font-family="Helvetica,sans-Serif" font-size="14.00" fill="purple">inv</text>
</g>
<!-- (cbn,t=0) -->
<g id="node18" class="node">
<title>(cbn,t=0)</title>
<ellipse fill="none" stroke="black" cx="382.15" cy="-366" rx="46.29" ry="18"/>
<text text-anchor="middle" x="382.15" y="-362.3" font-family="Helvetica,sans-Serif" font-size="14.00">(cbn,t=0)</text>
</g>
<!-- (cbn,t=0)&#45;&gt;(cbn,t=1) -->
<g id="edge30" class="edge">
<title>(cbn,t=0)&#45;&gt;(cbn,t=1)</title>
<path fill="none" stroke="purple" d="M359.34,-350.03C352.91,-344.56 346.71,-337.77 343.15,-330 340,-323.13 338.88,-315.16 338.76,-307.62"/>
<polygon fill="purple" stroke="purple" points="342.27,-307.56 339.17,-297.42 335.27,-307.27 342.27,-307.56"/>
<text text-anchor="middle" x="352.15" y="-318.8" font-family="Helvetica,sans-Serif" font-size="14.00" fill="purple">inv</text>
</g>
<!-- (cbn,t=0)&#45;&gt;(jkt,t=1) -->
<g id="edge29" class="edge">
<title>(cbn,t=0)&#45;&gt;(jkt,t=1)</title>
<path fill="none" stroke="blue" d="M378.72,-347.95C377.59,-337.62 377.92,-324.63 384.15,-315 390.48,-305.2 400.43,-298.04 410.87,-292.85"/>
<polygon fill="blue" stroke="blue" points="412.36,-296.02 420.09,-288.77 409.53,-289.61 412.36,-296.02"/>
<text text-anchor="middle" x="395.65" y="-318.8" font-family="Helvetica,sans-Serif" font-size="14.00" fill="blue">truk</text>
</g>
<!-- (sby,t=2)&#45;&gt;(sby,t=3) -->
<g id="edge31" class="edge">
<title>(sby,t=2)&#45;&gt;(sby,t=3)</title>
<path fill="none" stroke="purple" d="M184.84,-174.21C179.65,-162.29 172.59,-146.06 166.65,-132.42"/>
<polygon fill="purple" stroke="purple" points="169.77,-130.82 162.57,-123.05 163.35,-133.62 169.77,-130.82"/>
<text text-anchor="middle" x="185.15" y="-144.8" font-family="Helvetica,sans-Serif" font-size="14.00" fill="purple">inv</text>
</g>
<!-- (yyk,t=0) -->
<g id="node20" class="node">
<title>(yyk,t=0)</title>
<ellipse fill="none" stroke="black" cx="608.15" cy="-366" rx="44.69" ry="18"/>
<text text-anchor="middle" x="608.15" y="-362.3" font-family="Helvetica,sans-Serif" font-size="14.00">(yyk,t=0)</text>
</g>
<!-- (yyk,t=0)&#45;&gt;(yyk,t=1) -->
<g id="edge32" class="edge">
<title>(yyk,t=0)&#45;&gt;(yyk,t=1)</title>
<path fill="none" stroke="purple" d="M601.33,-348.09C597.22,-338.28 591.72,-325.78 586.15,-315 584.53,-311.88 582.76,-308.67 580.95,-305.5"/>
<polygon fill="purple" stroke="purple" points="583.94,-303.68 575.84,-296.85 577.91,-307.24 583.94,-303.68"/>
<text text-anchor="middle" x="602.15" y="-318.8" font-family="Helvetica,sans-Serif" font-size="14.00" fill="purple">inv</text>
</g>
<!-- (sby,t=1)&#45;&gt;(sby,t=2) -->
<g id="edge33" class="edge">
<title>(sby,t=1)&#45;&gt;(sby,t=2)</title>
<path fill="none" stroke="purple" d="M225.66,-261.25C221.25,-251.5 215.5,-239 210.15,-228 208.68,-224.99 207.12,-221.85 205.55,-218.74"/>
<polygon fill="purple" stroke="purple" points="208.57,-216.97 200.9,-209.66 202.34,-220.16 208.57,-216.97"/>
<text text-anchor="middle" x="226.15" y="-231.8" font-family="Helvetica,sans-Serif" font-size="14.00" fill="purple">inv</text>
</g>
<!-- (yyk,t=2)&#45;&gt;(yyk,t=3) -->
<g id="edge34" class="edge">
<title>(yyk,t=2)&#45;&gt;(yyk,t=3)</title>
<path fill="none" stroke="purple" d="M518.38,-173.92C514.79,-164.05 509.79,-151.55 504.15,-141 502.37,-137.69 500.36,-134.3 498.26,-131.01"/>
<polygon fill="purple" stroke="purple" points="501.11,-128.98 492.65,-122.62 495.3,-132.87 501.11,-128.98"/>
<text text-anchor="middle" x="521.15" y="-144.8" font-family="Helvetica,sans-Serif" font-size="14.00" fill="purple">inv</text>
</g>
<!-- (jkt,t=2)&#45;&gt;(cbn,t=3) -->
<g id="edge35" class="edge">
<title>(jkt,t=2)&#45;&gt;(cbn,t=3)</title>
<path fill="none" stroke="blue" d="M389.21,-177.34C364.52,-163.26 325.81,-141.18 298,-125.31"/>
<polygon fill="blue" stroke="blue" points="299.44,-122.1 289.02,-120.19 295.97,-128.18 299.44,-122.1"/>
<text text-anchor="middle" x="359.65" y="-144.8" font-family="Helvetica,sans-Serif" font-size="14.00" fill="blue">truk</text>
</g>
<!-- (jkt,t=2)&#45;&gt;(jkt,t=3) -->
<g id="edge38" class="edge">
<title>(jkt,t=2)&#45;&gt;(jkt,t=3)</title>
<path fill="none" stroke="purple" d="M403.66,-174.47C400.48,-168.7 397.03,-162.13 394.15,-156 390.57,-148.38 387.04,-139.94 383.96,-132.2"/>
<polygon fill="purple" stroke="purple" points="387.22,-130.93 380.33,-122.88 380.69,-133.46 387.22,-130.93"/>
<text text-anchor="middle" x="403.15" y="-144.8" font-family="Helvetica,sans-Serif" font-size="14.00" fill="purple">inv</text>
</g>
<!-- (jkt,t=2)&#45;&gt;(yyk,t=3) -->
<g id="edge36" class="edge">
<title>(jkt,t=2)&#45;&gt;(yyk,t=3)</title>
<path fill="none" stroke="red" d="M418.21,-174.12C421.84,-163.86 427.45,-150.87 435.15,-141 439.06,-135.98 443.85,-131.27 448.82,-127.04"/>
<polygon fill="red" stroke="red" points="451.03,-129.75 456.7,-120.8 446.68,-124.27 451.03,-129.75"/>
<text text-anchor="middle" x="446.65" y="-144.8" font-family="Helvetica,sans-Serif" font-size="14.00" fill="red">krta</text>
</g>
<!-- (jkt,t=2)&#45;&gt;(yyk,t=3) -->
<g id="edge37" class="edge">
<title>(jkt,t=2)&#45;&gt;(yyk,t=3)</title>
<path fill="none" stroke="blue" d="M435.67,-176.89C443.53,-171.14 451.94,-163.96 458.15,-156 463.53,-149.09 467.9,-140.65 471.28,-132.69"/>
<polygon fill="blue" stroke="blue" points="474.55,-133.94 474.91,-123.35 468.02,-131.4 474.55,-133.94"/>
<text text-anchor="middle" x="478.65" y="-144.8" font-family="Helvetica,sans-Serif" font-size="14.00" fill="blue">truk</text>
</g>
</g>
</svg>
