<?xml version="1.0" encoding="UTF-8" standalone="no"?>
<!DOCTYPE svg PUBLIC "-//W3C//DTD SVG 1.1//EN"
 "http://www.w3.org/Graphics/SVG/1.1/DTD/svg11.dtd">
<!-- Generated by graphviz version 2.50.0 (0)
 -->
<!-- Title: expanded Pages: 1 -->
<svg width="588pt" height="305pt"
 viewBox="0.00 0.00 587.69 305.00" xmlns="http://www.w3.org/2000/svg" xmlns:xlink="http://www.w3.org/1999/xlink">
<g id="graph0" class="graph" transform="scale(1 1) rotate(0) translate(4 301)">
<title>expanded</title>
<polygon fill="white" stroke="transparent" points="-4,4 -4,-301 583.69,-301 583.69,4 -4,4"/>
<!-- (yyk,t=0) -->
<g id="node1" class="node">
<title>(yyk,t=0)</title>
<ellipse fill="none" stroke="black" cx="44.85" cy="-279" rx="44.69" ry="18"/>
<text text-anchor="middle" x="44.85" y="-275.3" font-family="Helvetica,sans-Serif" font-size="14.00">(yyk,t=0)</text>
</g>
<!-- (yyk,t=1) -->
<g id="node12" class="node">
<title>(yyk,t=1)</title>
<ellipse fill="none" stroke="black" cx="80.85" cy="-192" rx="44.69" ry="18"/>
<text text-anchor="middle" x="80.85" y="-188.3" font-family="Helvetica,sans-Serif" font-size="14.00">(yyk,t=1)</text>
</g>
<!-- (yyk,t=0)&#45;&gt;(yyk,t=1) -->
<g id="edge1" class="edge">
<title>(yyk,t=0)&#45;&gt;(yyk,t=1)</title>
<path fill="none" stroke="purple" d="M42.08,-260.67C41.24,-250.72 41.49,-238.22 45.85,-228 47.68,-223.7 50.31,-219.65 53.31,-215.94"/>
<polygon fill="purple" stroke="purple" points="56.1,-218.09 60.34,-208.38 50.97,-213.32 56.1,-218.09"/>
<text text-anchor="middle" x="54.85" y="-231.8" font-family="Helvetica,sans-Serif" font-size="14.00" fill="purple">inv</text>
</g>
<!-- (yyk,t=3) -->
<g id="node2" class="node">
<title>(yyk,t=3)</title>
<ellipse fill="none" stroke="black" cx="108.85" cy="-18" rx="44.69" ry="18"/>
<text text-anchor="middle" x="108.85" y="-14.3" font-family="Helvetica,sans-Serif" font-size="14.00">(yyk,t=3)</text>
</g>
<!-- (cbn,t=2) -->
<g id="node3" class="node">
<title>(cbn,t=2)</title>
<ellipse fill="none" stroke="black" cx="315.85" cy="-105" rx="46.29" ry="18"/>
<text text-anchor="middle" x="315.85" y="-101.3" font-family="Helvetica,sans-Serif" font-size="14.00">(cbn,t=2)</text>
</g>
<!-- (cbn,t=3) -->
<g id="node9" class="node">
<title>(cbn,t=3)</title>
<ellipse fill="none" stroke="black" cx="315.85" cy="-18" rx="46.29" ry="18"/>
<text text-anchor="middle" x="315.85" y="-14.3" font-family="Helvetica,sans-Serif" font-size="14.00">(cbn,t=3)</text>
</g>
<!-- (cbn,t=2)&#45;&gt;(cbn,t=3) -->
<g id="edge2" class="edge">
<title>(cbn,t=2)&#45;&gt;(cbn,t=3)</title>
<path fill="none" stroke="purple" d="M315.85,-86.8C315.85,-75.16 315.85,-59.55 315.85,-46.24"/>
<polygon fill="purple" stroke="purple" points="319.35,-46.18 315.85,-36.18 312.35,-46.18 319.35,-46.18"/>
<text text-anchor="middle" x="324.85" y="-57.8" font-family="Helvetica,sans-Serif" font-size="14.00" fill="purple">inv</text>
</g>
<!-- (cbn,t=1) -->
<g id="node4" class="node">
<title>(cbn,t=1)</title>
<ellipse fill="none" stroke="black" cx="310.85" cy="-192" rx="46.29" ry="18"/>
<text text-anchor="middle" x="310.85" y="-188.3" font-family="Helvetica,sans-Serif" font-size="14.00">(cbn,t=1)</text>
</g>
<!-- (cbn,t=1)&#45;&gt;(cbn,t=2) -->
<g id="edge3" class="edge">
<title>(cbn,t=1)&#45;&gt;(cbn,t=2)</title>
<path fill="none" stroke="purple" d="M312.47,-173.92C312.97,-168.23 313.48,-161.84 313.85,-156 314.31,-148.66 314.68,-140.71 314.98,-133.35"/>
<polygon fill="purple" stroke="purple" points="318.48,-133.26 315.35,-123.13 311.49,-133 318.48,-133.26"/>
<text text-anchor="middle" x="323.85" y="-144.8" font-family="Helvetica,sans-Serif" font-size="14.00" fill="purple">inv</text>
</g>
<!-- (jkt,t=2) -->
<g id="node18" class="node">
<title>(jkt,t=2)</title>
<ellipse fill="none" stroke="black" cx="211.85" cy="-105" rx="40.09" ry="18"/>
<text text-anchor="middle" x="211.85" y="-101.3" font-family="Helvetica,sans-Serif" font-size="14.00">(jkt,t=2)</text>
</g>
<!-- (cbn,t=1)&#45;&gt;(jkt,t=2) -->
<g id="edge4" class="edge">
<title>(cbn,t=1)&#45;&gt;(jkt,t=2)</title>
<path fill="none" stroke="blue" d="M298.79,-174.57C290.72,-164.23 279.49,-151 267.85,-141 261.03,-135.15 253.14,-129.6 245.48,-124.72"/>
<polygon fill="blue" stroke="blue" points="247.01,-121.55 236.66,-119.31 243.36,-127.52 247.01,-121.55"/>
<text text-anchor="middle" x="294.35" y="-144.8" font-family="Helvetica,sans-Serif" font-size="14.00" fill="blue">truk</text>
</g>
<!-- (jkt,t=3) -->
<g id="node5" class="node">
<title>(jkt,t=3)</title>
<ellipse fill="none" stroke="black" cx="211.85" cy="-18" rx="40.09" ry="18"/>
<text text-anchor="middle" x="211.85" y="-14.3" font-family="Helvetica,sans-Serif" font-size="14.00">(jkt,t=3)</text>
</g>
<!-- (bdg,t=3) -->
<g id="node6" class="node">
<title>(bdg,t=3)</title>
<ellipse fill="none" stroke="black" cx="425.85" cy="-18" rx="46.29" ry="18"/>
<text text-anchor="middle" x="425.85" y="-14.3" font-family="Helvetica,sans-Serif" font-size="14.00">(bdg,t=3)</text>
</g>
<!-- (cbn,t=0) -->
<g id="node7" class="node">
<title>(cbn,t=0)</title>
<ellipse fill="none" stroke="black" cx="275.85" cy="-279" rx="46.29" ry="18"/>
<text text-anchor="middle" x="275.85" y="-275.3" font-family="Helvetica,sans-Serif" font-size="14.00">(cbn,t=0)</text>
</g>
<!-- (cbn,t=0)&#45;&gt;(cbn,t=1) -->
<g id="edge6" class="edge">
<title>(cbn,t=0)&#45;&gt;(cbn,t=1)</title>
<path fill="none" stroke="purple" d="M282.93,-260.8C287.85,-248.85 294.49,-232.72 300.06,-219.18"/>
<polygon fill="purple" stroke="purple" points="303.32,-220.46 303.89,-209.89 296.85,-217.8 303.32,-220.46"/>
<text text-anchor="middle" x="304.85" y="-231.8" font-family="Helvetica,sans-Serif" font-size="14.00" fill="purple">inv</text>
</g>
<!-- (jkt,t=1) -->
<g id="node13" class="node">
<title>(jkt,t=1)</title>
<ellipse fill="none" stroke="black" cx="193.85" cy="-192" rx="40.09" ry="18"/>
<text text-anchor="middle" x="193.85" y="-188.3" font-family="Helvetica,sans-Serif" font-size="14.00">(jkt,t=1)</text>
</g>
<!-- (cbn,t=0)&#45;&gt;(jkt,t=1) -->
<g id="edge5" class="edge">
<title>(cbn,t=0)&#45;&gt;(jkt,t=1)</title>
<path fill="none" stroke="blue" d="M266.83,-261.13C260.85,-250.87 252.37,-237.89 242.85,-228 237.66,-222.62 231.55,-217.51 225.43,-212.95"/>
<polygon fill="blue" stroke="blue" points="227.36,-210.02 217.18,-207.08 223.3,-215.73 227.36,-210.02"/>
<text text-anchor="middle" x="266.35" y="-231.8" font-family="Helvetica,sans-Serif" font-size="14.00" fill="blue">truk</text>
</g>
<!-- (sby,t=3) -->
<g id="node8" class="node">
<title>(sby,t=3)</title>
<ellipse fill="none" stroke="black" cx="534.85" cy="-18" rx="44.69" ry="18"/>
<text text-anchor="middle" x="534.85" y="-14.3" font-family="Helvetica,sans-Serif" font-size="14.00">(sby,t=3)</text>
</g>
<!-- (sby,t=1) -->
<g id="node10" class="node">
<title>(sby,t=1)</title>
<ellipse fill="none" stroke="black" cx="534.85" cy="-192" rx="44.69" ry="18"/>
<text text-anchor="middle" x="534.85" y="-188.3" font-family="Helvetica,sans-Serif" font-size="14.00">(sby,t=1)</text>
</g>
<!-- (sby,t=2) -->
<g id="node15" class="node">
<title>(sby,t=2)</title>
<ellipse fill="none" stroke="black" cx="534.85" cy="-105" rx="44.69" ry="18"/>
<text text-anchor="middle" x="534.85" y="-101.3" font-family="Helvetica,sans-Serif" font-size="14.00">(sby,t=2)</text>
</g>
<!-- (sby,t=1)&#45;&gt;(sby,t=2) -->
<g id="edge7" class="edge">
<title>(sby,t=1)&#45;&gt;(sby,t=2)</title>
<path fill="none" stroke="purple" d="M534.85,-173.8C534.85,-162.16 534.85,-146.55 534.85,-133.24"/>
<polygon fill="purple" stroke="purple" points="538.35,-133.18 534.85,-123.18 531.35,-133.18 538.35,-133.18"/>
<text text-anchor="middle" x="543.85" y="-144.8" font-family="Helvetica,sans-Serif" font-size="14.00" fill="purple">inv</text>
</g>
<!-- (bdg,t=2) -->
<g id="node11" class="node">
<title>(bdg,t=2)</title>
<ellipse fill="none" stroke="black" cx="425.85" cy="-105" rx="46.29" ry="18"/>
<text text-anchor="middle" x="425.85" y="-101.3" font-family="Helvetica,sans-Serif" font-size="14.00">(bdg,t=2)</text>
</g>
<!-- (bdg,t=2)&#45;&gt;(bdg,t=3) -->
<g id="edge8" class="edge">
<title>(bdg,t=2)&#45;&gt;(bdg,t=3)</title>
<path fill="none" stroke="purple" d="M425.85,-86.8C425.85,-75.16 425.85,-59.55 425.85,-46.24"/>
<polygon fill="purple" stroke="purple" points="429.35,-46.18 425.85,-36.18 422.35,-46.18 429.35,-46.18"/>
<text text-anchor="middle" x="434.85" y="-57.8" font-family="Helvetica,sans-Serif" font-size="14.00" fill="purple">inv</text>
</g>
<!-- (yyk,t=2) -->
<g id="node16" class="node">
<title>(yyk,t=2)</title>
<ellipse fill="none" stroke="black" cx="108.85" cy="-105" rx="44.69" ry="18"/>
<text text-anchor="middle" x="108.85" y="-101.3" font-family="Helvetica,sans-Serif" font-size="14.00">(yyk,t=2)</text>
</g>
<!-- (yyk,t=1)&#45;&gt;(yyk,t=2) -->
<g id="edge9" class="edge">
<title>(yyk,t=1)&#45;&gt;(yyk,t=2)</title>
<path fill="none" stroke="purple" d="M72.6,-174.25C68.88,-164.27 66.22,-151.54 70.85,-141 72.86,-136.42 75.8,-132.17 79.16,-128.32"/>
<polygon fill="purple" stroke="purple" points="81.88,-130.56 86.52,-121.03 76.95,-125.59 81.88,-130.56"/>
<text text-anchor="middle" x="79.85" y="-144.8" font-family="Helvetica,sans-Serif" font-size="14.00" fill="purple">inv</text>
</g>
<!-- (jkt,t=1)&#45;&gt;(cbn,t=2) -->
<g id="edge10" class="edge">
<title>(jkt,t=1)&#45;&gt;(cbn,t=2)</title>
<path fill="none" stroke="blue" d="M206.49,-174.6C215.28,-164.02 227.72,-150.5 240.85,-141 250.94,-133.69 262.8,-127.32 274.08,-122.09"/>
<polygon fill="blue" stroke="blue" points="275.64,-125.23 283.35,-117.97 272.8,-118.83 275.64,-125.23"/>
<text text-anchor="middle" x="252.35" y="-144.8" font-family="Helvetica,sans-Serif" font-size="14.00" fill="blue">truk</text>
</g>
<!-- (jkt,t=1)&#45;&gt;(yyk,t=2) -->
<g id="edge11" class="edge">
<title>(jkt,t=1)&#45;&gt;(yyk,t=2)</title>
<path fill="none" stroke="red" d="M161.56,-181.11C141.34,-174.22 118,-164.73 111.85,-156 107.25,-149.47 105.56,-141.2 105.29,-133.27"/>
<polygon fill="red" stroke="red" points="108.79,-133.33 105.62,-123.22 101.8,-133.1 108.79,-133.33"/>
<text text-anchor="middle" x="123.35" y="-144.8" font-family="Helvetica,sans-Serif" font-size="14.00" fill="red">krta</text>
</g>
<!-- (jkt,t=1)&#45;&gt;(yyk,t=2) -->
<g id="edge12" class="edge">
<title>(jkt,t=1)&#45;&gt;(yyk,t=2)</title>
<path fill="none" stroke="blue" d="M177.86,-175.01C164.92,-162.07 146.52,-143.67 131.97,-129.12"/>
<polygon fill="blue" stroke="blue" points="134.31,-126.51 124.76,-121.92 129.36,-131.46 134.31,-126.51"/>
<text text-anchor="middle" x="168.35" y="-144.8" font-family="Helvetica,sans-Serif" font-size="14.00" fill="blue">truk</text>
</g>
<!-- (jkt,t=1)&#45;&gt;(jkt,t=2) -->
<g id="edge13" class="edge">
<title>(jkt,t=1)&#45;&gt;(jkt,t=2)</title>
<path fill="none" stroke="purple" d="M197.16,-173.85C199.05,-164.19 201.51,-151.91 203.85,-141 204.41,-138.35 205.02,-135.59 205.63,-132.83"/>
<polygon fill="purple" stroke="purple" points="209.05,-133.6 207.85,-123.07 202.22,-132.05 209.05,-133.6"/>
<text text-anchor="middle" x="212.85" y="-144.8" font-family="Helvetica,sans-Serif" font-size="14.00" fill="purple">inv</text>
</g>
<!-- (jkt,t=0) -->
<g id="node14" class="node">
<title>(jkt,t=0)</title>
<ellipse fill="none" stroke="black" cx="165.85" cy="-279" rx="40.09" ry="18"/>
<text text-anchor="middle" x="165.85" y="-275.3" font-family="Helvetica,sans-Serif" font-size="14.00">(jkt,t=0)</text>
</g>
<!-- (jkt,t=0)&#45;&gt;(cbn,t=1) -->
<g id="edge17" class="edge">
<title>(jkt,t=0)&#45;&gt;(cbn,t=1)</title>
<path fill="none" stroke="blue" d="M178.83,-261.74C188.16,-250.95 201.58,-237.13 215.85,-228 230.44,-218.66 247.87,-211.33 263.8,-205.84"/>
<polygon fill="blue" stroke="blue" points="265.07,-209.1 273.48,-202.66 262.89,-202.45 265.07,-209.1"/>
<text text-anchor="middle" x="227.35" y="-231.8" font-family="Helvetica,sans-Serif" font-size="14.00" fill="blue">truk</text>
</g>
<!-- (jkt,t=0)&#45;&gt;(yyk,t=1) -->
<g id="edge14" class="edge">
<title>(jkt,t=0)&#45;&gt;(yyk,t=1)</title>
<path fill="none" stroke="red" d="M149.86,-262.01C136.92,-249.07 118.52,-230.67 103.97,-216.12"/>
<polygon fill="red" stroke="red" points="106.31,-213.51 96.76,-208.92 101.36,-218.46 106.31,-213.51"/>
<text text-anchor="middle" x="140.35" y="-231.8" font-family="Helvetica,sans-Serif" font-size="14.00" fill="red">krta</text>
</g>
<!-- (jkt,t=0)&#45;&gt;(yyk,t=1) -->
<g id="edge15" class="edge">
<title>(jkt,t=0)&#45;&gt;(yyk,t=1)</title>
<path fill="none" stroke="blue" d="M131.74,-269.19C117.44,-263.85 101.85,-255.56 91.85,-243 86.76,-236.62 83.91,-228.39 82.34,-220.45"/>
<polygon fill="blue" stroke="blue" points="85.78,-219.79 80.94,-210.37 78.85,-220.76 85.78,-219.79"/>
<text text-anchor="middle" x="103.35" y="-231.8" font-family="Helvetica,sans-Serif" font-size="14.00" fill="blue">truk</text>
</g>
<!-- (jkt,t=0)&#45;&gt;(jkt,t=1) -->
<g id="edge16" class="edge">
<title>(jkt,t=0)&#45;&gt;(jkt,t=1)</title>
<path fill="none" stroke="purple" d="M169.67,-260.69C171.98,-250.97 175.19,-238.69 178.85,-228 179.81,-225.19 180.9,-222.28 182.04,-219.4"/>
<polygon fill="purple" stroke="purple" points="185.38,-220.47 186,-209.89 178.92,-217.77 185.38,-220.47"/>
<text text-anchor="middle" x="187.85" y="-231.8" font-family="Helvetica,sans-Serif" font-size="14.00" fill="purple">inv</text>
</g>
<!-- (sby,t=2)&#45;&gt;(sby,t=3) -->
<g id="edge18" class="edge">
<title>(sby,t=2)&#45;&gt;(sby,t=3)</title>
<path fill="none" stroke="purple" d="M534.85,-86.8C534.85,-75.16 534.85,-59.55 534.85,-46.24"/>
<polygon fill="purple" stroke="purple" points="538.35,-46.18 534.85,-36.18 531.35,-46.18 538.35,-46.18"/>
<text text-anchor="middle" x="543.85" y="-57.8" font-family="Helvetica,sans-Serif" font-size="14.00" fill="purple">inv</text>
</g>
<!-- (yyk,t=2)&#45;&gt;(yyk,t=3) -->
<g id="edge19" class="edge">
<title>(yyk,t=2)&#45;&gt;(yyk,t=3)</title>
<path fill="none" stroke="purple" d="M108.85,-86.8C108.85,-75.16 108.85,-59.55 108.85,-46.24"/>
<polygon fill="purple" stroke="purple" points="112.35,-46.18 108.85,-36.18 105.35,-46.18 112.35,-46.18"/>
<text text-anchor="middle" x="117.85" y="-57.8" font-family="Helvetica,sans-Serif" font-size="14.00" fill="purple">inv</text>
</g>
<!-- (bdg,t=0) -->
<g id="node17" class="node">
<title>(bdg,t=0)</title>
<ellipse fill="none" stroke="black" cx="425.85" cy="-279" rx="46.29" ry="18"/>
<text text-anchor="middle" x="425.85" y="-275.3" font-family="Helvetica,sans-Serif" font-size="14.00">(bdg,t=0)</text>
</g>
<!-- (bdg,t=0)&#45;&gt;(cbn,t=1) -->
<g id="edge22" class="edge">
<title>(bdg,t=0)&#45;&gt;(cbn,t=1)</title>
<path fill="none" stroke="blue" d="M405.29,-262.8C387.08,-249.35 360.32,-229.56 339.92,-214.49"/>
<polygon fill="blue" stroke="blue" points="341.74,-211.48 331.62,-208.35 337.58,-217.11 341.74,-211.48"/>
<text text-anchor="middle" x="387.35" y="-231.8" font-family="Helvetica,sans-Serif" font-size="14.00" fill="blue">truk</text>
</g>
<!-- (bdg,t=0)&#45;&gt;(sby,t=1) -->
<g id="edge20" class="edge">
<title>(bdg,t=0)&#45;&gt;(sby,t=1)</title>
<path fill="none" stroke="red" d="M445.59,-262.61C462.79,-249.19 487.94,-229.58 507.16,-214.59"/>
<polygon fill="red" stroke="red" points="509.52,-217.19 515.25,-208.28 505.22,-211.67 509.52,-217.19"/>
<text text-anchor="middle" x="499.35" y="-231.8" font-family="Helvetica,sans-Serif" font-size="14.00" fill="red">krta</text>
</g>
<!-- (bdg,t=1) -->
<g id="node19" class="node">
<title>(bdg,t=1)</title>
<ellipse fill="none" stroke="black" cx="425.85" cy="-192" rx="46.29" ry="18"/>
<text text-anchor="middle" x="425.85" y="-188.3" font-family="Helvetica,sans-Serif" font-size="14.00">(bdg,t=1)</text>
</g>
<!-- (bdg,t=0)&#45;&gt;(bdg,t=1) -->
<g id="edge21" class="edge">
<title>(bdg,t=0)&#45;&gt;(bdg,t=1)</title>
<path fill="none" stroke="purple" d="M425.85,-260.8C425.85,-249.16 425.85,-233.55 425.85,-220.24"/>
<polygon fill="purple" stroke="purple" points="429.35,-220.18 425.85,-210.18 422.35,-220.18 429.35,-220.18"/>
<text text-anchor="middle" x="434.85" y="-231.8" font-family="Helvetica,sans-Serif" font-size="14.00" fill="purple">inv</text>
</g>
<!-- (jkt,t=2)&#45;&gt;(jkt,t=3) -->
<g id="edge23" class="edge">
<title>(jkt,t=2)&#45;&gt;(jkt,t=3)</title>
<path fill="none" stroke="purple" d="M211.85,-86.8C211.85,-75.16 211.85,-59.55 211.85,-46.24"/>
<polygon fill="purple" stroke="purple" points="215.35,-46.18 211.85,-36.18 208.35,-46.18 215.35,-46.18"/>
<text text-anchor="middle" x="220.85" y="-57.8" font-family="Helvetica,sans-Serif" font-size="14.00" fill="purple">inv</text>
</g>
<!-- (bdg,t=1)&#45;&gt;(cbn,t=2) -->
<g id="edge25" class="edge">
<title>(bdg,t=1)&#45;&gt;(cbn,t=2)</title>
<path fill="none" stroke="blue" d="M405.93,-175.61C388.56,-162.19 363.19,-142.58 343.79,-127.59"/>
<polygon fill="blue" stroke="blue" points="345.67,-124.62 335.62,-121.28 341.39,-130.16 345.67,-124.62"/>
<text text-anchor="middle" x="389.35" y="-144.8" font-family="Helvetica,sans-Serif" font-size="14.00" fill="blue">truk</text>
</g>
<!-- (bdg,t=1)&#45;&gt;(bdg,t=2) -->
<g id="edge24" class="edge">
<title>(bdg,t=1)&#45;&gt;(bdg,t=2)</title>
<path fill="none" stroke="purple" d="M425.85,-173.8C425.85,-162.16 425.85,-146.55 425.85,-133.24"/>
<polygon fill="purple" stroke="purple" points="429.35,-133.18 425.85,-123.18 422.35,-133.18 429.35,-133.18"/>
<text text-anchor="middle" x="434.85" y="-144.8" font-family="Helvetica,sans-Serif" font-size="14.00" fill="purple">inv</text>
</g>
<!-- (bdg,t=1)&#45;&gt;(sby,t=2) -->
<g id="edge26" class="edge">
<title>(bdg,t=1)&#45;&gt;(sby,t=2)</title>
<path fill="none" stroke="red" d="M445.59,-175.61C462.79,-162.19 487.94,-142.58 507.16,-127.59"/>
<polygon fill="red" stroke="red" points="509.52,-130.19 515.25,-121.28 505.22,-124.67 509.52,-130.19"/>
<text text-anchor="middle" x="499.35" y="-144.8" font-family="Helvetica,sans-Serif" font-size="14.00" fill="red">krta</text>
</g>
<!-- (sby,t=0) -->
<g id="node20" class="node">
<title>(sby,t=0)</title>
<ellipse fill="none" stroke="black" cx="534.85" cy="-279" rx="44.69" ry="18"/>
<text text-anchor="middle" x="534.85" y="-275.3" font-family="Helvetica,sans-Serif" font-size="14.00">(sby,t=0)</text>
</g>
<!-- (sby,t=0)&#45;&gt;(sby,t=1) -->
<g id="edge27" class="edge">
<title>(sby,t=0)&#45;&gt;(sby,t=1)</title>
<path fill="none" stroke="purple" d="M534.85,-260.8C534.85,-249.16 534.85,-233.55 534.85,-220.24"/>
<polygon fill="purple" stroke="purple" points="538.35,-220.18 534.85,-210.18 531.35,-220.18 538.35,-220.18"/>
<text text-anchor="middle" x="543.85" y="-231.8" font-family="Helvetica,sans-Serif" font-size="14.00" fill="purple">inv</text>
</g>
</g>
</svg>
