<?xml version="1.0" encoding="UTF-8" standalone="no"?>
<!DOCTYPE svg PUBLIC "-//W3C//DTD SVG 1.1//EN"
 "http://www.w3.org/Graphics/SVG/1.1/DTD/svg11.dtd">
<!-- Generated by graphviz version 2.50.0 (0)
 -->
<!-- Title: expanded Pages: 1 -->
<svg width="655pt" height="252pt"
 viewBox="0.00 0.00 655.19 251.58" xmlns="http://www.w3.org/2000/svg" xmlns:xlink="http://www.w3.org/1999/xlink">
<g id="graph0" class="graph" transform="scale(1 1) rotate(0) translate(4 247.58)">
<title>expanded</title>
<polygon fill="white" stroke="transparent" points="-4,4 -4,-247.58 651.19,-247.58 651.19,4 -4,4"/>
<!-- (7,1) -->
<g id="node1" class="node">
<title>(7,1)</title>
<ellipse fill="none" stroke="black" cx="93.6" cy="-121.79" rx="28.7" ry="28.7"/>
<text text-anchor="middle" x="93.6" y="-118.09" font-family="Helvetica,sans-Serif" font-size="14.00">(7,1)</text>
</g>
<!-- (7,2) -->
<g id="node11" class="node">
<title>(7,2)</title>
<ellipse fill="none" stroke="black" cx="93.6" cy="-28.6" rx="28.7" ry="28.7"/>
<text text-anchor="middle" x="93.6" y="-24.9" font-family="Helvetica,sans-Serif" font-size="14.00">(7,2)</text>
</g>
<!-- (7,1)&#45;&gt;(7,2) -->
<g id="edge1" class="edge">
<title>(7,1)&#45;&gt;(7,2)</title>
<path fill="none" stroke="black" d="M93.6,-92.94C93.6,-84.89 93.6,-75.98 93.6,-67.43"/>
<polygon fill="black" stroke="black" points="97.1,-67.28 93.6,-57.28 90.1,-67.28 97.1,-67.28"/>
</g>
<!-- (8,2) -->
<g id="node2" class="node">
<title>(8,2)</title>
<ellipse fill="none" stroke="black" cx="543.6" cy="-28.6" rx="28.7" ry="28.7"/>
<text text-anchor="middle" x="543.6" y="-24.9" font-family="Helvetica,sans-Serif" font-size="14.00">(8,2)</text>
</g>
<!-- (1,2) -->
<g id="node3" class="node">
<title>(1,2)</title>
<ellipse fill="none" stroke="black" cx="618.6" cy="-28.6" rx="28.7" ry="28.7"/>
<text text-anchor="middle" x="618.6" y="-24.9" font-family="Helvetica,sans-Serif" font-size="14.00">(1,2)</text>
</g>
<!-- (4,1) -->
<g id="node4" class="node">
<title>(4,1)</title>
<ellipse fill="none" stroke="black" cx="393.6" cy="-121.79" rx="28.7" ry="28.7"/>
<text text-anchor="middle" x="393.6" y="-118.09" font-family="Helvetica,sans-Serif" font-size="14.00">(4,1)</text>
</g>
<!-- (4,2) -->
<g id="node10" class="node">
<title>(4,2)</title>
<ellipse fill="none" stroke="black" cx="393.6" cy="-28.6" rx="28.7" ry="28.7"/>
<text text-anchor="middle" x="393.6" y="-24.9" font-family="Helvetica,sans-Serif" font-size="14.00">(4,2)</text>
</g>
<!-- (4,1)&#45;&gt;(4,2) -->
<g id="edge2" class="edge">
<title>(4,1)&#45;&gt;(4,2)</title>
<path fill="none" stroke="black" d="M393.6,-92.94C393.6,-84.89 393.6,-75.98 393.6,-67.43"/>
<polygon fill="black" stroke="black" points="397.1,-67.28 393.6,-57.28 390.1,-67.28 397.1,-67.28"/>
</g>
<!-- (2,1) -->
<g id="node5" class="node">
<title>(2,1)</title>
<ellipse fill="none" stroke="black" cx="318.6" cy="-121.79" rx="28.7" ry="28.7"/>
<text text-anchor="middle" x="318.6" y="-118.09" font-family="Helvetica,sans-Serif" font-size="14.00">(2,1)</text>
</g>
<!-- (2,2) -->
<g id="node24" class="node">
<title>(2,2)</title>
<ellipse fill="none" stroke="black" cx="318.6" cy="-28.6" rx="28.7" ry="28.7"/>
<text text-anchor="middle" x="318.6" y="-24.9" font-family="Helvetica,sans-Serif" font-size="14.00">(2,2)</text>
</g>
<!-- (2,1)&#45;&gt;(2,2) -->
<g id="edge3" class="edge">
<title>(2,1)&#45;&gt;(2,2)</title>
<path fill="none" stroke="black" d="M318.6,-92.94C318.6,-84.89 318.6,-75.98 318.6,-67.43"/>
<polygon fill="black" stroke="black" points="322.1,-67.28 318.6,-57.28 315.1,-67.28 322.1,-67.28"/>
</g>
<!-- (6,2) -->
<g id="node6" class="node">
<title>(6,2)</title>
<ellipse fill="none" stroke="black" cx="468.6" cy="-28.6" rx="28.7" ry="28.7"/>
<text text-anchor="middle" x="468.6" y="-24.9" font-family="Helvetica,sans-Serif" font-size="14.00">(6,2)</text>
</g>
<!-- (4,0) -->
<g id="node7" class="node">
<title>(4,0)</title>
<ellipse fill="none" stroke="black" cx="309.6" cy="-214.99" rx="28.7" ry="28.7"/>
<text text-anchor="middle" x="309.6" y="-211.29" font-family="Helvetica,sans-Serif" font-size="14.00">(4,0)</text>
</g>
<!-- (4,0)&#45;&gt;(7,1) -->
<g id="edge7" class="edge">
<title>(4,0)&#45;&gt;(7,1)</title>
<path fill="none" stroke="black" d="M284.65,-200.54C275.1,-195.7 264,-190.44 253.6,-186.39 200.52,-165.72 181.57,-175.82 130.6,-150.39 128.28,-149.23 125.95,-147.92 123.66,-146.53"/>
<polygon fill="black" stroke="black" points="125.32,-143.43 115.06,-140.79 121.44,-149.25 125.32,-143.43"/>
</g>
<!-- (4,0)&#45;&gt;(4,1) -->
<g id="edge5" class="edge">
<title>(4,0)&#45;&gt;(4,1)</title>
<path fill="none" stroke="black" d="M328.66,-193.29C340.15,-180.82 354.95,-164.75 367.51,-151.11"/>
<polygon fill="black" stroke="black" points="370.41,-153.13 374.61,-143.4 365.26,-148.39 370.41,-153.13"/>
</g>
<!-- (8,1) -->
<g id="node9" class="node">
<title>(8,1)</title>
<ellipse fill="none" stroke="black" cx="543.6" cy="-121.79" rx="28.7" ry="28.7"/>
<text text-anchor="middle" x="543.6" y="-118.09" font-family="Helvetica,sans-Serif" font-size="14.00">(8,1)</text>
</g>
<!-- (4,0)&#45;&gt;(8,1) -->
<g id="edge4" class="edge">
<title>(4,0)&#45;&gt;(8,1)</title>
<path fill="none" stroke="black" d="M333.22,-197.93C340.2,-193.71 348.01,-189.48 355.6,-186.39 419.48,-160.34 444.1,-179.62 506.6,-150.39 508.95,-149.29 511.3,-148.03 513.6,-146.66"/>
<polygon fill="black" stroke="black" points="515.79,-149.41 522.23,-141 511.95,-143.56 515.79,-149.41"/>
</g>
<!-- (5,1) -->
<g id="node23" class="node">
<title>(5,1)</title>
<ellipse fill="none" stroke="black" cx="168.6" cy="-121.79" rx="28.7" ry="28.7"/>
<text text-anchor="middle" x="168.6" y="-118.09" font-family="Helvetica,sans-Serif" font-size="14.00">(5,1)</text>
</g>
<!-- (4,0)&#45;&gt;(5,1) -->
<g id="edge6" class="edge">
<title>(4,0)&#45;&gt;(5,1)</title>
<path fill="none" stroke="black" d="M285.24,-199.95C263.91,-187.46 232.24,-168.42 205.6,-150.39 203.51,-148.98 201.37,-147.49 199.23,-145.98"/>
<polygon fill="black" stroke="black" points="201.21,-143.09 191.06,-140.06 197.1,-148.76 201.21,-143.09"/>
</g>
<!-- (1,0) -->
<g id="node8" class="node">
<title>(1,0)</title>
<ellipse fill="none" stroke="black" cx="543.6" cy="-214.99" rx="28.7" ry="28.7"/>
<text text-anchor="middle" x="543.6" y="-211.29" font-family="Helvetica,sans-Serif" font-size="14.00">(1,0)</text>
</g>
<!-- (1,0)&#45;&gt;(4,1) -->
<g id="edge9" class="edge">
<title>(1,0)&#45;&gt;(4,1)</title>
<path fill="none" stroke="black" d="M521.39,-196.32C516.63,-192.85 511.54,-189.36 506.6,-186.39 474.57,-167.12 462.62,-169.66 430.6,-150.39 428.43,-149.09 426.24,-147.69 424.06,-146.24"/>
<polygon fill="black" stroke="black" points="426,-143.32 415.8,-140.46 421.99,-149.06 426,-143.32"/>
</g>
<!-- (1,0)&#45;&gt;(2,1) -->
<g id="edge11" class="edge">
<title>(1,0)&#45;&gt;(2,1)</title>
<path fill="none" stroke="black" d="M522.23,-195.78C517.33,-192.27 511.97,-188.9 506.6,-186.39 444.1,-157.16 418.09,-179.62 355.6,-150.39 353.25,-149.29 350.9,-148.03 348.59,-146.66"/>
<polygon fill="black" stroke="black" points="350.24,-143.56 339.96,-141 346.4,-149.41 350.24,-143.56"/>
</g>
<!-- (1,0)&#45;&gt;(8,1) -->
<g id="edge8" class="edge">
<title>(1,0)&#45;&gt;(8,1)</title>
<path fill="none" stroke="black" d="M543.6,-186.13C543.6,-178.09 543.6,-169.17 543.6,-160.63"/>
<polygon fill="black" stroke="black" points="547.1,-160.48 543.6,-150.48 540.1,-160.48 547.1,-160.48"/>
</g>
<!-- (6,1) -->
<g id="node13" class="node">
<title>(6,1)</title>
<ellipse fill="none" stroke="black" cx="468.6" cy="-121.79" rx="28.7" ry="28.7"/>
<text text-anchor="middle" x="468.6" y="-118.09" font-family="Helvetica,sans-Serif" font-size="14.00">(6,1)</text>
</g>
<!-- (1,0)&#45;&gt;(6,1) -->
<g id="edge12" class="edge">
<title>(1,0)&#45;&gt;(6,1)</title>
<path fill="none" stroke="black" d="M525.82,-192.38C515.99,-180.42 503.64,-165.4 492.92,-152.37"/>
<polygon fill="black" stroke="black" points="495.56,-150.07 486.5,-144.57 490.15,-154.51 495.56,-150.07"/>
</g>
<!-- (1,1) -->
<g id="node22" class="node">
<title>(1,1)</title>
<ellipse fill="none" stroke="black" cx="618.6" cy="-121.79" rx="28.7" ry="28.7"/>
<text text-anchor="middle" x="618.6" y="-118.09" font-family="Helvetica,sans-Serif" font-size="14.00">(1,1)</text>
</g>
<!-- (1,0)&#45;&gt;(1,1) -->
<g id="edge10" class="edge">
<title>(1,0)&#45;&gt;(1,1)</title>
<path fill="none" stroke="black" d="M561.37,-192.38C571.2,-180.42 583.56,-165.4 594.27,-152.37"/>
<polygon fill="black" stroke="black" points="597.04,-154.51 600.69,-144.57 591.64,-150.07 597.04,-154.51"/>
</g>
<!-- (8,1)&#45;&gt;(8,2) -->
<g id="edge13" class="edge">
<title>(8,1)&#45;&gt;(8,2)</title>
<path fill="none" stroke="black" d="M543.6,-92.94C543.6,-84.89 543.6,-75.98 543.6,-67.43"/>
<polygon fill="black" stroke="black" points="547.1,-67.28 543.6,-57.28 540.1,-67.28 547.1,-67.28"/>
</g>
<!-- (5,2) -->
<g id="node12" class="node">
<title>(5,2)</title>
<ellipse fill="none" stroke="black" cx="168.6" cy="-28.6" rx="28.7" ry="28.7"/>
<text text-anchor="middle" x="168.6" y="-24.9" font-family="Helvetica,sans-Serif" font-size="14.00">(5,2)</text>
</g>
<!-- (6,1)&#45;&gt;(6,2) -->
<g id="edge14" class="edge">
<title>(6,1)&#45;&gt;(6,2)</title>
<path fill="none" stroke="black" d="M468.6,-92.94C468.6,-84.89 468.6,-75.98 468.6,-67.43"/>
<polygon fill="black" stroke="black" points="472.1,-67.28 468.6,-57.28 465.1,-67.28 472.1,-67.28"/>
</g>
<!-- (3,1) -->
<g id="node14" class="node">
<title>(3,1)</title>
<ellipse fill="none" stroke="black" cx="243.6" cy="-121.79" rx="28.7" ry="28.7"/>
<text text-anchor="middle" x="243.6" y="-118.09" font-family="Helvetica,sans-Serif" font-size="14.00">(3,1)</text>
</g>
<!-- (3,2) -->
<g id="node17" class="node">
<title>(3,2)</title>
<ellipse fill="none" stroke="black" cx="243.6" cy="-28.6" rx="28.7" ry="28.7"/>
<text text-anchor="middle" x="243.6" y="-24.9" font-family="Helvetica,sans-Serif" font-size="14.00">(3,2)</text>
</g>
<!-- (3,1)&#45;&gt;(3,2) -->
<g id="edge15" class="edge">
<title>(3,1)&#45;&gt;(3,2)</title>
<path fill="none" stroke="black" d="M243.6,-92.94C243.6,-84.89 243.6,-75.98 243.6,-67.43"/>
<polygon fill="black" stroke="black" points="247.1,-67.28 243.6,-57.28 240.1,-67.28 247.1,-67.28"/>
</g>
<!-- (5,0) -->
<g id="node15" class="node">
<title>(5,0)</title>
<ellipse fill="none" stroke="black" cx="103.6" cy="-214.99" rx="28.7" ry="28.7"/>
<text text-anchor="middle" x="103.6" y="-211.29" font-family="Helvetica,sans-Serif" font-size="14.00">(5,0)</text>
</g>
<!-- (5,0)&#45;&gt;(7,1) -->
<g id="edge17" class="edge">
<title>(5,0)&#45;&gt;(7,1)</title>
<path fill="none" stroke="black" d="M94.52,-187.61C93.06,-179.13 91.85,-169.55 91.07,-160.42"/>
<polygon fill="black" stroke="black" points="94.55,-160.11 90.36,-150.38 87.57,-160.6 94.55,-160.11"/>
</g>
<!-- (5,0)&#45;&gt;(7,1) -->
<g id="edge18" class="edge">
<title>(5,0)&#45;&gt;(7,1)</title>
<path fill="none" stroke="black" d="M106.82,-186.13C106.37,-177.7 105.46,-168.3 104.24,-159.39"/>
<polygon fill="black" stroke="black" points="107.66,-158.59 102.69,-149.23 100.74,-159.65 107.66,-158.59"/>
</g>
<!-- (5,0)&#45;&gt;(5,1) -->
<g id="edge16" class="edge">
<title>(5,0)&#45;&gt;(5,1)</title>
<path fill="none" stroke="black" d="M120,-190.97C128.07,-179.66 137.9,-165.86 146.61,-153.64"/>
<polygon fill="black" stroke="black" points="149.47,-155.66 152.43,-145.48 143.77,-151.59 149.47,-155.66"/>
</g>
<!-- (3,0) -->
<g id="node16" class="node">
<title>(3,0)</title>
<ellipse fill="none" stroke="black" cx="393.6" cy="-214.99" rx="28.7" ry="28.7"/>
<text text-anchor="middle" x="393.6" y="-211.29" font-family="Helvetica,sans-Serif" font-size="14.00">(3,0)</text>
</g>
<!-- (3,0)&#45;&gt;(4,1) -->
<g id="edge20" class="edge">
<title>(3,0)&#45;&gt;(4,1)</title>
<path fill="none" stroke="black" d="M393.6,-186.13C393.6,-178.09 393.6,-169.17 393.6,-160.63"/>
<polygon fill="black" stroke="black" points="397.1,-160.48 393.6,-150.48 390.1,-160.48 397.1,-160.48"/>
</g>
<!-- (3,0)&#45;&gt;(6,1) -->
<g id="edge21" class="edge">
<title>(3,0)&#45;&gt;(6,1)</title>
<path fill="none" stroke="black" d="M407.64,-189.55C417.04,-177.05 429.51,-161.83 440.8,-149.08"/>
<polygon fill="black" stroke="black" points="443.53,-151.28 447.63,-141.51 438.33,-146.59 443.53,-151.28"/>
</g>
<!-- (3,0)&#45;&gt;(6,1) -->
<g id="edge22" class="edge">
<title>(3,0)&#45;&gt;(6,1)</title>
<path fill="none" stroke="black" d="M414.73,-195.09C425.39,-183.51 438.13,-168.39 448.62,-154.97"/>
<polygon fill="black" stroke="black" points="451.52,-156.94 454.82,-146.88 445.96,-152.68 451.52,-156.94"/>
</g>
<!-- (3,0)&#45;&gt;(3,1) -->
<g id="edge19" class="edge">
<title>(3,0)&#45;&gt;(3,1)</title>
<path fill="none" stroke="black" d="M369.37,-199.16C362.39,-194.96 354.72,-190.44 347.6,-186.39 318.21,-169.69 309.11,-168.54 280.6,-150.39 278.47,-149.03 276.3,-147.59 274.14,-146.11"/>
<polygon fill="black" stroke="black" points="276.1,-143.21 265.92,-140.27 272.04,-148.91 276.1,-143.21"/>
</g>
<!-- (7,0) -->
<g id="node18" class="node">
<title>(7,0)</title>
<ellipse fill="none" stroke="black" cx="28.6" cy="-214.99" rx="28.7" ry="28.7"/>
<text text-anchor="middle" x="28.6" y="-211.29" font-family="Helvetica,sans-Serif" font-size="14.00">(7,0)</text>
</g>
<!-- (7,0)&#45;&gt;(7,1) -->
<g id="edge23" class="edge">
<title>(7,0)&#45;&gt;(7,1)</title>
<path fill="none" stroke="black" d="M45,-190.97C53.07,-179.66 62.9,-165.86 71.61,-153.64"/>
<polygon fill="black" stroke="black" points="74.47,-155.66 77.43,-145.48 68.77,-151.59 74.47,-155.66"/>
</g>
<!-- (8,0) -->
<g id="node19" class="node">
<title>(8,0)</title>
<ellipse fill="none" stroke="black" cx="618.6" cy="-214.99" rx="28.7" ry="28.7"/>
<text text-anchor="middle" x="618.6" y="-211.29" font-family="Helvetica,sans-Serif" font-size="14.00">(8,0)</text>
</g>
<!-- (8,0)&#45;&gt;(8,1) -->
<g id="edge24" class="edge">
<title>(8,0)&#45;&gt;(8,1)</title>
<path fill="none" stroke="black" d="M600.82,-192.38C590.99,-180.42 578.64,-165.4 567.92,-152.37"/>
<polygon fill="black" stroke="black" points="570.56,-150.07 561.5,-144.57 565.15,-154.51 570.56,-150.07"/>
</g>
<!-- (6,0) -->
<g id="node20" class="node">
<title>(6,0)</title>
<ellipse fill="none" stroke="black" cx="468.6" cy="-214.99" rx="28.7" ry="28.7"/>
<text text-anchor="middle" x="468.6" y="-211.29" font-family="Helvetica,sans-Serif" font-size="14.00">(6,0)</text>
</g>
<!-- (6,0)&#45;&gt;(7,1) -->
<g id="edge28" class="edge">
<title>(6,0)&#45;&gt;(7,1)</title>
<path fill="none" stroke="black" d="M447.44,-195.31C442.52,-191.82 437.1,-188.59 431.6,-186.39 306.47,-136.42 255.72,-200.36 130.6,-150.39 128.1,-149.39 125.63,-148.18 123.21,-146.84"/>
<polygon fill="black" stroke="black" points="125.08,-143.88 114.76,-141.47 121.32,-149.79 125.08,-143.88"/>
</g>
<!-- (6,0)&#45;&gt;(8,1) -->
<g id="edge25" class="edge">
<title>(6,0)&#45;&gt;(8,1)</title>
<path fill="none" stroke="black" d="M482.64,-189.55C492.04,-177.05 504.51,-161.83 515.8,-149.08"/>
<polygon fill="black" stroke="black" points="518.53,-151.28 522.63,-141.51 513.33,-146.59 518.53,-151.28"/>
</g>
<!-- (6,0)&#45;&gt;(8,1) -->
<g id="edge26" class="edge">
<title>(6,0)&#45;&gt;(8,1)</title>
<path fill="none" stroke="black" d="M489.73,-195.09C500.39,-183.51 513.13,-168.39 523.62,-154.97"/>
<polygon fill="black" stroke="black" points="526.52,-156.94 529.82,-146.88 520.96,-152.68 526.52,-156.94"/>
</g>
<!-- (6,0)&#45;&gt;(6,1) -->
<g id="edge27" class="edge">
<title>(6,0)&#45;&gt;(6,1)</title>
<path fill="none" stroke="black" d="M468.6,-186.13C468.6,-178.09 468.6,-169.17 468.6,-160.63"/>
<polygon fill="black" stroke="black" points="472.1,-160.48 468.6,-150.48 465.1,-160.48 472.1,-160.48"/>
</g>
<!-- (2,0) -->
<g id="node21" class="node">
<title>(2,0)</title>
<ellipse fill="none" stroke="black" cx="215.6" cy="-214.99" rx="28.7" ry="28.7"/>
<text text-anchor="middle" x="215.6" y="-211.29" font-family="Helvetica,sans-Serif" font-size="14.00">(2,0)</text>
</g>
<!-- (2,0)&#45;&gt;(7,1) -->
<g id="edge33" class="edge">
<title>(2,0)&#45;&gt;(7,1)</title>
<path fill="none" stroke="black" d="M191.18,-199.54C171.13,-185.88 142.96,-165.09 121.95,-148.58"/>
<polygon fill="black" stroke="black" points="124.01,-145.75 114,-142.27 119.65,-151.23 124.01,-145.75"/>
</g>
<!-- (2,0)&#45;&gt;(7,1) -->
<g id="edge34" class="edge">
<title>(2,0)&#45;&gt;(7,1)</title>
<path fill="none" stroke="black" d="M195.36,-194.65C176.56,-179.51 148.5,-158.51 126.52,-143.12"/>
<polygon fill="black" stroke="black" points="128.34,-140.13 118.13,-137.32 124.36,-145.88 128.34,-140.13"/>
</g>
<!-- (2,0)&#45;&gt;(2,1) -->
<g id="edge30" class="edge">
<title>(2,0)&#45;&gt;(2,1)</title>
<path fill="none" stroke="black" d="M236.94,-195.09C252.23,-181.55 273,-163.16 289.77,-148.32"/>
<polygon fill="black" stroke="black" points="292.47,-150.6 297.64,-141.35 287.83,-145.36 292.47,-150.6"/>
</g>
<!-- (2,0)&#45;&gt;(6,1) -->
<g id="edge32" class="edge">
<title>(2,0)&#45;&gt;(6,1)</title>
<path fill="none" stroke="black" d="M240.42,-200.18C249.95,-195.3 261.07,-190.11 271.6,-186.39 340.32,-162.11 365.38,-180.85 431.6,-150.39 433.95,-149.31 436.31,-148.05 438.62,-146.7"/>
<polygon fill="black" stroke="black" points="440.8,-149.45 447.25,-141.05 436.97,-143.59 440.8,-149.45"/>
</g>
<!-- (2,0)&#45;&gt;(3,1) -->
<g id="edge29" class="edge">
<title>(2,0)&#45;&gt;(3,1)</title>
<path fill="none" stroke="black" d="M223.85,-187.12C226.52,-178.4 229.54,-168.57 232.4,-159.27"/>
<polygon fill="black" stroke="black" points="235.82,-160.06 235.41,-149.47 229.13,-158 235.82,-160.06"/>
</g>
<!-- (2,0)&#45;&gt;(5,1) -->
<g id="edge31" class="edge">
<title>(2,0)&#45;&gt;(5,1)</title>
<path fill="none" stroke="black" d="M202.75,-189.07C197.63,-179.12 191.64,-167.5 186.12,-156.79"/>
<polygon fill="black" stroke="black" points="189.12,-154.97 181.42,-147.68 182.89,-158.17 189.12,-154.97"/>
</g>
<!-- (1,1)&#45;&gt;(1,2) -->
<g id="edge35" class="edge">
<title>(1,1)&#45;&gt;(1,2)</title>
<path fill="none" stroke="black" d="M618.6,-92.94C618.6,-84.89 618.6,-75.98 618.6,-67.43"/>
<polygon fill="black" stroke="black" points="622.1,-67.28 618.6,-57.28 615.1,-67.28 622.1,-67.28"/>
</g>
<!-- (5,1)&#45;&gt;(5,2) -->
<g id="edge36" class="edge">
<title>(5,1)&#45;&gt;(5,2)</title>
<path fill="none" stroke="black" d="M168.6,-92.94C168.6,-84.89 168.6,-75.98 168.6,-67.43"/>
<polygon fill="black" stroke="black" points="172.1,-67.28 168.6,-57.28 165.1,-67.28 172.1,-67.28"/>
</g>
</g>
</svg>
